<svg id="check-mark" xmlns="http://www.w3.org/2000/svg" viewBox="0 0 30.64 27.066">
  <defs>
    <style>
      .cls-1 {
        fill: #3b114b;
      }
    </style>
  </defs>
  <path id="Path_743" data-name="Path 743" class="cls-1" d="M29.3,20.773c-1.383-.744-2.925.691-3.829,1.542-2.074,2.021-3.829,4.361-5.8,6.488-2.18,2.34-4.2,4.68-6.435,6.966a19.186,19.186,0,0,0-3.51,4.254,69.8,69.8,0,0,0-5.69-5.531C2.5,33.324-.052,32.473,0,35.291c.106,3.669,3.35,7.6,5.743,10.1a6.074,6.074,0,0,0,3.882,2.233c1.861.106,3.776-2.127,4.892-3.35,1.968-2.127,3.563-4.52,5.371-6.7,2.34-2.872,4.733-5.69,7.02-8.615C28.345,27.155,32.865,22.688,29.3,20.773ZM2.341,35.078a.4.4,0,0,0-.213.053,2.588,2.588,0,0,1-.585-.213h0Q1.783,34.759,2.341,35.078Z" transform="translate(-0.001 -20.566)"/>
</svg>
