<svg xmlns="http://www.w3.org/2000/svg" viewBox="0 0 27.203 27.203">
  <defs>
    <style>
      .cls-1 {
        fill: #e90052;
      }
    </style>
  </defs>
  <g id="close" transform="translate(-0.001 45)">
    <g id="Group_690" data-name="Group 690" transform="translate(0.001 -45)">
      <g id="Group_689" data-name="Group 689" transform="translate(0 0)">
        <path id="Path_747" data-name="Path 747" class="cls-1" d="M16.525-31.41,26.6-41.485a2.057,2.057,0,0,0,0-2.911,2.057,2.057,0,0,0-2.911,0L13.614-34.321,3.538-44.4a2.057,2.057,0,0,0-2.911,0,2.059,2.059,0,0,0,0,2.911L10.7-31.41.6-21.312A2.057,2.057,0,0,0,.6-18.4a2.05,2.05,0,0,0,1.456.6,2.05,2.05,0,0,0,1.455-.6l10.1-10.1L23.689-18.424a2.055,2.055,0,0,0,1.456.6,2.053,2.053,0,0,0,1.455-.6,2.057,2.057,0,0,0,0-2.911Z" transform="translate(-0.001 45)"/>
      </g>
    </g>
  </g>
</svg>
