<?xml version="1.0" encoding="utf-8"?>
<!-- Generator: Adobe Illustrator 19.0.0, SVG Export Plug-In . SVG Version: 6.00 Build 0)  -->
<svg version="1.1" id="Layer_1" xmlns="http://www.w3.org/2000/svg" xmlns:xlink="http://www.w3.org/1999/xlink" x="0px" y="0px"
	 viewBox="0 0 70 61" style="enable-background:new 0 0 70 61;" xml:space="preserve">
<style type="text/css">
	.st0{fill:#370C3A;}
	.st1{fill:#E81854;}
	.st2{fill:#9FC8EB;}
	.st3{fill:#F7F8F8;stroke:#FFF9F8;stroke-width:2;}
	.st4{fill:none;}
</style>
<g id="Group_658" transform="translate(-34.031 -1074.544)">
	<g id="bank" transform="translate(34.031 1074.544)">
		<path id="Path_560" class="st0" d="M10.3,24.2h1.3c0,0.1,0,0.1,0,0.2v24.8h-0.9c-0.9,0-1.6,0.7-1.6,1.6c0,0.9,0.7,1.6,1.6,1.6l0,0
			h46.9c0.9,0,1.6-0.7,1.6-1.6c0-0.9-0.7-1.6-1.6-1.6h-0.9V24.4c0-0.1,0-0.1,0-0.2h1.3c1.5,0,2.8-1.2,2.8-2.7c0-0.9-0.4-1.7-1.1-2.2
			L35,1.1c-0.6-0.4-1.3-0.4-1.9,0L8.6,19.2c-1.2,0.9-1.5,2.6-0.6,3.8C8.6,23.7,9.4,24.2,10.3,24.2L10.3,24.2z M35.5,49.2h-2.8V24.4
			c0-0.1,0-0.1,0-0.2h2.9c0,0.1,0,0.1,0,0.2C35.5,24.4,35.5,49.2,35.5,49.2z M23.5,49.2h-2.8V24.4c0-0.1,0-0.1,0-0.2h2.9
			c0,0.1,0,0.1,0,0.2L23.5,49.2z M14.7,49.2V25.9h2.8v23.2H14.7z M26.7,49.2V25.9h2.8v23.2H26.7z M38.7,49.2V25.9h2.8v23.2H38.7z
			 M50.7,49.2V25.9h2.8v23.2H50.7z M47.5,24.4v24.8h-2.8V24.4c0-0.1,0-0.1,0-0.2h2.9C47.5,24.2,47.5,24.3,47.5,24.4L47.5,24.4z
			 M34.1,4.3L56.7,21H11.5L34.1,4.3z"/>
		<path id="Path_561" class="st1" d="M60.5,54.2H7.7c-0.9,0-1.6,0.7-1.6,1.6c0,0.9,0.7,1.6,1.6,1.6h52.8c0.9,0,1.6-0.7,1.6-1.6
			C62.1,54.9,61.4,54.2,60.5,54.2z"/>
	</g>
	<g id="Group_657" transform="translate(56.113 1093.325)">
		<g id="file" transform="translate(0)">
			<path id="Path_548" class="st2" d="M44.1,21.6h-3.1c-0.6,0-1-0.5-1-1v-3.1L44.1,21.6z"/>
			<path id="Path_549" class="st3" d="M44.1,21.6V40c0,0.6-0.5,1-1,1H26.7c-0.6,0-1-0.5-1-1V18.5c0-0.6,0.5-1,1-1H40v3.1
				c0,0.6,0.5,1,1,1L44.1,21.6z"/>
			<path id="Path_550" class="st4" d="M29.3,25.1h11.3c0.3,0,0.5,0.2,0.5,0.5v6.1c0,0.3-0.2,0.5-0.5,0.5H29.3
				c-0.3,0-0.5-0.2-0.5-0.5v-6.1C28.8,25.4,29,25.1,29.3,25.1z"/>
			<g id="Group_556" transform="translate(0)">
				<path id="Path_551" class="st0" d="M28.3,20h4.1v4.1h-4.1V20z"/>
				<path id="Path_554" class="st0" d="M44.5,21.2l-4.1-4.1C40.3,17,40.2,17,40,17H26.7c-0.8,0-1.5,0.7-1.5,1.5c0,0,0,0,0,0l0,0V40
					c0,0.8,0.7,1.5,1.5,1.5l0,0h16.4c0.8,0,1.5-0.7,1.5-1.5c0,0,0,0,0,0V21.6C44.6,21.4,44.6,21.3,44.5,21.2z M43.6,40
					c0,0.3-0.2,0.5-0.5,0.5l0,0H26.7c-0.3,0-0.5-0.2-0.5-0.5l0,0V18.5c0-0.3,0.2-0.5,0.5-0.5l0,0h12.8v2.6c0,0.8,0.7,1.5,1.5,1.5
					l0,0h1v-1h-1c-0.3,0-0.5-0.2-0.5-0.5c0,0,0,0,0,0v-1.8l3.1,3.1L43.6,40z"/>
				<path id="Path_555" class="st1" d="M40.5,34.4h1v1h-1V34.4z"/>
				<path id="Path_556" class="st0" d="M38.5,34.4h1v1h-1V34.4z"/>
				<path id="Path_557" class="st0" d="M28.3,34.4h8.2v1h-8.2V34.4z"/>
				<path id="Path_558" class="st0" d="M28.3,36.9h13.3v1H28.3V36.9z"/>
				<path id="Path_622" class="st0" d="M28.3,31.9h13.3v-1.1H28.3V31.9z"/>
				<path id="Path_623" class="st0" d="M28.3,28.1h8.2v1h-8.2V28.1z"/>
			</g>
		</g>
	</g>
</g>
</svg>
