<svg xmlns="http://www.w3.org/2000/svg" viewBox="0 0 151.267 65.346">
  <defs>
    <style>
      .cls-1 {
        fill: #0b1153;
      }

      .cls-1, .cls-3, .cls-4 {
        stroke: #38003c;
      }

      .cls-2 {
        fill: #e90052;
      }

      .cls-3 {
        fill: #38003c;
      }

      .cls-4, .cls-5, .cls-6 {
        fill: none;
        stroke-width: 4px;
      }

      .cls-5 {
        stroke: #e90052;
      }

      .cls-6 {
        stroke: #0b1153;
      }
    </style>
  </defs>
  <g id="Group_851" data-name="Group 851" transform="translate(-1417.5 -1971.5)">
    <g id="Group_509" data-name="Group 509" transform="translate(1464.762 1972)">
      <g id="Group_508" data-name="Group 508">
        <path id="Path_503" data-name="Path 503" class="cls-1" d="M91.774,0H11.731A11.855,11.855,0,0,0,0,11.731V52.615A11.743,11.743,0,0,0,11.731,64.346H91.774A11.743,11.743,0,0,0,103.5,52.615V11.731A11.855,11.855,0,0,0,91.774,0Zm7.763,52.787a7.731,7.731,0,0,1-7.763,7.763H11.731a7.731,7.731,0,0,1-7.763-7.763V11.731a7.731,7.731,0,0,1,7.763-7.763H91.774a7.731,7.731,0,0,1,7.763,7.763Z"/>
        <path id="Path_504" data-name="Path 504" class="cls-2" d="M58.561,8.3H44.07A2.1,2.1,0,0,0,42,10.37v10.7a2.1,2.1,0,0,0,2.07,2.07H58.561a2.1,2.1,0,0,0,2.07-2.07V10.37A2.1,2.1,0,0,0,58.561,8.3ZM56.663,19H46.14V12.44H56.663Z" transform="translate(30.453 6.018)"/>
        <path id="Path_505" data-name="Path 505" class="cls-1" d="M20.713,26.2H11.57a2.07,2.07,0,0,0,0,4.14h9.143a2.1,2.1,0,0,0,2.07-2.07A1.993,1.993,0,0,0,20.713,26.2Z" transform="translate(6.888 18.997)"/>
        <path id="Path_506" data-name="Path 506" class="cls-1" d="M31.813,26.2H22.67a2.07,2.07,0,1,0,0,4.14h9.143a2.07,2.07,0,0,0,0-4.14Z" transform="translate(14.937 18.997)"/>
        <path id="Path_507" data-name="Path 507" class="cls-1" d="M42.913,26.2H33.77a2.07,2.07,0,1,0,0,4.14h9.143a2.1,2.1,0,0,0,2.07-2.07A2.22,2.22,0,0,0,42.913,26.2Z" transform="translate(22.985 18.997)"/>
        <path id="Path_508" data-name="Path 508" class="cls-1" d="M54.013,26.2H44.87a2.07,2.07,0,1,0,0,4.14h9.143a2.1,2.1,0,0,0,2.07-2.07A2.22,2.22,0,0,0,54.013,26.2Z" transform="translate(31.033 18.997)"/>
        <path id="Path_509" data-name="Path 509" class="cls-3" d="M36.355,30.8a1.959,1.959,0,0,0,1.38-.518,1.793,1.793,0,0,0,0-2.76,13.328,13.328,0,0,1,0-18.976,1.793,1.793,0,0,0,0-2.76,1.935,1.935,0,0,0-2.76-.173A17.238,17.238,0,0,0,29.8,17.857a16.559,16.559,0,0,0,5.175,12.248A1.569,1.569,0,0,0,36.355,30.8Z" transform="translate(21.607 3.706)"/>
        <path id="Path_510" data-name="Path 510" class="cls-3" d="M36.812,23.653a2.1,2.1,0,0,0,2.76,0,1.793,1.793,0,0,0,0-2.76,6.67,6.67,0,0,1,0-9.66,1.793,1.793,0,0,0,0-2.76,1.793,1.793,0,0,0-2.76,0,10.812,10.812,0,0,0-3.105,7.763A9.665,9.665,0,0,0,36.812,23.653Z" transform="translate(24.428 5.674)"/>
      </g>
    </g>
    <g id="Group_510" data-name="Group 510" transform="translate(4 -930)">
      <line id="Line_18" data-name="Line 18" class="cls-4" x2="20" transform="translate(1435.5 2935.5)"/>
      <line id="Line_19" data-name="Line 19" class="cls-5" x2="36" transform="translate(1419.5 2945.5)"/>
      <line id="Line_20" data-name="Line 20" class="cls-6" x2="42" transform="translate(1413.5 2955.5)"/>
    </g>
  </g>
</svg>
