<?xml version="1.0" encoding="utf-8"?>
<!-- Generator: Adobe Illustrator 19.0.0, SVG Export Plug-In . SVG Version: 6.00 Build 0)  -->
<svg version="1.1" id="Layer_1" xmlns="http://www.w3.org/2000/svg" xmlns:xlink="http://www.w3.org/1999/xlink" x="0px" y="0px"
	 viewBox="0 0 70 61" style="enable-background:new 0 0 70 61;" xml:space="preserve">
<style type="text/css">
	.st0{fill:#370C3A;stroke:#370C3A;stroke-width:0.5;}
	.st1{fill:#E81854;}
	.st2{fill:#370C3A;}
	.st3{fill:none;stroke:#370C3A;stroke-width:2;}
	.st4{fill:none;stroke:#E81854;stroke-width:2;}
</style>
<g id="Group_659" transform="translate(-397.584 -1290.984)">
	<g id="Group_731" transform="translate(397.584 1291.234)">
		<g id="Group_654" transform="translate(15.484)">
			<g id="Group_508">
				<path id="Path_503" class="st0" d="M48.3,18H11.6c-3,0-5.4,2.4-5.4,5.4v18.8c0,3,2.4,5.4,5.4,5.4h36.7c3,0,5.4-2.4,5.4-5.4V23.4
					C53.7,20.4,51.3,18,48.3,18z M51.9,42.2c0,2-1.6,3.6-3.5,3.6c0,0,0,0,0,0H11.6c-2,0-3.6-1.6-3.6-3.5c0,0,0,0,0,0V23.4
					c0-2,1.6-3.6,3.5-3.6c0,0,0,0,0,0h36.7c2,0,3.6,1.6,3.6,3.5c0,0,0,0,0,0V42.2z"/>
				<path id="Path_504" class="st1" d="M47,24.6h-6.6c-0.5,0-0.9,0.4-0.9,0.9v4.9c0,0.5,0.4,0.9,0.9,0.9H47c0.5,0,0.9-0.4,0.9-0.9
					v-4.9C48,25,47.6,24.6,47,24.6z M46.2,29.5h-4.8v-3h4.8V29.5z"/>
				<path id="Path_505" class="st2" d="M18.9,38.7h-4.2c-0.5,0-0.9,0.4-0.9,1c0,0.5,0.4,0.9,0.9,0.9h4.2c0.5,0,0.9-0.4,0.9-0.9
					C19.8,39.2,19.4,38.8,18.9,38.7C18.9,38.7,18.9,38.7,18.9,38.7z"/>
				<path id="Path_506" class="st2" d="M27.6,38.7h-4.2c-0.5,0-0.9,0.4-0.9,1c0,0.5,0.4,0.9,0.9,0.9h4.2c0.5,0,0.9-0.4,0.9-1
					C28.6,39.2,28.2,38.7,27.6,38.7z"/>
				<path id="Path_507" class="st2" d="M36.4,38.7h-4.2c-0.5,0-0.9,0.4-1,0.9c0,0.5,0.4,0.9,0.9,1c0,0,0,0,0,0h4.2
					c0.5,0,0.9-0.4,0.9-0.9C37.3,39.2,36.9,38.8,36.4,38.7z"/>
				<path id="Path_508" class="st2" d="M45.2,38.7H41c-0.5,0-0.9,0.4-1,0.9c0,0.5,0.4,0.9,0.9,1c0,0,0,0,0,0h4.2
					c0.5,0,0.9-0.4,0.9-0.9C46.1,39.2,45.7,38.8,45.2,38.7z"/>
				<path id="Path_509" class="st2" d="M32.8,33.8c0.2,0,0.5-0.1,0.6-0.2c0.3-0.3,0.4-0.8,0.1-1.2c0,0-0.1-0.1-0.1-0.1
					C31,30,31,26.1,33.4,23.7c0,0,0,0,0.1-0.1c0.3-0.3,0.4-0.8,0.1-1.2c0,0-0.1-0.1-0.1-0.1c-0.3-0.4-0.9-0.4-1.3-0.1c0,0,0,0,0,0
					c-1.5,1.5-2.4,3.5-2.4,5.6c0,2.1,0.8,4.2,2.4,5.6C32.3,33.7,32.5,33.8,32.8,33.8z"/>
				<path id="Path_510" class="st2" d="M34.3,31.4c0.4,0.3,0.9,0.3,1.3,0c0.3-0.3,0.4-0.8,0.1-1.2c0,0-0.1-0.1-0.1-0.1
					c-1.2-1.2-1.3-3.1-0.1-4.3c0,0,0.1-0.1,0.1-0.1c0.3-0.4,0.3-0.9-0.1-1.3c-0.3-0.3-0.8-0.3-1.1,0c-0.9,0.9-1.4,2.2-1.4,3.5
					C32.8,29.3,33.3,30.6,34.3,31.4z"/>
			</g>
		</g>
		<g id="Group_655" transform="translate(0 10.975)">
			<path id="Line_18_2_" class="st3" d="M19.3,22.4"/>
			<path id="Line_18_1_" class="st3" d="M10.1,22.4"/>
			<path id="Line_19_2_" class="st4" d="M19.3,27"/>
			<path id="Line_19_1_" class="st4" d="M2.8,27"/>
			<path id="Line_20_2_" class="st3" d="M19.3,31.6"/>
			<path id="Line_20_1_" class="st3" d="M0,31.6"/>
		</g>
	</g>
</g>
<path id="XMLID_3_" class="st2" d="M18.4,35.7H5.8c-0.4,0-0.7-0.3-0.7-0.7v-0.6c0-0.4,0.3-0.7,0.7-0.7h12.6c0.4,0,0.7,0.3,0.7,0.7
	V35C19.1,35.4,18.8,35.7,18.4,35.7z"/>
<path id="XMLID_2_" class="st1" d="M18.8,39.9H3.3c-0.4,0-0.7-0.3-0.7-0.7v-0.6c0-0.4,0.3-0.7,0.7-0.7h15.5c0.4,0,0.7,0.3,0.7,0.7
	v0.6C19.4,39.6,19.1,39.9,18.8,39.9z"/>
<path id="XMLID_1_" class="st2" d="M18.8,44.1H0.7c-0.4,0-0.7-0.3-0.7-0.7v-0.6c0-0.4,0.3-0.7,0.7-0.7h18.1c0.4,0,0.7,0.3,0.7,0.7
	v0.6C19.4,43.8,19.1,44.1,18.8,44.1z"/>
</svg>
