<svg xmlns="http://www.w3.org/2000/svg" viewBox="0 0 77.934 98.443">
  <defs>
    <style>
      .cls-1 {
        fill: #e90052;
      }

      .cls-2 {
        fill: #f7f7f7;
      }

      .cls-3 {
        fill: none;
      }

      .cls-4 {
        fill: #38003c;
      }
    </style>
  </defs>
  <g id="file" transform="translate(-53.333)">
    <path id="Path_548" data-name="Path 548" class="cls-1" d="M379.074,27.074H366.769a4.114,4.114,0,0,1-4.1-4.1V10.667Z" transform="translate(-249.858 -8.616)"/>
    <path id="Path_549" data-name="Path 549" class="cls-2" d="M137.832,27.074v73.832a4.114,4.114,0,0,1-4.1,4.1H68.1a4.114,4.114,0,0,1-4.1-4.1V14.769a4.114,4.114,0,0,1,4.1-4.1h53.323V22.972a4.114,4.114,0,0,0,4.1,4.1Z" transform="translate(-8.616 -8.616)"/>
    <path id="Path_550" data-name="Path 550" class="cls-3" d="M130.051,170.667h45.12a2.051,2.051,0,0,1,2.051,2.051v24.611a2.051,2.051,0,0,1-2.051,2.051h-45.12A2.051,2.051,0,0,1,128,197.329V172.718A2.051,2.051,0,0,1,130.051,170.667Z" transform="translate(-60.311 -137.853)"/>
    <g id="Group_556" data-name="Group 556" transform="translate(53.333)">
      <path id="Path_551" data-name="Path 551" class="cls-4" d="M117.333,64h16.408V80.338H117.333Z" transform="translate(-105.028 -51.695)"/>
      <path id="Path_554" data-name="Path 554" class="cls-4" d="M130.666,17.008,114.259.6a2.05,2.05,0,0,0-1.45-.6H59.486a6.153,6.153,0,0,0-6.153,6.153h0V92.29a6.153,6.153,0,0,0,6.153,6.153h65.629a6.153,6.153,0,0,0,6.153-6.153V18.458A2.05,2.05,0,0,0,130.666,17.008Zm-3.5,75.282a2.051,2.051,0,0,1-2.051,2.051H59.486a2.051,2.051,0,0,1-2.051-2.051V6.153A2.051,2.051,0,0,1,59.486,4.1h51.272V14.356a6.153,6.153,0,0,0,6.153,6.153h4.1v-4.1h-4.1a2.051,2.051,0,0,1-2.051-2.051V7l12.305,12.305Z" transform="translate(-53.333)"/>
      <path id="Path_555" data-name="Path 555" class="cls-1" d="M373.333,362.667h4.1v4.1h-4.1Z" transform="translate(-311.806 -292.937)"/>
      <path id="Path_556" data-name="Path 556" class="cls-4" d="M330.667,362.667h4.1v4.1h-4.1Z" transform="translate(-277.344 -292.937)"/>
      <path id="Path_557" data-name="Path 557" class="cls-4" d="M117.333,362.667h32.814v4.1H117.333Z" transform="translate(-105.028 -292.937)"/>
      <path id="Path_558" data-name="Path 558" class="cls-4" d="M117.333,416h53.323v4.1H117.333Z" transform="translate(-105.028 -336.015)"/>
      <path id="Path_622" data-name="Path 622" class="cls-4" d="M117.333,367.088h53.323v-4.421H117.333Z" transform="translate(-105.027 -307.357)"/>
      <path id="Path_623" data-name="Path 623" class="cls-4" d="M117.333,362.667h32.814v4.1H117.333Z" transform="translate(-105.027 -317.937)"/>
    </g>
  </g>
</svg>
