<svg xmlns="http://www.w3.org/2000/svg" viewBox="0 0 59.789 90.056">
  <defs>
    <style>
      .cls-1 {
        opacity: 0.15;
      }

      .cls-2 {
        fill: #38003c;
      }

      .cls-3 {
        fill: #fff;
      }

      .cls-4 {
        fill: #e90052;
      }
    </style>
  </defs>
  <g id="Group_719" data-name="Group 719" class="cls-1" transform="translate(-513.045 -791.822)">
    <path id="Path_720" data-name="Path 720" class="cls-2" d="M42.738,0H11.992A4.671,4.671,0,0,0,7.334,4.658V64.3a4.673,4.673,0,0,0,4.658,4.66H42.738A4.67,4.67,0,0,0,47.4,64.306V4.658A4.671,4.671,0,0,0,42.738,0ZM20.522,65.607H16.589a1.311,1.311,0,0,1,0-2.623h3.933a1.311,1.311,0,0,1,0,2.623Zm6.843,1.029A2.33,2.33,0,1,1,29.694,64.3,2.33,2.33,0,0,1,27.365,66.635Zm10.776-1.029H34.212a1.311,1.311,0,1,1,0-2.623h3.929a1.311,1.311,0,0,1,0,2.623Zm6.014-5.263H10.575V3.042h33.58Z" transform="translate(505.711 812.913)"/>
    <g id="credit-card_1_" data-name="credit-card (1)" transform="translate(540.478 840.354) rotate(-90)">
      <g id="Group_660" data-name="Group 660">
        <g id="Group_659" data-name="Group 659">
          <path id="Path_724" data-name="Path 724" class="cls-2" d="M43.477,0H5.055A5.063,5.063,0,0,0,0,5.056V27.3a5.063,5.063,0,0,0,5.055,5.055H43.477A5.063,5.063,0,0,0,48.532,27.3V5.056A5.062,5.062,0,0,0,43.477,0ZM46.51,27.3a3.037,3.037,0,0,1-3.033,3.033H5.055A3.037,3.037,0,0,1,2.022,27.3V5.056A3.037,3.037,0,0,1,5.055,2.022H43.477A3.037,3.037,0,0,1,46.51,5.056V27.3Z"/>
        </g>
      </g>
      <g id="Group_662" data-name="Group 662" transform="translate(0 6.067)">
        <g id="Group_661" data-name="Group 661" transform="translate(0 0)">
          <path id="Path_725" data-name="Path 725" class="cls-2" d="M47.521,0H1.011A1.012,1.012,0,0,0,0,1.011V7.078A1.012,1.012,0,0,0,1.011,8.089h46.51a1.012,1.012,0,0,0,1.011-1.011V1.011A1.012,1.012,0,0,0,47.521,0ZM46.51,6.067H2.022V2.022H46.51V6.067Z"/>
        </g>
      </g>
      <g id="Group_664" data-name="Group 664" transform="translate(6.067 20.222)">
        <g id="Group_663" data-name="Group 663" transform="translate(0 0)">
          <path id="Path_726" data-name="Path 726" class="cls-2" d="M13.144,0H1.011a1.011,1.011,0,1,0,0,2.022H13.144a1.011,1.011,0,1,0,0-2.022Z"/>
        </g>
      </g>
      <g id="Group_666" data-name="Group 666" transform="translate(6.067 24.266)">
        <g id="Group_665" data-name="Group 665" transform="translate(0 0)">
          <path id="Path_727" data-name="Path 727" class="cls-2" d="M13.144,0H1.011a1.011,1.011,0,1,0,0,2.022H13.144a1.011,1.011,0,1,0,0-2.022Z"/>
        </g>
      </g>
      <g id="Group_668" data-name="Group 668" transform="translate(34.377 18.2)">
        <g id="Group_667" data-name="Group 667" transform="translate(0 0)">
          <path id="Path_728" data-name="Path 728" class="cls-2" d="M5.055,0H3.033A3.037,3.037,0,0,0,0,3.033V5.055A3.037,3.037,0,0,0,3.033,8.089H5.055A3.037,3.037,0,0,0,8.089,5.055V3.033A3.037,3.037,0,0,0,5.055,0ZM6.067,5.056A1.012,1.012,0,0,1,5.055,6.067H3.033A1.011,1.011,0,0,1,2.022,5.056V3.033A1.011,1.011,0,0,1,3.033,2.022H5.055A1.012,1.012,0,0,1,6.067,3.033Z"/>
        </g>
      </g>
    </g>
    <rect id="Rectangle_316" data-name="Rectangle 316" class="cls-3" width="34.941" height="58.803" transform="translate(515.622 815.31)"/>
    <g id="Group_669" data-name="Group 669" transform="translate(521 837.874)">
      <g id="Group_654" data-name="Group 654" transform="translate(0)">
        <path id="Path_721" data-name="Path 721" class="cls-4" d="M35.524,17.23l-1.746,1.744a14.629,14.629,0,0,0-20.664,0L11.371,17.23A17.1,17.1,0,0,1,35.524,17.23Z" transform="translate(-11.371 -12.235)"/>
      </g>
      <g id="Group_655" data-name="Group 655" transform="translate(3.013 4.263)">
        <path id="Path_722" data-name="Path 722" class="cls-4" d="M31.028,18.145,29.28,19.891a10.36,10.36,0,0,0-14.632,0L12.9,18.145A12.838,12.838,0,0,1,31.028,18.145Z" transform="translate(-12.9 -14.399)"/>
      </g>
      <g id="Group_656" data-name="Group 656" transform="translate(6.126 8.66)">
        <path id="Path_723" data-name="Path 723" class="cls-4" d="M26.381,19.091l-1.744,1.744a5.957,5.957,0,0,0-8.414,0L14.48,19.091A8.426,8.426,0,0,1,26.381,19.091Z" transform="translate(-14.48 -16.63)"/>
      </g>
      <g id="Group_670" data-name="Group 670" transform="translate(9.52 13.318)">
        <path id="Path_723-2" data-name="Path 723" class="cls-4" d="M20.431,17.861l-.872.872a2.979,2.979,0,0,0-4.207,0l-.872-.872A4.213,4.213,0,0,1,20.431,17.861Z" transform="translate(-14.48 -16.63)"/>
      </g>
    </g>
  </g>
</svg>
