<svg id="Group_753" data-name="Group 753" xmlns="http://www.w3.org/2000/svg" viewBox="0 0 352.375 256.547">
  <defs>
    <style>
      .cls-1 {
        opacity: 0.34;
      }

      .cls-2 {
        fill: rgba(103,229,252,0.45);
      }
    </style>
  </defs>
  <g id="Group_745" data-name="Group 745">
    <g id="Group_725" data-name="Group 725" class="cls-1" transform="translate(9.357 2.971)">
      <path id="Path_772" data-name="Path 772" class="cls-2" d="M203.3,170.847c-31.765,9.617-50.416-8.257-80.723-13.114-13.794-2.04-33.8-4.177-47.6.68C60.5,163.95,61.183,173.567,60.5,188.138c-1.36,33.125-40.993,18.651-48.57,50.416C7.076,258.564,9.5,274.4,23.978,287.512c7.577,7.577,13.114,15.154,13.794,26.228.68,21.371-21.371,53.816,6.9,68.289,15.834,8.257,37.3-.68,54.5,7.577,8.937,4.177,14.474,11.754,24.188,15.154,16.611,4.857,30.4.68,45.559-4.857,14.474-5.537,28.948-11.074,43.519-12.434,11.074-.68,22.051,1.36,32.445-1.36,11.754-2.72,15.154-10.394,24.188-15.834,11.074-6.217,24.868,0,36.622-4.177,28.948-8.937,5.537-37.3,6.217-57.313.68-22.051,17.582-38.662,16.222-62.85-2.04-26.908-20.3-33.125-41.77-42.839-7.577-3.5-13.114-6.9-17.971-13.794-5.537-6.9-8.257-18.651-15.154-23.508-11.268-8.063-33.513-3.5-49.93,5.051" transform="translate(-9.657 -155.459)"/>
    </g>
    <g id="Group_744" data-name="Group 744" class="cls-1">
      <g id="Group_726" data-name="Group 726" transform="translate(278.379 36.816)">
        <path id="Path_773" data-name="Path 773" class="cls-2" d="M289.223,195.643c3.4,0,3.4-5.343,0-5.343-3.5,0-3.5,5.343,0,5.343Z" transform="translate(-286.6 -190.3)"/>
      </g>
      <g id="Group_727" data-name="Group 727" transform="translate(326.712 137.38)">
        <path id="Path_774" data-name="Path 774" class="cls-2" d="M337.856,302.932c4.857,4.954,12.434-2.526,7.674-7.48s-12.434,2.526-7.674,7.48Z" transform="translate(-336.356 -293.825)"/>
      </g>
      <g id="Group_728" data-name="Group 728" transform="translate(15.105 168.149)">
        <path id="Path_775" data-name="Path 775" class="cls-2" d="M20.748,336.185c6.9,0,6.9-10.685,0-10.685s-6.9,10.685,0,10.685Z" transform="translate(-15.575 -325.5)"/>
      </g>
      <g id="Group_729" data-name="Group 729" transform="translate(293.8 28.753)">
        <path id="Path_776" data-name="Path 776" class="cls-2" d="M307.648,192.685c6.9,0,6.9-10.685,0-10.685s-6.9,10.685,0,10.685Z" transform="translate(-302.475 -182)"/>
      </g>
      <g id="Group_730" data-name="Group 730" transform="translate(2.89 148.041)">
        <path id="Path_777" data-name="Path 777" class="cls-2" d="M9.7,318.691c8.937,0,8.937-13.891,0-13.891s-8.937,13.891,0,13.891Z" transform="translate(-3 -304.8)"/>
      </g>
      <g id="Group_731" data-name="Group 731" transform="translate(326.238 159.928)">
        <path id="Path_778" data-name="Path 778" class="cls-2" d="M337.842,328.852c6.217,6.411,16.222-3.3,9.908-9.714-6.217-6.411-16.125,3.3-9.908,9.714Z" transform="translate(-335.869 -317.037)"/>
      </g>
      <g id="Group_732" data-name="Group 732" transform="translate(35.65 34.679)">
        <path id="Path_779" data-name="Path 779" class="cls-2" d="M43.5,201.991c8.937,0,8.937-13.891,0-13.891-9.034,0-9.034,13.891,0,13.891Z" transform="translate(-36.725 -188.1)"/>
      </g>
      <g id="Group_733" data-name="Group 733" transform="translate(275.902 14.765)">
        <path id="Path_780" data-name="Path 780" class="cls-2" d="M291.773,183.628c10.3,0,10.3-16.028,0-16.028s-10.3,16.028,0,16.028Z" transform="translate(-284.05 -167.6)"/>
      </g>
      <g id="Group_734" data-name="Group 734" transform="translate(0 166.401)">
        <path id="Path_781" data-name="Path 781" class="cls-2" d="M3.886,331.763c5.148,0,5.148-8.063,0-8.063s-5.148,8.063,0,8.063Z" transform="translate(-0.025 -323.7)"/>
      </g>
      <g id="Group_735" data-name="Group 735" transform="translate(344.362 150.626)">
        <path id="Path_782" data-name="Path 782" class="cls-2" d="M355.666,314.3c3.594,3.691,9.325-1.943,5.731-5.634s-9.325,1.943-5.731,5.634Z" transform="translate(-354.526 -307.46)"/>
      </g>
      <g id="Group_736" data-name="Group 736" transform="translate(21.856 48.279)">
        <path id="Path_783" data-name="Path 783" class="cls-2" d="M26.386,210.065c5.148,0,5.148-7.965,0-7.965s-5.148,7.965,0,7.965Z" transform="translate(-22.525 -202.1)"/>
      </g>
      <g id="Group_737" data-name="Group 737" transform="translate(24.431 36.233)">
        <path id="Path_784" data-name="Path 784" class="cls-2" d="M27.725,195.043c3.4,0,3.4-5.343,0-5.343s-3.4,5.343,0,5.343Z" transform="translate(-25.175 -189.7)"/>
      </g>
      <g id="Group_738" data-name="Group 738" transform="translate(183.157 2.72)">
        <path id="Path_785" data-name="Path 785" class="cls-2" d="M193.748,165.885c6.9,0,6.9-10.685,0-10.685s-6.9,10.685,0,10.685Z" transform="translate(-188.575 -155.2)"/>
      </g>
      <g id="Group_739" data-name="Group 739" transform="translate(87.062 245.861)">
        <path id="Path_786" data-name="Path 786" class="cls-2" d="M94.75,416.185c6.9,0,6.9-10.685,0-10.685-6.8,0-6.8,10.685,0,10.685Z" transform="translate(-89.65 -405.5)"/>
      </g>
      <g id="Group_740" data-name="Group 740" transform="translate(280.079 225.948)">
        <path id="Path_787" data-name="Path 787" class="cls-2" d="M293.45,395.685c6.9,0,6.9-10.685,0-10.685-6.8,0-6.8,10.685,0,10.685Z" transform="translate(-288.35 -385)"/>
      </g>
      <g id="Group_741" data-name="Group 741" transform="translate(169.752)">
        <path id="Path_788" data-name="Path 788" class="cls-2" d="M177.325,157.743c3.4,0,3.4-5.343,0-5.343s-3.4,5.343,0,5.343Z" transform="translate(-174.775 -152.4)"/>
      </g>
      <g id="Group_742" data-name="Group 742" transform="translate(73.875 241.879)">
        <path id="Path_789" data-name="Path 789" class="cls-2" d="M78.625,406.743c3.4,0,3.4-5.343,0-5.343s-3.4,5.343,0,5.343Z" transform="translate(-76.075 -401.4)"/>
      </g>
      <g id="Group_743" data-name="Group 743" transform="translate(266.601 237.993)">
        <path id="Path_790" data-name="Path 790" class="cls-2" d="M277.025,402.743c3.4,0,3.4-5.343,0-5.343s-3.4,5.343,0,5.343Z" transform="translate(-274.475 -397.4)"/>
      </g>
    </g>
  </g>
</svg>
