<svg xmlns="http://www.w3.org/2000/svg" viewBox="0 0 352.375 256.547">
  <defs>
    <style>
      .cls-1 {
        opacity: 0.34;
      }

      .cls-2 {
        fill: rgba(103,229,252,0.45);
      }

      .cls-3 {
        fill: #de5f8f;
      }

      .cls-4 {
        fill: #fee01a;
      }

      .cls-5 {
        fill: #d8801e;
      }

      .cls-6 {
        fill: #f2dbc2;
      }

      .cls-6, .cls-7 {
        fill-rule: evenodd;
      }

      .cls-7 {
        fill: #1c2658;
      }

      .cls-8 {
        fill: #eaad3a;
      }

      .cls-9 {
        fill: #fff;
        stroke: #908d8d;
        stroke-width: 0.2px;
      }

      .cls-10 {
        fill: #423f3f;
      }

      .cls-11, .cls-15 {
        fill: none;
      }

      .cls-11 {
        stroke: #393939;
        stroke-width: 0.5px;
      }

      .cls-12 {
        fill: #524d4a;
      }

      .cls-13 {
        fill: #bd7567;
      }

      .cls-14 {
        stroke: none;
      }
    </style>
  </defs>
  <g id="Group_884" data-name="Group 884" transform="translate(-783.626 -319.4)">
    <g id="Group_753" data-name="Group 753" transform="translate(783.626 319.4)">
      <g id="Group_745" data-name="Group 745">
        <g id="Group_725" data-name="Group 725" class="cls-1" transform="translate(9.357 2.971)">
          <path id="Path_772" data-name="Path 772" class="cls-2" d="M203.3,170.847c-31.765,9.617-50.416-8.257-80.723-13.114-13.794-2.04-33.8-4.177-47.6.68C60.5,163.95,61.183,173.567,60.5,188.138c-1.36,33.125-40.993,18.651-48.57,50.416C7.076,258.564,9.5,274.4,23.978,287.512c7.577,7.577,13.114,15.154,13.794,26.228.68,21.371-21.371,53.816,6.9,68.289,15.834,8.257,37.3-.68,54.5,7.577,8.937,4.177,14.474,11.754,24.188,15.154,16.611,4.857,30.4.68,45.559-4.857,14.474-5.537,28.948-11.074,43.519-12.434,11.074-.68,22.051,1.36,32.445-1.36,11.754-2.72,15.154-10.394,24.188-15.834,11.074-6.217,24.868,0,36.622-4.177,28.948-8.937,5.537-37.3,6.217-57.313.68-22.051,17.582-38.662,16.222-62.85-2.04-26.908-20.3-33.125-41.77-42.839-7.577-3.5-13.114-6.9-17.971-13.794-5.537-6.9-8.257-18.651-15.154-23.508-11.268-8.063-33.513-3.5-49.93,5.051" transform="translate(-9.657 -155.459)"/>
        </g>
        <g id="Group_744" data-name="Group 744" class="cls-1">
          <g id="Group_726" data-name="Group 726" transform="translate(278.379 36.816)">
            <path id="Path_773" data-name="Path 773" class="cls-2" d="M289.223,195.643c3.4,0,3.4-5.343,0-5.343-3.5,0-3.5,5.343,0,5.343Z" transform="translate(-286.6 -190.3)"/>
          </g>
          <g id="Group_727" data-name="Group 727" transform="translate(326.712 137.38)">
            <path id="Path_774" data-name="Path 774" class="cls-2" d="M337.856,302.932c4.857,4.954,12.434-2.526,7.674-7.48s-12.434,2.526-7.674,7.48Z" transform="translate(-336.356 -293.825)"/>
          </g>
          <g id="Group_728" data-name="Group 728" transform="translate(15.105 168.149)">
            <path id="Path_775" data-name="Path 775" class="cls-2" d="M20.748,336.185c6.9,0,6.9-10.685,0-10.685s-6.9,10.685,0,10.685Z" transform="translate(-15.575 -325.5)"/>
          </g>
          <g id="Group_729" data-name="Group 729" transform="translate(293.8 28.753)">
            <path id="Path_776" data-name="Path 776" class="cls-2" d="M307.648,192.685c6.9,0,6.9-10.685,0-10.685s-6.9,10.685,0,10.685Z" transform="translate(-302.475 -182)"/>
          </g>
          <g id="Group_730" data-name="Group 730" transform="translate(2.89 148.041)">
            <path id="Path_777" data-name="Path 777" class="cls-2" d="M9.7,318.691c8.937,0,8.937-13.891,0-13.891s-8.937,13.891,0,13.891Z" transform="translate(-3 -304.8)"/>
          </g>
          <g id="Group_731" data-name="Group 731" transform="translate(326.238 159.928)">
            <path id="Path_778" data-name="Path 778" class="cls-2" d="M337.842,328.852c6.217,6.411,16.222-3.3,9.908-9.714-6.217-6.411-16.125,3.3-9.908,9.714Z" transform="translate(-335.869 -317.037)"/>
          </g>
          <g id="Group_732" data-name="Group 732" transform="translate(35.65 34.679)">
            <path id="Path_779" data-name="Path 779" class="cls-2" d="M43.5,201.991c8.937,0,8.937-13.891,0-13.891-9.034,0-9.034,13.891,0,13.891Z" transform="translate(-36.725 -188.1)"/>
          </g>
          <g id="Group_733" data-name="Group 733" transform="translate(275.902 14.765)">
            <path id="Path_780" data-name="Path 780" class="cls-2" d="M291.773,183.628c10.3,0,10.3-16.028,0-16.028s-10.3,16.028,0,16.028Z" transform="translate(-284.05 -167.6)"/>
          </g>
          <g id="Group_734" data-name="Group 734" transform="translate(0 166.401)">
            <path id="Path_781" data-name="Path 781" class="cls-2" d="M3.886,331.763c5.148,0,5.148-8.063,0-8.063s-5.148,8.063,0,8.063Z" transform="translate(-0.025 -323.7)"/>
          </g>
          <g id="Group_735" data-name="Group 735" transform="translate(344.362 150.626)">
            <path id="Path_782" data-name="Path 782" class="cls-2" d="M355.666,314.3c3.594,3.691,9.325-1.943,5.731-5.634s-9.325,1.943-5.731,5.634Z" transform="translate(-354.526 -307.46)"/>
          </g>
          <g id="Group_736" data-name="Group 736" transform="translate(21.856 48.279)">
            <path id="Path_783" data-name="Path 783" class="cls-2" d="M26.386,210.065c5.148,0,5.148-7.965,0-7.965s-5.148,7.965,0,7.965Z" transform="translate(-22.525 -202.1)"/>
          </g>
          <g id="Group_737" data-name="Group 737" transform="translate(24.431 36.233)">
            <path id="Path_784" data-name="Path 784" class="cls-2" d="M27.725,195.043c3.4,0,3.4-5.343,0-5.343s-3.4,5.343,0,5.343Z" transform="translate(-25.175 -189.7)"/>
          </g>
          <g id="Group_738" data-name="Group 738" transform="translate(183.157 2.72)">
            <path id="Path_785" data-name="Path 785" class="cls-2" d="M193.748,165.885c6.9,0,6.9-10.685,0-10.685s-6.9,10.685,0,10.685Z" transform="translate(-188.575 -155.2)"/>
          </g>
          <g id="Group_739" data-name="Group 739" transform="translate(87.062 245.861)">
            <path id="Path_786" data-name="Path 786" class="cls-2" d="M94.75,416.185c6.9,0,6.9-10.685,0-10.685-6.8,0-6.8,10.685,0,10.685Z" transform="translate(-89.65 -405.5)"/>
          </g>
          <g id="Group_740" data-name="Group 740" transform="translate(280.079 225.948)">
            <path id="Path_787" data-name="Path 787" class="cls-2" d="M293.45,395.685c6.9,0,6.9-10.685,0-10.685-6.8,0-6.8,10.685,0,10.685Z" transform="translate(-288.35 -385)"/>
          </g>
          <g id="Group_741" data-name="Group 741" transform="translate(169.752)">
            <path id="Path_788" data-name="Path 788" class="cls-2" d="M177.325,157.743c3.4,0,3.4-5.343,0-5.343s-3.4,5.343,0,5.343Z" transform="translate(-174.775 -152.4)"/>
          </g>
          <g id="Group_742" data-name="Group 742" transform="translate(73.875 241.879)">
            <path id="Path_789" data-name="Path 789" class="cls-2" d="M78.625,406.743c3.4,0,3.4-5.343,0-5.343s-3.4,5.343,0,5.343Z" transform="translate(-76.075 -401.4)"/>
          </g>
          <g id="Group_743" data-name="Group 743" transform="translate(266.601 237.993)">
            <path id="Path_790" data-name="Path 790" class="cls-2" d="M277.025,402.743c3.4,0,3.4-5.343,0-5.343s-3.4,5.343,0,5.343Z" transform="translate(-274.475 -397.4)"/>
          </g>
        </g>
      </g>
    </g>
    <g id="Group_812" data-name="Group 812" transform="translate(6.029 25.811)">
      <g id="Group_797" data-name="Group 797" transform="translate(870.837 316.682)">
        <g id="Group_783" data-name="Group 783" transform="matrix(-0.105, -0.995, 0.995, -0.105, 25.798, 231.511)">
          <g id="Group_766" data-name="Group 766" transform="translate(121.451 38.724) rotate(14)">
            <g id="Group_755" data-name="Group 755" transform="matrix(0.998, -0.07, 0.07, 0.998, 76.533, 3.155)">
              <path id="Path_796" data-name="Path 796" class="cls-3" d="M20.4,25.966c3.8-.432,6.183-4.6,5.84-10.367L25.7,9.055c-.343-5.763-3.654-9.31-7.451-8.877L6.336.845C2.539,1.277-.239,6.325.1,12.088l.338,4.957C.785,22.808,4.158,27.1,7.955,26.664Z" transform="translate(0 0)"/>
            </g>
            <path id="Path_798" data-name="Path 798" class="cls-4" d="M5.3,34.048c-.574-.873-.574-.873-.085-2.115.271-.764,1.142-2.961,1.142-2.961a.766.766,0,0,0-.179-.771L2.139,25.163l3.837-3.305a.774.774,0,0,0-.069-.962L.231,17.161,2.922,12.3,81.8,1.216l3.566,25.376L7.13,36.477C6.5,35.7,5.871,34.921,5.3,34.048Z" transform="translate(0.036 2.67)"/>
            <g id="Group_758" data-name="Group 758" transform="translate(9.116 11.338)">
              <g id="Group_756" data-name="Group 756" transform="translate(0 0)">
                <path id="Path_799" data-name="Path 799" class="cls-5" d="M.148,10.954s1.172-.079,3.2-.241,4.953-.407,8.415-.74,7.562-.752,11.874-1.264q3.274-.384,6.708-.765c2.289-.254,4.578-.6,6.92-.858,2.288-.35,4.631-.6,6.919-.954s4.523-.7,6.706-.957C55.2,4.567,59.293,3.859,62.75,3.238S69.08,2.084,71.1,1.729c2.02-.45,3.191-.625,3.191-.625s-1.172.079-3.2.241-4.953.407-8.415.739-7.562.752-11.874,1.264q-3.274.384-6.708.765c-2.289.254-4.578.6-6.92.858-2.288.35-4.631.6-6.919.954s-4.523.7-6.706.957C19.19,7.49,15.147,8.2,11.69,8.82S5.36,9.974,3.338,10.329C1.264,10.682.148,10.954.148,10.954Z"/>
              </g>
              <g id="Group_757" data-name="Group 757" transform="translate(0.703 8.656)">
                <path id="Path_800" data-name="Path 800" class="cls-5" d="M.148,10.954s1.172-.079,3.2-.241,4.9-.407,8.415-.74c3.461-.333,7.508-.753,11.874-1.264,2.183-.256,4.419-.511,6.655-.766,2.289-.254,4.578-.6,6.867-.859,2.288-.35,4.631-.6,6.866-.955,2.288-.35,4.523-.7,6.652-.958,4.311-.608,8.354-1.317,11.811-1.938s6.33-1.155,8.351-1.509c2.02-.45,3.138-.626,3.138-.626s-1.172.079-3.2.241-4.9.407-8.415.74c-3.461.333-7.508.753-11.874,1.264-2.183.256-4.419.511-6.655.766-2.289.254-4.578.6-6.867.859-2.288.35-4.631.6-6.866.955-2.288.35-4.523.7-6.652.958-4.311.608-8.354,1.317-11.811,1.938s-6.33,1.155-8.351,1.509C1.317,10.683.148,10.954.148,10.954Z" transform="translate(0 0)"/>
              </g>
            </g>
          </g>
          <g id="Group_782" data-name="Group 782" transform="translate(0 0)">
            <g id="Group_773" data-name="Group 773" transform="translate(11.114 -0.125) rotate(19)">
              <g id="Group_767" data-name="Group 767" transform="translate(0 0)">
                <path id="Path_804" data-name="Path 804" class="cls-6" d="M25.971,12.914c.172-3.634.284-7.174.457-10.808C26.464.862,26.142.471,25.394.645,17.237,2.942,9.018,5.238.859,7.439c-.374.087-.621.273-.671.846A1.052,1.052,0,0,0,.776,9.448C8.653,14.516,16.593,19.586,24.47,24.655c.635.4,1,.024,1.043-1.029C25.626,20.182,25.8,16.548,25.971,12.914Z"/>
                <path id="Path_805" data-name="Path 805" class="cls-7" d="M9.239,10.175C6.382,8.384,3.522,6.5.665,4.707c-.38-.2-.574-.492-.589-1.163.05-.573.3-.759.671-.846C3.674,1.906,6.662,1.019,9.589.226,10.713,2.933,10.31,7.519,9.239,10.175Z" transform="translate(0.116 4.932)"/>
              </g>
              <g id="Group_769" data-name="Group 769" transform="translate(22.189 0.65)">
                <path id="Path_806" data-name="Path 806" class="cls-4" d="M82.9,18.421a.844.844,0,0,0,.079.768l5.5,5.2-4.34,2.1a.767.767,0,0,0-.042.956l4.229,4.408-2.245,3.394a.828.828,0,0,0-.046.765c.714,1.166,1.366,2.33,2.08,3.5L.523,24.331,1.567.037,86.2,14.669Z" transform="translate(2.581 0.076)"/>
                <g id="Group_768" data-name="Group 768" transform="translate(0 0)">
                  <path id="Path_807" data-name="Path 807" class="cls-4" d="M5.647,8.669C7.093,8.9,8.311,7.3,8.389,5.1h0C8.467,2.9,7.421.86,5.975.635L2.831.082C1.386-.144.167,1.455.089,3.656h0c-.078,2.2.968,4.235,2.414,4.461Z" transform="translate(1.065 0.025)"/>
                  <path id="Path_808" data-name="Path 808" class="cls-4" d="M5.659,9.243C7.1,9.469,8.321,7.774,8.4,5.382h0C8.469,2.991,7.421.86,5.975.634L2.831.081C1.386-.144.169,1.55.1,3.942h0c-.074,2.392.974,4.523,2.357,4.747Z" transform="translate(0.67 7.867)"/>
                  <path id="Path_809" data-name="Path 809" class="cls-4" d="M5.647,8.669C7.093,8.9,8.311,7.3,8.389,5.1h0C8.467,2.9,7.421.86,5.975.635L2.831.082C1.386-.144.167,1.455.089,3.656h0c-.078,2.2.968,4.235,2.414,4.461Z" transform="translate(0.35 16.284)"/>
                </g>
              </g>
              <g id="Group_772" data-name="Group 772" transform="translate(24.748 8.481)">
                <g id="Group_770" data-name="Group 770" transform="translate(0.564 0.013)">
                  <path id="Path_810" data-name="Path 810" class="cls-5" d="M0,0S1.322.318,3.589.851c2.329.534,5.6,1.281,9.5,2.043,3.965.859,8.557,1.733,13.462,2.615,2.453.441,5.031.884,7.611,1.424,2.578.444,5.219.889,7.861,1.43,2.641.445,5.281.89,7.859,1.334s5.154.792,7.606,1.232c4.966.787,9.554,1.47,13.512,2.042s7.224.936,9.549,1.278c2.323.246,3.641.373,3.641.373s-1.322-.318-3.589-.851c-2.329-.534-5.6-1.281-9.5-2.043-3.965-.859-8.557-1.734-13.462-2.615-2.453-.441-5.031-.884-7.611-1.424-2.578-.444-5.219-.889-7.861-1.43-2.641-.445-5.281-.89-7.859-1.334S29.156,4.134,26.7,3.693c-4.966-.787-9.554-1.47-13.512-2.042S5.967.715,3.641.373C1.318.127,0,0,0,0Z" transform="translate(0 0)"/>
                </g>
                <g id="Group_771" data-name="Group 771" transform="translate(0.185 8.621)">
                  <path id="Path_811" data-name="Path 811" class="cls-5" d="M0,0S1.322.318,3.714.853C6.044,1.387,9.443,2.137,13.47,3s8.745,1.738,13.84,2.72c2.515.442,5.158.983,7.8,1.428s5.346.988,8.049,1.434,5.407.893,8.047,1.339,5.281.89,7.794,1.237c5.091.79,9.8,1.476,13.826,2.049,4.084.575,7.412.941,9.8,1.284,2.386.248,3.706.47,3.706.47s-1.322-.318-3.714-.853c-2.329-.534-5.728-1.284-9.756-2.145s-8.745-1.738-13.84-2.72c-2.515-.442-5.158-.983-7.8-1.428s-5.346-.988-8.049-1.434-5.407-.893-8.047-1.339S29.845,4.15,27.332,3.8c-5.091-.79-9.8-1.476-13.826-2.049C9.422,1.179,6.094.814,3.706.47,1.381.128,0,0,0,0Z"/>
                </g>
              </g>
            </g>
          </g>
        </g>
      </g>
      <g id="Group_728-2" data-name="Group 728" transform="matrix(-0.017, 1, -1, -0.017, 996.18, 398.893)">
        <g id="Group_804" data-name="Group 804" transform="translate(0 0.287)">
          <path id="Path_823" data-name="Path 823" class="cls-8" d="M0,0S.173.287.519.766c.346.574.779,1.244,1.3,2.106S2.856,4.786,3.461,5.934C3.981,7.082,4.5,8.326,5.021,9.57A32.7,32.7,0,0,1,6.408,13.3c.434,1.244.781,2.392,1.041,3.348s.435,1.817.608,2.391c.087.574.174.956.174.956s-.173-.287-.519-.766-.779-1.244-1.3-2.106a30.284,30.284,0,0,1-1.558-3.062c-.52-1.148-1.126-2.392-1.646-3.636S2.257,7.939,1.824,6.791C1.39,5.548,1.043,4.4.782,3.443S.348,1.626.174,1.052A4.063,4.063,0,0,1,0,0Z"/>
        </g>
        <g id="Group_805" data-name="Group 805" transform="translate(18.989 3.956)">
          <path id="Path_824" data-name="Path 824" class="cls-8" d="M.949,0a6.9,6.9,0,0,1,.174.861c.087.574.261,1.243.349,2.2.088.861.262,1.913.35,3.06s.09,2.295.092,3.538,0,2.39-.08,3.537a26.67,26.67,0,0,1-.34,3.059c-.085.86-.256,1.625-.341,2.2a6.865,6.865,0,0,1-.171.86,6.9,6.9,0,0,1-.174-.861c-.087-.574-.261-1.243-.349-2.2-.088-.861-.262-1.913-.35-3.06S.019,10.9.016,9.656s0-2.39.08-3.537A26.67,26.67,0,0,1,.437,3.06C.521,2.2.693,1.435.778.862A6.865,6.865,0,0,1,.949,0Z" transform="translate(0 0)"/>
        </g>
        <g id="Group_806" data-name="Group 806" transform="translate(31.235 0.059)">
          <path id="Path_825" data-name="Path 825" class="cls-8" d="M7.42.014A3.667,3.667,0,0,1,7.249.97a24.214,24.214,0,0,1-.513,2.58C6.479,4.6,6.222,5.844,5.879,7.086s-.772,2.675-1.2,4.013-.945,2.675-1.46,3.917S2.273,17.4,1.757,18.359a21.675,21.675,0,0,1-1.2,2.292,3.56,3.56,0,0,1-.516.859,3.667,3.667,0,0,1,.171-.956,24.213,24.213,0,0,1,.513-2.58c.257-1.051.514-2.294.857-3.536s.772-2.675,1.2-3.917C3.294,8.993,3.81,7.655,4.325,6.414S5.27,4.025,5.786,3.07A21.676,21.676,0,0,1,6.99.778C7.248.3,7.42.014,7.42.014Z" transform="translate(0 0)"/>
        </g>
      </g>
      <g id="Group_729-2" data-name="Group 729" transform="matrix(-0.017, 1, -1, -0.017, 925.147, 398.527)">
        <g id="Group_804-2" data-name="Group 804" transform="translate(0.005 3.07)">
          <path id="Path_823-2" data-name="Path 823" class="cls-8" d="M.035,20.695s.172-.3.516-.791c.344-.593.774-1.286,1.291-2.176s1.032-1.978,1.634-3.166c.516-1.187,1.031-2.474,1.547-3.76A34.41,34.41,0,0,0,6.4,6.943c.429-1.286.772-2.474,1.03-3.464s.428-1.881.6-2.474C8.111.411,8.2.015,8.2.015s-.172.3-.516.791S6.906,2.092,6.39,2.983A31.535,31.535,0,0,0,4.842,6.148c-.516,1.187-1.117,2.473-1.633,3.76s-.945,2.573-1.374,3.76c-.429,1.286-.772,2.474-1.03,3.464s-.428,1.881-.6,2.474A4.335,4.335,0,0,0,.035,20.695Z" transform="translate(0 0)"/>
        </g>
        <g id="Group_805-2" data-name="Group 805" transform="translate(18.982 0.036)">
          <path id="Path_824-2" data-name="Path 824" class="cls-8" d="M.983,20a7.332,7.332,0,0,0,.171-.891c.085-.594.257-1.287.341-2.277.085-.891.255-1.98.34-3.168s.082-2.376.08-3.664,0-2.475-.093-3.664a28.638,28.638,0,0,0-.351-3.169C1.384,2.28,1.211,1.488,1.123.893A7.363,7.363,0,0,0,.949,0,7.332,7.332,0,0,0,.778.893C.693,1.487.521,2.179.437,3.169.352,4.06.181,5.149.1,6.337S.015,8.714.017,10s0,2.475.093,3.664A28.639,28.639,0,0,0,.46,16.834c.088.891.262,1.684.349,2.278A7.363,7.363,0,0,0,.983,20Z"/>
        </g>
        <g id="Group_806-2" data-name="Group 806" transform="translate(31.238 1.841)">
          <path id="Path_825-2" data-name="Path 825" class="cls-8" d="M7.458,22.293a3.935,3.935,0,0,0-.174-.991,25.978,25.978,0,0,0-.522-2.674c-.261-1.09-.522-2.377-.869-3.665S5.111,12.189,4.678,10.8,3.724,8.028,3.2,6.739,2.251,4.262,1.731,3.271A22.936,22.936,0,0,0,.519.892,3.744,3.744,0,0,0,0,0,3.935,3.935,0,0,0,.174.991,25.977,25.977,0,0,0,.7,3.665c.261,1.09.522,2.377.869,3.665S2.347,10.1,2.78,11.392c.52,1.585,1.04,2.973,1.56,4.261s.953,2.477,1.473,3.468A22.937,22.937,0,0,0,7.026,21.5C7.285,22,7.458,22.293,7.458,22.293Z"/>
        </g>
      </g>
      <g id="Ellipse_138" data-name="Ellipse 138" class="cls-9" transform="translate(953.215 329.036)">
        <ellipse class="cls-14" cx="2.868" cy="2.588" rx="2.868" ry="2.588"/>
        <ellipse class="cls-15" cx="2.868" cy="2.588" rx="2.768" ry="2.488"/>
      </g>
      <g id="Ellipse_139" data-name="Ellipse 139" class="cls-9" transform="translate(941.742 329.036)">
        <ellipse class="cls-14" cx="2.868" cy="2.588" rx="2.868" ry="2.588"/>
        <ellipse class="cls-15" cx="2.868" cy="2.588" rx="2.768" ry="2.488"/>
      </g>
      <ellipse id="Ellipse_140" data-name="Ellipse 140" class="cls-10" cx="0.478" cy="0.431" rx="0.478" ry="0.431" transform="translate(944.61 331.624)"/>
      <ellipse id="Ellipse_141" data-name="Ellipse 141" class="cls-10" cx="0.956" cy="0.863" rx="0.956" ry="0.863" transform="translate(955.127 330.761)"/>
      <line id="Line_42" data-name="Line 42" class="cls-11" y1="1.726" x2="4.78" transform="translate(940.308 326.879)"/>
      <line id="Line_43" data-name="Line 43" class="cls-11" x2="4.78" y2="1.726" transform="translate(954.649 326.879)"/>
      <g id="Group_730-2" data-name="Group 730" transform="translate(945.242 336.733)">
        <g id="Group_810" data-name="Group 810" transform="translate(0)">
          <g id="Group_706" data-name="Group 706" transform="translate(0)">
            <g id="Group_811" data-name="Group 811">
              <path id="Path_754" data-name="Path 754" class="cls-12" d="M141.408,289.759c-2.725,0-4.942,1.431-4.942,3.191a.966.966,0,0,0,.219.7.833.833,0,0,0,.634.227,1.6,1.6,0,0,0,1.3-.4c.359-.421-.394-.884,2.378-.755s2.573.667,3.334.874a4.668,4.668,0,0,0,1.166.282c.566,0,.853-.312.853-.925C146.351,291.19,144.133,289.759,141.408,289.759Z" transform="translate(-136.466 -289.759)"/>
            </g>
          </g>
        </g>
        <path id="Path_830" data-name="Path 830" class="cls-13" d="M1.879,1.067C.119,2.222-.048,3.358-.048,3.358S-.839-.4,2.908-.091,3.64-.087,1.879,1.067Z" transform="matrix(0.839, 0.545, -0.545, 0.839, 3.808, 1.134)"/>
      </g>
    </g>
  </g>
</svg>
