<svg xmlns="http://www.w3.org/2000/svg" xmlns:xlink="http://www.w3.org/1999/xlink" viewBox="0 0 903.626 795.549">
  <defs>
    <style>
      .cls-1 {
        opacity: 0.14;
        fill: url(#linear-gradient);
      }

      .cls-2 {
        fill: #38003c;
      }

      .cls-3 {
        fill: #45014a;
      }

      .cls-4 {
        fill: #e2eaf5;
      }

      .cls-5 {
        fill: #c2d4ea;
      }

      .cls-6 {
        fill: #67e5fc;
      }

      .cls-7 {
        fill: #021735;
      }

      .cls-8 {
        fill: #49d5ef;
      }

      .cls-9 {
        fill: #cbdcf8;
        stroke: #67e5fc;
      }

      .cls-10 {
        fill: #fff;
      }

      .cls-11 {
        clip-path: url(#clip-path);
      }

      .cls-12 {
        fill: #492817;
      }

      .cls-13 {
        fill: #703313;
      }

      .cls-14 {
        fill: #ffd22e;
      }

      .cls-15 {
        fill: #f4c42a;
      }

      .cls-16 {
        fill: #460e47;
      }

      .cls-16, .cls-17 {
        opacity: 0.49;
      }

      .cls-17, .cls-21 {
        fill: #e90052;
      }

      .cls-18 {
        fill: #012561;
      }

      .cls-19 {
        fill: #8db0da;
      }

      .cls-20 {
        fill: #092140;
      }

      .cls-22 {
        fill: #52517b;
      }

      .cls-23 {
        fill: #45446c;
      }

      .cls-24 {
        fill: #2c2b57;
      }

      .cls-25 {
        fill: #f2f2f2;
      }

      .cls-26 {
        fill: #031f4d;
      }

      .cls-27 {
        fill: #ffaa81;
      }

      .cls-28 {
        fill: #211109;
      }

      .cls-29 {
        fill: #e0e3ea;
      }

      .cls-30 {
        fill: #292951;
      }

      .cls-31 {
        fill: #76a2ce;
      }
    </style>
    <linearGradient id="linear-gradient" y1="0.5" x2="1" y2="0.5" gradientUnits="objectBoundingBox">
      <stop offset="0" stop-color="#67e5fc"/>
      <stop offset="1" stop-color="#99cbff"/>
    </linearGradient>
    <clipPath id="clip-path">
      <path id="Path_135" data-name="Path 135" d="M949.839,322.582c-.849,23.468-20.919,42.581-44.811,42.581s-42.582-19.008-41.626-42.581C864.145,299.114,884.215,280,908.107,280S950.689,299.114,949.839,322.582Z" transform="translate(-863.367 -280)"/>
    </clipPath>
  </defs>
  <g id="Group_714" data-name="Group 714" transform="translate(-80.196 -172.427)">
    <path id="Path_435" data-name="Path 435" class="cls-1" d="M233.57,129.178C440.206,77.222,727.285-108.628,818.7,88.877c48.337,91.813,52.172,243.055,31.214,343.142-22.831,105.336-70.633,159.338-171.944,176.508C476.682,638.241,107.912,658.615,28.718,452.392c-43.789-99.375-33-191.544,2.319-237.183C68.315,164.854,130.119,161.028,233.57,129.178Z" transform="matrix(0.998, -0.07, 0.07, 0.998, 80.185, 232.558)"/>
    <g id="Group_468" data-name="Group 468" transform="translate(114.429 295.586)">
      <g id="Group_172" data-name="Group 172" transform="translate(0)">
        <path id="Path_31" data-name="Path 31" class="cls-2" d="M713.8,714.585V318.5a6.888,6.888,0,0,1,6.9-6.9h585.947a6.889,6.889,0,0,1,6.9,6.9V714.691a6.889,6.889,0,0,1-6.9,6.9H720.808A7,7,0,0,1,713.8,714.585Z" transform="translate(-593.021 -171.432)"/>
        <path id="Path_32" data-name="Path 32" class="cls-3" d="M1307.817,673.815H719.64a5.892,5.892,0,0,1-5.84-5.84V317.34a5.892,5.892,0,0,1,5.84-5.84h588.177a5.892,5.892,0,0,1,5.84,5.84V667.974A5.823,5.823,0,0,1,1307.817,673.815Z" transform="translate(-593.021 -171.438)"/>
        <path id="Path_33" data-name="Path 33" class="cls-4" d="M1275.8,644.171H747.623A14.185,14.185,0,0,1,733.5,630.048l.743-282.461a14.027,14.027,0,0,1,14.123-14.017h528.181c7.752,0,14.657,1.333,14.657,9.084l-1.277,287.5A14.163,14.163,0,0,1,1275.8,644.171Z" transform="translate(-591.801 -169.615)"/>
        <path id="Path_34" data-name="Path 34" class="cls-5" d="M1219.987,443.979A736.389,736.389,0,0,1,1050.83,619.189c-11.362,8.389-22.937,16.459-34.83,24.1h242.215a14.163,14.163,0,0,0,14.123-14.017l.743-275.877A714.125,714.125,0,0,1,1219.987,443.979Z" transform="translate(-574.319 -168.845)"/>
        <path id="Path_35" data-name="Path 35" class="cls-2" d="M600.1,809.458c0,4.354,3.716,4.035,3.716,4.035h834.215s3.717.319,3.717-4.035V801.6H600.1" transform="translate(-600.056 -141.109)"/>
        <path id="Path_36" data-name="Path 36" class="cls-4" d="M600.74,806.855,720.732,698.331a2.02,2.02,0,0,1,1.381-.531h597.415a2.238,2.238,0,0,1,1.38.531L1440.9,806.855a2,2,0,0,1-1.38,3.5H602.12a2,2,0,0,1-1.381-3.5" transform="translate(-600.059 -147.532)"/>
        <path id="Path_37" data-name="Path 37" class="cls-5" d="M1122.244,794.12H884.7c-3.08,0-4.354-2.442-2.761-5.309l11.787-21.769a8.835,8.835,0,0,1,7.115-4.141H1106.1a8.833,8.833,0,0,1,7.115,4.141L1125,788.81C1126.491,791.783,1125.323,794.12,1122.244,794.12Z" transform="translate(-582.658 -143.504)"/>
        <g id="Group_100" data-name="Group 100" transform="translate(94.034 556.214)">
          <g id="Group_99" data-name="Group 99">
            <g id="Group_21" data-name="Group 21" transform="translate(55.575)">
              <path id="Path_38" data-name="Path 38" class="cls-5" d="M768.931,708.285H745.569c-3.292,0-5.2-.637-4.46-1.38l2.336-2.23c.743-.743,4.035-1.274,7.221-1.274H773.6c3.186,0,5.2.637,4.566,1.274l-2.017,2.23C775.408,707.648,772.222,708.285,768.931,708.285Z" transform="translate(-740.95 -703.4)"/>
            </g>
            <g id="Group_22" data-name="Group 22" transform="translate(94.802)">
              <path id="Path_39" data-name="Path 39" class="cls-5" d="M806.041,708.285H782.679c-3.292,0-5.309-.637-4.672-1.38l2.018-2.23c.637-.743,3.823-1.274,7.008-1.274H809.97c3.186,0,5.31.637,4.778,1.274l-1.7,2.23C812.412,707.648,809.332,708.285,806.041,708.285Z" transform="translate(-777.89 -703.4)"/>
            </g>
            <g id="Group_23" data-name="Group 23" transform="translate(134.021)">
              <path id="Path_40" data-name="Path 40" class="cls-5" d="M843.151,708.285H819.789c-3.292,0-5.416-.637-4.885-1.38l1.7-2.23c.531-.743,3.611-1.274,6.8-1.274h22.937c3.186,0,5.416.637,4.991,1.274l-1.38,2.23C849.416,707.648,846.443,708.285,843.151,708.285Z" transform="translate(-814.824 -703.4)"/>
            </g>
            <g id="Group_24" data-name="Group 24" transform="translate(173.234)">
              <path id="Path_41" data-name="Path 41" class="cls-5" d="M880.261,708.285H856.9c-3.292,0-5.522-.637-5.1-1.38l1.381-2.23c.425-.743,3.4-1.274,6.584-1.274H882.7c3.185,0,5.522.637,5.2,1.274l-1.062,2.23C886.42,707.648,883.553,708.285,880.261,708.285Z" transform="translate(-851.751 -703.4)"/>
            </g>
            <g id="Group_25" data-name="Group 25" transform="translate(212.44)">
              <path id="Path_42" data-name="Path 42" class="cls-5" d="M917.373,708.285H894.011c-3.292,0-5.628-.637-5.309-1.38l.956-2.23c.319-.743,3.186-1.274,6.371-1.274h22.937c3.186,0,5.628.637,5.416,1.274l-.743,2.23C923.426,707.648,920.665,708.285,917.373,708.285Z" transform="translate(-888.673 -703.4)"/>
            </g>
            <g id="Group_26" data-name="Group 26" transform="translate(251.64)">
              <path id="Path_43" data-name="Path 43" class="cls-5" d="M954.484,708.285H931.123c-3.292,0-5.734-.637-5.522-1.38l.637-2.23c.212-.743,2.973-1.274,6.159-1.274h22.937c3.186,0,5.734.637,5.522,1.274l-.318,2.23C960.537,707.648,957.776,708.285,954.484,708.285Z" transform="translate(-925.588 -703.4)"/>
            </g>
            <g id="Group_27" data-name="Group 27" transform="translate(290.833)">
              <path id="Path_44" data-name="Path 44" class="cls-5" d="M991.6,708.285H968.234c-3.292,0-5.84-.637-5.734-1.38l.318-2.23c.106-.743,2.761-1.274,5.947-1.274H991.7c3.186,0,5.734.637,5.734,1.274v2.23C997.542,707.648,994.888,708.285,991.6,708.285Z" transform="translate(-962.497 -703.4)"/>
            </g>
            <g id="Group_28" data-name="Group 28" transform="translate(330.02)">
              <path id="Path_45" data-name="Path 45" class="cls-5" d="M1028.708,708.285h-23.362c-3.292,0-5.947-.637-5.947-1.38v-2.23c0-.743,2.549-1.274,5.734-1.274h22.937c3.186,0,5.84.637,5.946,1.274l.319,2.23C1034.549,707.648,1032,708.285,1028.708,708.285Z" transform="translate(-999.4 -703.4)"/>
            </g>
            <g id="Group_29" data-name="Group 29" transform="translate(368.881)">
              <path id="Path_46" data-name="Path 46" class="cls-5" d="M1065.839,708.285h-23.362c-3.291,0-6.053-.637-6.159-1.38l-.318-2.23c-.107-.743,2.336-1.274,5.522-1.274h22.937c3.186,0,5.947.637,6.159,1.274l.637,2.23C1071.573,707.648,1069.131,708.285,1065.839,708.285Z" transform="translate(-1035.997 -703.4)"/>
            </g>
            <g id="Group_30" data-name="Group 30" transform="translate(407.63)">
              <path id="Path_47" data-name="Path 47" class="cls-5" d="M1102.977,708.285h-23.361c-3.292,0-6.052-.637-6.371-1.38l-.744-2.23c-.212-.743,2.124-1.274,5.309-1.274h22.937c3.186,0,6.053.637,6.371,1.274l1.062,2.23C1108.6,707.648,1106.269,708.285,1102.977,708.285Z" transform="translate(-1072.487 -703.4)"/>
            </g>
            <g id="Group_31" data-name="Group 31" transform="translate(446.478)">
              <path id="Path_48" data-name="Path 48" class="cls-5" d="M1140.109,708.285h-23.361c-3.292,0-6.159-.637-6.584-1.38l-1.062-2.23c-.319-.743,1.911-1.274,5.2-1.274h22.936c3.186,0,6.159.637,6.584,1.274l1.38,2.23C1145.631,707.648,1143.4,708.285,1140.109,708.285Z" transform="translate(-1109.072 -703.4)"/>
            </g>
            <g id="Group_32" data-name="Group 32" transform="translate(485.321)">
              <path id="Path_49" data-name="Path 49" class="cls-5" d="M1177.241,708.285H1153.88c-3.292,0-6.265-.637-6.8-1.38l-1.381-2.23c-.424-.743,1.805-1.274,4.991-1.274h22.937c3.186,0,6.265.637,6.8,1.274l1.7,2.23C1182.657,707.648,1180.533,708.285,1177.241,708.285Z" transform="translate(-1145.651 -703.4)"/>
            </g>
            <g id="Group_33" data-name="Group 33" transform="translate(524.157)">
              <path id="Path_50" data-name="Path 50" class="cls-5" d="M1214.374,708.285h-23.361c-3.292,0-6.371-.637-7.008-1.38l-1.7-2.23c-.531-.743,1.593-1.274,4.779-1.274h22.937c3.186,0,6.371.637,7.008,1.274l2.018,2.23C1219.683,707.648,1217.665,708.285,1214.374,708.285Z" transform="translate(-1182.224 -703.4)"/>
            </g>
            <g id="Group_34" data-name="Group 34" transform="translate(562.848)">
              <path id="Path_51" data-name="Path 51" class="cls-5" d="M1251.515,708.285h-23.362c-3.292,0-6.477-.637-7.221-1.38l-2.124-2.23c-.743-.743,1.38-1.274,4.566-1.274h22.937c3.186,0,6.371.637,7.221,1.274l2.336,2.23C1256.718,707.648,1254.806,708.285,1251.515,708.285Z" transform="translate(-1218.66 -703.4)"/>
            </g>
            <g id="Group_35" data-name="Group 35" transform="translate(46.905 5.734)">
              <path id="Path_52" data-name="Path 52" class="cls-5" d="M764.02,716.339H733.863c-.743,0-1.168-.106-1.062-.319l7.539-6.9a3.17,3.17,0,0,1,1.7-.318h29.2c.743,0,1.168.106,1.062.318l-6.69,6.9A3.588,3.588,0,0,1,764.02,716.339Z" transform="translate(-732.785 -708.8)"/>
            </g>
            <g id="Group_36" data-name="Group 36" transform="translate(98.516 14.548)">
              <path id="Path_53" data-name="Path 53" class="cls-5" d="M813.894,725.17H782.569c-.743,0-1.274-.106-1.168-.319l6.371-7.433c.106-.212.849-.319,1.7-.319h30.37c.743,0,1.274.106,1.168.319l-5.416,7.433A4.73,4.73,0,0,1,813.894,725.17Z" transform="translate(-781.387 -717.1)"/>
            </g>
            <g id="Group_37" data-name="Group 37" transform="translate(99.438 23.999)">
              <path id="Path_54" data-name="Path 54" class="cls-5" d="M815.964,734.707H783.471c-.85,0-1.38-.212-1.168-.425l6.584-7.964c.106-.213.956-.319,1.7-.319h31.432c.743,0,1.274.106,1.168.319l-5.522,7.964A2.746,2.746,0,0,1,815.964,734.707Z" transform="translate(-782.256 -726)"/>
            </g>
            <g id="Group_38" data-name="Group 38" transform="translate(113.382 34.086)">
              <path id="Path_55" data-name="Path 55" class="cls-5" d="M830.443,744.951H796.675c-.85,0-1.38-.212-1.274-.425l6.371-8.6a2.745,2.745,0,0,1,1.7-.425h32.6c.85,0,1.38.212,1.274.425l-5.31,8.6C832.036,744.738,831.292,744.951,830.443,744.951Z" transform="translate(-795.387 -735.5)"/>
            </g>
            <g id="Group_39" data-name="Group 39" transform="translate(0 45.13)">
              <path id="Path_56" data-name="Path 56" class="cls-5" d="M724.916,757.368H689.874c-.956,0-1.487-.213-1.168-.425l11.468-10.619a4.239,4.239,0,0,1,2.124-.425h33.768c.849,0,1.487.213,1.168.425l-10.194,10.619A4.243,4.243,0,0,1,724.916,757.368Z" transform="translate(-688.613 -745.9)"/>
            </g>
            <g id="Group_40" data-name="Group 40" transform="translate(46.769 45.13)">
              <path id="Path_57" data-name="Path 57" class="cls-5" d="M769.019,757.368H733.977c-.956,0-1.487-.213-1.274-.425l9.875-10.619a4.063,4.063,0,0,1,2.018-.425h33.768c.85,0,1.487.213,1.274.425l-8.5,10.619A4.242,4.242,0,0,1,769.019,757.368Z" transform="translate(-732.656 -745.9)"/>
            </g>
            <g id="Group_41" data-name="Group 41" transform="translate(92.218 45.13)">
              <path id="Path_58" data-name="Path 58" class="cls-5" d="M811.819,757.368H776.777c-.956,0-1.487-.213-1.274-.425l8.283-10.619a3.59,3.59,0,0,1,1.911-.425h33.768c.85,0,1.487.213,1.38.425l-6.9,10.619A4.57,4.57,0,0,1,811.819,757.368Z" transform="translate(-775.456 -745.9)"/>
            </g>
            <g id="Group_42" data-name="Group 42" transform="translate(137.889 45.024)">
              <path id="Path_59" data-name="Path 59" class="cls-5" d="M866.393,757.375h-46.3c-1.062,0-1.805-.212-1.593-.531l6.584-10.513a3.205,3.205,0,0,1,2.124-.531H871.7c1.062,0,1.805.212,1.593.531l-4.885,10.513C868.411,757.162,867.455,757.375,866.393,757.375Z" transform="translate(-818.466 -745.8)"/>
            </g>
            <g id="Group_43" data-name="Group 43" transform="translate(418.677 45.024)">
              <path id="Path_60" data-name="Path 60" class="cls-5" d="M1134.614,757.375h-46.3c-1.062,0-2.018-.212-2.124-.531l-3.292-10.513c-.107-.319.637-.531,1.7-.531h44.493a3.006,3.006,0,0,1,2.123.531l4.991,10.513C1136.526,757.162,1135.676,757.375,1134.614,757.375Z" transform="translate(-1082.891 -745.8)"/>
            </g>
            <g id="Group_44" data-name="Group 44" transform="translate(475.38 45.13)">
              <path id="Path_61" data-name="Path 61" class="cls-5" d="M1178.245,757.368h-34.617a3.058,3.058,0,0,1-1.911-.425l-5.416-10.619c-.106-.212.531-.425,1.38-.425h33.237a3.59,3.59,0,0,1,1.911.425l6.689,10.619C1179.731,757.156,1179.094,757.368,1178.245,757.368Z" transform="translate(-1136.289 -745.9)"/>
            </g>
            <g id="Group_45" data-name="Group 45" transform="translate(195.566 45.024)">
              <path id="Path_62" data-name="Path 62" class="cls-5" d="M1089.85,757.375H876.412c-2.23,0-3.823-.531-3.61-1.168l4.141-9.344c.212-.531,2.23-1.062,4.354-1.062h205.368c2.124,0,4.035.425,4.247,1.062l2.761,9.344C1093.779,756.844,1092.08,757.375,1089.85,757.375Z" transform="translate(-872.782 -745.8)"/>
            </g>
            <g id="Group_46" data-name="Group 46" transform="translate(157.238 34.086)">
              <path id="Path_63" data-name="Path 63" class="cls-5" d="M871.743,744.951H837.975c-.849,0-1.381-.212-1.274-.425l5.1-8.6a2.514,2.514,0,0,1,1.7-.425h32.6c.849,0,1.38.212,1.274.425l-4.035,8.6C873.336,744.738,872.592,744.951,871.743,744.951Z" transform="translate(-836.687 -735.5)"/>
            </g>
            <g id="Group_47" data-name="Group 47" transform="translate(200.883 34.086)">
              <path id="Path_64" data-name="Path 64" class="cls-5" d="M912.949,744.951H879.181c-.849,0-1.487-.212-1.38-.425l3.823-8.6a2.372,2.372,0,0,1,1.593-.425h32.6c.849,0,1.38.212,1.38.425l-2.655,8.6C914.542,744.738,913.8,744.951,912.949,744.951Z" transform="translate(-877.789 -735.5)"/>
            </g>
            <g id="Group_48" data-name="Group 48" transform="translate(244.739 34.086)">
              <path id="Path_65" data-name="Path 65" class="cls-5" d="M954.249,744.951H920.481c-.849,0-1.487-.212-1.38-.425l2.443-8.6c.106-.212.743-.425,1.593-.425h32.6c.85,0,1.487.212,1.38.425l-1.38,8.6C955.736,744.738,955.1,744.951,954.249,744.951Z" transform="translate(-919.089 -735.5)"/>
            </g>
            <g id="Group_49" data-name="Group 49" transform="translate(288.394 34.086)">
              <path id="Path_66" data-name="Path 66" class="cls-5" d="M995.454,744.951H961.686c-.849,0-1.486-.212-1.486-.425l1.168-8.6c0-.212.743-.425,1.487-.425h32.6c.85,0,1.487.212,1.487.425l-.106,8.6C997.047,744.738,996.3,744.951,995.454,744.951Z" transform="translate(-960.2 -735.5)"/>
            </g>
            <g id="Group_50" data-name="Group 50" transform="translate(332.143 34.086)">
              <path id="Path_67" data-name="Path 67" class="cls-5" d="M1036.761,744.951h-33.768c-.849,0-1.487-.212-1.487-.425l-.106-8.6c0-.212.637-.425,1.487-.425h32.6c.85,0,1.487.212,1.487.425l1.274,8.6C1038.247,744.738,1037.61,744.951,1036.761,744.951Z" transform="translate(-1001.4 -735.5)"/>
            </g>
            <g id="Group_51" data-name="Group 51" transform="translate(374.512 34.086)">
              <path id="Path_68" data-name="Path 68" class="cls-5" d="M1078.147,744.951H1044.38c-.849,0-1.593-.212-1.593-.425l-1.487-8.6c0-.212.637-.425,1.38-.425h32.6c.849,0,1.487.212,1.593.425l2.549,8.6C1079.528,744.738,1078.891,744.951,1078.147,744.951Z" transform="translate(-1041.3 -735.5)"/>
            </g>
            <g id="Group_52" data-name="Group 52" transform="translate(416.87 34.086)">
              <path id="Path_69" data-name="Path 69" class="cls-5" d="M1119.428,744.951h-33.768a2.515,2.515,0,0,1-1.7-.425l-2.761-8.6c-.106-.212.531-.425,1.38-.425h32.6c.85,0,1.593.212,1.593.425l3.823,8.6C1120.915,744.738,1120.278,744.951,1119.428,744.951Z" transform="translate(-1081.189 -735.5)"/>
            </g>
            <g id="Group_53" data-name="Group 53" transform="translate(459.451 34.086)">
              <path id="Path_70" data-name="Path 70" class="cls-5" d="M1160.8,744.951h-33.768a2.513,2.513,0,0,1-1.7-.425l-4.035-8.6c-.106-.212.531-.425,1.274-.425h32.6a2.515,2.515,0,0,1,1.7.425l5.2,8.6C1162.183,744.738,1161.653,744.951,1160.8,744.951Z" transform="translate(-1121.289 -735.5)"/>
            </g>
            <g id="Group_54" data-name="Group 54" transform="translate(522.643 50.652)">
              <path id="Path_71" data-name="Path 71" class="cls-5" d="M1216.9,757.259h-26.866c-3.4,0-6.69-.743-7.327-1.7l-1.805-2.761c-.637-.956,1.593-1.7,4.991-1.7h26.335c3.292,0,6.584.743,7.327,1.7l2.124,2.761C1222.532,756.516,1220.3,757.259,1216.9,757.259Z" transform="translate(-1180.798 -751.1)"/>
            </g>
            <g id="Group_55" data-name="Group 55" transform="translate(567.945 50.652)">
              <path id="Path_72" data-name="Path 72" class="cls-5" d="M1260.244,757.259h-26.866c-3.4,0-6.8-.743-7.539-1.7l-2.23-2.761c-.743-.956,1.38-1.7,4.672-1.7h26.335c3.292,0,6.69.743,7.646,1.7l2.548,2.761C1265.659,756.516,1263.642,757.259,1260.244,757.259Z" transform="translate(-1223.46 -751.1)"/>
            </g>
            <g id="Group_56" data-name="Group 56" transform="translate(562.742 44.28)">
              <path id="Path_73" data-name="Path 73" class="cls-5" d="M1254.388,750.834h-26.229c-3.292,0-6.583-.743-7.327-1.593l-2.124-2.549c-.743-.849,1.381-1.593,4.672-1.593h25.7c3.292,0,6.583.743,7.433,1.593l2.442,2.549C1259.7,750.091,1257.68,750.834,1254.388,750.834Z" transform="translate(-1218.56 -745.1)"/>
            </g>
            <g id="Group_57" data-name="Group 57" transform="translate(613.348 50.652)">
              <path id="Path_74" data-name="Path 74" class="cls-5" d="M1303.577,757.259h-26.866c-3.4,0-6.9-.743-7.752-1.7l-2.548-2.761c-.849-.956,1.168-1.7,4.46-1.7h26.335c3.292,0,6.9.743,7.858,1.7l2.974,2.761C1308.886,756.516,1306.975,757.259,1303.577,757.259Z" transform="translate(-1266.217 -751.1)"/>
            </g>
            <g id="Group_58" data-name="Group 58" transform="translate(141.913 23.999)">
              <path id="Path_75" data-name="Path 75" class="cls-5" d="M855.964,734.707H823.471c-.85,0-1.381-.212-1.168-.425l5.309-7.964c.106-.213.85-.319,1.7-.319h31.432c.743,0,1.38.106,1.274.319l-4.354,7.964A2.515,2.515,0,0,1,855.964,734.707Z" transform="translate(-822.256 -726)"/>
            </g>
            <g id="Group_59" data-name="Group 59" transform="translate(184.422 23.999)">
              <path id="Path_76" data-name="Path 76" class="cls-5" d="M896.069,734.707H863.575c-.849,0-1.38-.212-1.274-.425l4.141-7.964c.106-.213.85-.319,1.593-.319h31.432c.743,0,1.38.106,1.274.319l-3.079,7.964C897.661,734.495,896.918,734.707,896.069,734.707Z" transform="translate(-862.287 -726)"/>
            </g>
            <g id="Group_60" data-name="Group 60" transform="translate(226.911 23.999)">
              <path id="Path_77" data-name="Path 77" class="cls-5" d="M936.174,734.707H903.68c-.85,0-1.381-.212-1.381-.425l2.867-7.964c.106-.213.743-.319,1.593-.319h31.432c.743,0,1.381.106,1.381.319l-1.911,7.964C937.661,734.495,937.024,734.707,936.174,734.707Z" transform="translate(-902.3 -726)"/>
            </g>
            <g id="Group_61" data-name="Group 61" transform="translate(269.174 23.999)">
              <path id="Path_78" data-name="Path 78" class="cls-5" d="M975.974,734.707H943.481c-.85,0-1.381-.212-1.381-.425l1.7-7.964c0-.213.743-.319,1.487-.319h31.432c.743,0,1.38.106,1.38.319l-.637,7.964C977.461,734.495,976.823,734.707,975.974,734.707Z" transform="translate(-942.1 -726)"/>
            </g>
            <g id="Group_62" data-name="Group 62" transform="translate(311.649 23.999)">
              <path id="Path_79" data-name="Path 79" class="cls-5" d="M1016.08,734.707H983.587c-.85,0-1.487-.212-1.487-.425l.425-7.964c0-.213.637-.319,1.487-.319h31.432c.743,0,1.38.106,1.487.319l.531,7.964C1017.567,734.495,1016.93,734.707,1016.08,734.707Z" transform="translate(-982.1 -726)"/>
            </g>
            <g id="Group_63" data-name="Group 63" transform="translate(351.682 23.999)">
              <path id="Path_80" data-name="Path 80" class="cls-5" d="M1054.524,734.707H1022.03c-.85,0-1.487-.212-1.487-.425l-.743-7.964c0-.213.637-.319,1.38-.319h31.432c.743,0,1.487.106,1.487.319l1.7,7.964C1055.9,734.495,1055.267,734.707,1054.524,734.707Z" transform="translate(-1019.8 -726)"/>
            </g>
            <g id="Group_64" data-name="Group 64" transform="translate(392.564 23.999)">
              <path id="Path_81" data-name="Path 81" class="cls-5" d="M1094.3,734.707H1061.8c-.85,0-1.487-.212-1.593-.425l-1.911-7.964c0-.213.531-.319,1.38-.319h31.432c.743,0,1.487.106,1.593.319l2.974,7.964C1095.678,734.495,1095.147,734.707,1094.3,734.707Z" transform="translate(-1058.3 -726)"/>
            </g>
            <g id="Group_65" data-name="Group 65" transform="translate(433.435 23.999)">
              <path id="Path_82" data-name="Path 82" class="cls-5" d="M1134.073,734.707h-32.494c-.85,0-1.487-.212-1.593-.425l-3.186-7.964c-.106-.213.531-.319,1.274-.319h31.432c.743,0,1.487.106,1.593.319l4.141,7.964C1135.453,734.495,1134.922,734.707,1134.073,734.707Z" transform="translate(-1096.789 -726)"/>
            </g>
            <g id="Group_66" data-name="Group 66" transform="translate(474.104 23.999)">
              <path id="Path_83" data-name="Path 83" class="cls-5" d="M1173.647,734.707h-32.494a2.513,2.513,0,0,1-1.7-.425l-4.354-7.964c-.106-.213.425-.319,1.274-.319h31.431a3.167,3.167,0,0,1,1.7.319l5.416,7.964C1174.922,734.495,1174.391,734.707,1173.647,734.707Z" transform="translate(-1135.087 -726)"/>
            </g>
            <g id="Group_67" data-name="Group 67" transform="translate(514.774 23.999)">
              <path id="Path_84" data-name="Path 84" class="cls-5" d="M1213.115,734.707h-32.494a2.514,2.514,0,0,1-1.7-.425l-5.522-7.964c-.106-.213.425-.319,1.168-.319H1206c.743,0,1.593.106,1.7.319l6.583,7.964C1214.5,734.495,1213.965,734.707,1213.115,734.707Z" transform="translate(-1173.387 -726)"/>
            </g>
            <g id="Group_68" data-name="Group 68" transform="translate(501.288 34.086)">
              <path id="Path_85" data-name="Path 85" class="cls-5" d="M1201.69,744.951h-33.768a3.15,3.15,0,0,1-1.805-.425l-5.416-8.6c-.106-.212.425-.425,1.274-.425h32.6a3.152,3.152,0,0,1,1.805.425l6.478,8.6C1203.07,744.738,1202.539,744.951,1201.69,744.951Z" transform="translate(-1160.687 -735.5)"/>
            </g>
            <g id="Group_69" data-name="Group 69" transform="translate(557.116 23.892)">
              <path id="Path_86" data-name="Path 86" class="cls-5" d="M1284.979,734.714h-62.651a4.116,4.116,0,0,1-2.443-.531l-6.583-7.751c-.213-.319.425-.531,1.487-.531h60.74a4.117,4.117,0,0,1,2.443.531l8.389,7.751C1286.678,734.4,1286.041,734.714,1284.979,734.714Z" transform="translate(-1213.261 -725.9)"/>
            </g>
            <g id="Group_70" data-name="Group 70" transform="translate(543.635 34.086)">
              <path id="Path_87" data-name="Path 87" class="cls-5" d="M1297.128,744.951h-87.393a4.834,4.834,0,0,1-2.867-.637l-6.265-8.177c-.213-.319.531-.637,1.911-.637h84.526a5.854,5.854,0,0,1,2.974.637l8.92,8.177C1299.251,744.632,1298.508,744.951,1297.128,744.951Z" transform="translate(-1200.567 -735.5)"/>
            </g>
            <g id="Group_71" data-name="Group 71" transform="translate(25.921 23.892)">
              <path id="Path_88" data-name="Path 88" class="cls-5" d="M777.986,734.714H714.591c-1.168,0-1.805-.212-1.487-.531l8.389-7.751a4.36,4.36,0,0,1,2.442-.531h61.377c1.062,0,1.805.213,1.593.531l-6.478,7.751A4.8,4.8,0,0,1,777.986,734.714Z" transform="translate(-713.023 -725.9)"/>
            </g>
            <g id="Group_72" data-name="Group 72" transform="translate(13.565 34.086)">
              <path id="Path_89" data-name="Path 89" class="cls-5" d="M791.873,744.951H703.206c-1.38,0-2.124-.318-1.7-.637l8.92-8.177a5.853,5.853,0,0,1,2.973-.637h85.694c1.274,0,2.124.318,1.911.637l-6.265,8.177A4.836,4.836,0,0,1,791.873,744.951Z" transform="translate(-701.388 -735.5)"/>
            </g>
            <g id="Group_73" data-name="Group 73" transform="translate(139.292 14.548)">
              <path id="Path_90" data-name="Path 90" class="cls-5" d="M852.294,725.17H820.969c-.743,0-1.274-.106-1.168-.319l5.2-7.433c.106-.212.85-.319,1.593-.319h30.37c.743,0,1.274.106,1.168.319l-4.248,7.433A3.2,3.2,0,0,1,852.294,725.17Z" transform="translate(-819.787 -717.1)"/>
            </g>
            <g id="Group_74" data-name="Group 74" transform="translate(179.763 14.548)">
              <path id="Path_91" data-name="Path 91" class="cls-5" d="M890.5,725.17H859.174c-.743,0-1.274-.106-1.274-.319l4.141-7.433c.106-.212.743-.319,1.593-.319H894c.743,0,1.274.106,1.274.319l-3.186,7.433A3.2,3.2,0,0,1,890.5,725.17Z" transform="translate(-857.9 -717.1)"/>
            </g>
            <g id="Group_75" data-name="Group 75" transform="translate(220.634 14.548)">
              <path id="Path_92" data-name="Path 92" class="cls-5" d="M929,725.17H897.675c-.743,0-1.381-.106-1.275-.319l2.973-7.433c.106-.212.743-.319,1.487-.319h30.37c.743,0,1.38.106,1.274.319l-2.017,7.433A3.014,3.014,0,0,1,929,725.17Z" transform="translate(-896.389 -717.1)"/>
            </g>
            <g id="Group_76" data-name="Group 76" transform="translate(261.41 14.548)">
              <path id="Path_93" data-name="Path 93" class="cls-5" d="M967.4,725.17H936.075c-.743,0-1.38-.106-1.274-.319l1.805-7.433c0-.212.743-.319,1.486-.319h30.37c.743,0,1.38.106,1.38.319l-.849,7.433A4.04,4.04,0,0,1,967.4,725.17Z" transform="translate(-934.789 -717.1)"/>
            </g>
            <g id="Group_77" data-name="Group 77" transform="translate(301.88 14.548)">
              <path id="Path_94" data-name="Path 94" class="cls-5" d="M1005.606,725.17H974.28c-.743,0-1.38-.106-1.38-.319l.743-7.433c0-.212.637-.319,1.38-.319h30.37c.743,0,1.381.106,1.381.319l.212,7.433A2.2,2.2,0,0,1,1005.606,725.17Z" transform="translate(-972.9 -717.1)"/>
            </g>
            <g id="Group_78" data-name="Group 78" transform="translate(341.063 14.548)">
              <path id="Path_95" data-name="Path 95" class="cls-5" d="M1042.93,725.17h-31.325c-.743,0-1.38-.106-1.38-.319l-.425-7.433c0-.212.637-.319,1.38-.319h30.37c.743,0,1.38.106,1.38.319l1.381,7.433C1044.311,724.958,1043.78,725.17,1042.93,725.17Z" transform="translate(-1009.8 -717.1)"/>
            </g>
            <g id="Group_79" data-name="Group 79" transform="translate(381.096 14.548)">
              <path id="Path_96" data-name="Path 96" class="cls-5" d="M1081.8,725.17h-31.326c-.743,0-1.487-.106-1.487-.319l-1.487-7.433c0-.212.531-.319,1.274-.319h30.37c.743,0,1.381.106,1.487.319l2.442,7.433C1083.073,724.958,1082.542,725.17,1081.8,725.17Z" transform="translate(-1047.5 -717.1)"/>
            </g>
            <g id="Group_80" data-name="Group 80" transform="translate(420.48 14.548)">
              <path id="Path_97" data-name="Path 97" class="cls-5" d="M1120.067,725.17h-31.325c-.743,0-1.486-.106-1.486-.319l-2.655-7.433c-.106-.212.531-.319,1.274-.319h30.37c.744,0,1.487.106,1.487.319l3.611,7.433C1121.448,724.958,1120.917,725.17,1120.067,725.17Z" transform="translate(-1084.589 -717.1)"/>
            </g>
            <g id="Group_81" data-name="Group 81" transform="translate(459.237 14.548)">
              <path id="Path_98" data-name="Path 98" class="cls-5" d="M1157.842,725.17h-31.326c-.743,0-1.487-.106-1.593-.319l-3.823-7.433c-.106-.212.425-.319,1.168-.319h30.37c.743,0,1.487.106,1.593.319l4.672,7.433C1159.116,724.958,1158.585,725.17,1157.842,725.17Z" transform="translate(-1121.087 -717.1)"/>
            </g>
            <g id="Group_82" data-name="Group 82" transform="translate(499.801 14.548)">
              <path id="Path_99" data-name="Path 99" class="cls-5" d="M1197.1,725.17h-31.325c-.743,0-1.487-.106-1.593-.319l-4.885-7.433c-.106-.212.425-.319,1.168-.319h30.37c.743,0,1.487.106,1.593.319l5.841,7.433C1198.378,724.958,1197.847,725.17,1197.1,725.17Z" transform="translate(-1159.288 -717.1)"/>
            </g>
            <g id="Group_83" data-name="Group 83" transform="translate(538.345 14.548)">
              <path id="Path_100" data-name="Path 100" class="cls-5" d="M1234.678,725.17h-31.326a3.168,3.168,0,0,1-1.7-.319l-6.053-7.433c-.106-.212.319-.319,1.062-.319h30.37a3.167,3.167,0,0,1,1.7.319l7.009,7.433C1235.952,724.958,1235.421,725.17,1234.678,725.17Z" transform="translate(-1195.585 -717.1)"/>
            </g>
            <g id="Group_84" data-name="Group 84" transform="translate(578.134 14.548)">
              <path id="Path_101" data-name="Path 101" class="cls-5" d="M1273.348,725.17h-31.325c-.743,0-1.593-.106-1.7-.319l-7.221-7.433c-.212-.212.319-.319,1.062-.319h30.37a3.167,3.167,0,0,1,1.7.319l8.07,7.433C1274.622,724.958,1274.091,725.17,1273.348,725.17Z" transform="translate(-1233.055 -717.1)"/>
            </g>
            <g id="Group_85" data-name="Group 85" transform="translate(86.801 5.734)">
              <path id="Path_102" data-name="Path 102" class="cls-5" d="M801.622,716.339H771.465c-.744,0-1.274-.106-1.062-.319l6.477-6.9c.106-.212.85-.318,1.593-.318h29.308c.743,0,1.168.106,1.062.318l-5.522,6.9A4.728,4.728,0,0,1,801.622,716.339Z" transform="translate(-770.356 -708.8)"/>
            </g>
            <g id="Group_86" data-name="Group 86" transform="translate(125.56 5.734)">
              <path id="Path_103" data-name="Path 103" class="cls-5" d="M838.122,716.339H807.965c-.743,0-1.274-.106-1.062-.319l5.416-6.9c.106-.212.849-.318,1.593-.318h29.2c.743,0,1.274.106,1.168.318l-4.566,6.9A3.587,3.587,0,0,1,838.122,716.339Z" transform="translate(-806.856 -708.8)"/>
            </g>
            <g id="Group_87" data-name="Group 87" transform="translate(165.202 5.734)">
              <path id="Path_104" data-name="Path 104" class="cls-5" d="M875.526,716.339H845.369c-.743,0-1.274-.106-1.168-.319l4.354-6.9c.106-.212.743-.318,1.487-.318h29.308c.743,0,1.274.106,1.168.318l-3.5,6.9A3.012,3.012,0,0,1,875.526,716.339Z" transform="translate(-844.187 -708.8)"/>
            </g>
            <g id="Group_88" data-name="Group 88" transform="translate(203.961 5.734)">
              <path id="Path_105" data-name="Path 105" class="cls-5" d="M912.026,716.339H881.869c-.744,0-1.274-.106-1.168-.319l3.292-6.9c.106-.212.743-.318,1.487-.318h29.308c.743,0,1.274.106,1.168.318l-2.442,6.9A3.012,3.012,0,0,1,912.026,716.339Z" transform="translate(-880.687 -708.8)"/>
            </g>
            <g id="Group_89" data-name="Group 89" transform="translate(243.795 5.734)">
              <path id="Path_106" data-name="Path 106" class="cls-5" d="M949.632,716.339H919.474c-.743,0-1.274-.106-1.274-.319l2.23-6.9c.106-.212.743-.318,1.38-.318h29.308c.743,0,1.274.106,1.274.318l-1.38,6.9A2.2,2.2,0,0,1,949.632,716.339Z" transform="translate(-918.2 -708.8)"/>
            </g>
            <g id="Group_90" data-name="Group 90" transform="translate(282.117 5.734)">
              <path id="Path_107" data-name="Path 107" class="cls-5" d="M985.732,716.339H955.575c-.743,0-1.38-.106-1.274-.319l1.168-6.9c0-.212.637-.318,1.38-.318h29.308c.744,0,1.274.106,1.274.318l-.318,6.9A2.2,2.2,0,0,1,985.732,716.339Z" transform="translate(-954.289 -708.8)"/>
            </g>
            <g id="Group_91" data-name="Group 91" transform="translate(321.843 5.734)">
              <path id="Path_108" data-name="Path 108" class="cls-5" d="M1023.344,716.339H993.081c-.743,0-1.38-.106-1.38-.319l.106-6.9c0-.212.637-.318,1.38-.318h29.308c.744,0,1.381.106,1.381.318l.743,6.9C1024.619,716.127,1024.087,716.339,1023.344,716.339Z" transform="translate(-991.7 -708.8)"/>
            </g>
            <g id="Group_92" data-name="Group 92" transform="translate(359.752 5.734)">
              <path id="Path_109" data-name="Path 109" class="cls-5" d="M1059.787,716.339H1029.63c-.743,0-1.38-.106-1.38-.319l-.85-6.9c0-.212.531-.318,1.274-.318h29.308c.743,0,1.38.106,1.38.318l1.805,6.9C1061.168,716.127,1060.637,716.339,1059.787,716.339Z" transform="translate(-1027.4 -708.8)"/>
            </g>
            <g id="Group_93" data-name="Group 93" transform="translate(398.405 5.734)">
              <path id="Path_110" data-name="Path 110" class="cls-5" d="M1097.355,716.339H1067.2c-.743,0-1.38-.106-1.486-.319l-1.912-6.9c0-.212.531-.318,1.274-.318h29.308c.743,0,1.381.106,1.487.318l2.867,6.9A2.2,2.2,0,0,1,1097.355,716.339Z" transform="translate(-1063.8 -708.8)"/>
            </g>
            <g id="Group_94" data-name="Group 94" transform="translate(437.044 5.734)">
              <path id="Path_111" data-name="Path 111" class="cls-5" d="M1134.818,716.339h-30.158c-.743,0-1.381-.106-1.487-.319l-2.974-6.9c-.106-.212.425-.318,1.168-.318h29.308c.743,0,1.38.106,1.487.318l3.929,6.9C1136.092,716.127,1135.562,716.339,1134.818,716.339Z" transform="translate(-1100.187 -708.8)"/>
            </g>
            <g id="Group_95" data-name="Group 95" transform="translate(475.165 5.734)">
              <path id="Path_112" data-name="Path 112" class="cls-5" d="M1171.887,716.339h-30.158c-.743,0-1.487-.106-1.593-.319l-4.036-6.9c-.106-.212.425-.318,1.168-.318h29.308c.743,0,1.38.106,1.486.318l4.991,6.9C1173.161,716.127,1172.63,716.339,1171.887,716.339Z" transform="translate(-1136.087 -708.8)"/>
            </g>
            <g id="Group_96" data-name="Group 96" transform="translate(511.904 5.734)">
              <path id="Path_113" data-name="Path 113" class="cls-5" d="M1207.548,716.339h-30.157c-.744,0-1.487-.106-1.593-.319l-5.1-6.9c-.106-.212.319-.318,1.062-.318h29.308c.743,0,1.487.106,1.593.318l5.946,6.9C1208.823,716.127,1208.292,716.339,1207.548,716.339Z" transform="translate(-1170.685 -708.8)"/>
            </g>
            <g id="Group_97" data-name="Group 97" transform="translate(550.385 5.734)">
              <path id="Path_114" data-name="Path 114" class="cls-5" d="M1261.9,716.339h-45.13c-2.124,0-4.142-.425-4.566-.85l-5.2-5.84c-.425-.425.85-.849,2.973-.849h43.856a10.049,10.049,0,0,1,4.566.849l6.371,5.84C1265.3,715.915,1264.028,716.339,1261.9,716.339Z" transform="translate(-1206.923 -708.8)"/>
            </g>
            <g id="Group_98" data-name="Group 98" transform="translate(37.315 14.442)">
              <path id="Path_115" data-name="Path 115" class="cls-5" d="M773.605,725.177H726.776c-2.124,0-3.5-.425-2.867-.956l6.8-6.265c.531-.531,2.655-.956,4.779-.956h45.448c2.124,0,3.4.425,2.973.956l-5.522,6.265C777.853,724.752,775.729,725.177,773.605,725.177Z" transform="translate(-723.753 -717)"/>
            </g>
          </g>
        </g>
        <g id="Group_110" data-name="Group 110" transform="translate(249.48)">
          <path id="Path_116" data-name="Path 116" class="cls-6" d="M1218.586,179.7h-274.5A18.717,18.717,0,0,0,925.4,198.389V392.5a18.717,18.717,0,0,0,18.689,18.689h214.288c28.671,0,41.626-23.255,41.626-51.82V198.283A18.536,18.536,0,0,1,1218.586,179.7Z" transform="translate(-829.406 -179.594)"/>
          <path id="Path_117" data-name="Path 117" class="cls-7" d="M1150.653,388.566V261.989a18.717,18.717,0,0,0-18.689-18.689h-1.274A18.716,18.716,0,0,0,1112,261.989V407.255h57.341A18.716,18.716,0,0,1,1150.653,388.566Z" transform="translate(-817.859 -175.658)"/>
          <path id="Path_118" data-name="Path 118" class="cls-8" d="M1222.452,343.555V198.289a18.717,18.717,0,0,0-18.689-18.689h-1.274a18.717,18.717,0,0,0-18.689,18.689V343.555Z" transform="translate(-813.415 -178.6)"/>
          <path id="Path_119" data-name="Path 119" class="cls-6" d="M1167.514,179.7h-.425a18.717,18.717,0,0,0-18.689,18.689V392.5a18.717,18.717,0,0,0,18.689,18.689h.425A18.717,18.717,0,0,0,1186.2,392.5V198.283A18.626,18.626,0,0,0,1167.514,179.7Z" transform="translate(-815.606 -179.594)"/>
          <path id="Path_120" data-name="Path 120" class="cls-9" d="M1147.831,243.3H853.689A18.717,18.717,0,0,0,835,261.989l2.867,388.224h294.142l-2.867-388.224A18.717,18.717,0,0,1,1147.831,243.3Z" transform="translate(-835 -175.658)"/>
          <g id="Group_104" data-name="Group 104" transform="translate(30.122 106.613)">
            <path id="Path_121" data-name="Path 121" class="cls-5" d="M954.626,323.688a42.307,42.307,0,0,1-42.157,42.688c-23.361,0-42.263-19.114-42.369-42.688A42.308,42.308,0,0,1,912.257,281C935.618,280.894,954.626,300.114,954.626,323.688Z" transform="translate(-869.709 -279.938)"/>
            <path id="Path_122" data-name="Path 122" class="cls-10" d="M1083.016,306.555H977.571a6.413,6.413,0,0,1-6.371-6.478h0a6.482,6.482,0,0,1,6.371-6.477h105.445a6.413,6.413,0,0,1,6.371,6.477h0A6.482,6.482,0,0,1,1083.016,306.555Z" transform="translate(-856.694 -279.158)"/>
            <path id="Path_123" data-name="Path 123" class="cls-5" d="M1083.117,334.055H977.671a6.413,6.413,0,0,1-6.371-6.478h0a6.482,6.482,0,0,1,6.371-6.478h105.445a6.413,6.413,0,0,1,6.371,6.478h0A6.413,6.413,0,0,1,1083.117,334.055Z" transform="translate(-856.688 -277.457)"/>
            <g id="Group_103" data-name="Group 103">
              <g id="Group_102" data-name="Group 102">
                <path id="Path_124" data-name="Path 124" class="cls-5" d="M949.839,322.582c-.849,23.468-20.919,42.581-44.811,42.581s-42.582-19.008-41.626-42.581C864.145,299.114,884.215,280,908.107,280S950.689,299.114,949.839,322.582Z" transform="translate(-863.367 -280)"/>
                <g id="Group_101" data-name="Group 101" class="cls-11">
                  <path id="Path_125" data-name="Path 125" class="cls-12" d="M892.688,321.955a10.228,10.228,0,0,0,2.442,4.46c2.018,1.7,4.991,1.805,7.752,1.805,3.186,0,6.69,0,9.132-1.911a10,10,0,0,0,2.973-4.035,19.536,19.536,0,0,0-.318-16.353,6.139,6.139,0,0,0-1.911-2.442,7.284,7.284,0,0,0-4.035-1.274A17.917,17.917,0,0,0,898,304.752a15.493,15.493,0,0,0-6.478,8.07C890.564,315.583,891.838,319.194,892.688,321.955Z" transform="translate(-861.646 -278.63)"/>
                  <path id="Path_126" data-name="Path 126" class="cls-13" d="M909.779,342.276c-1.487.956-5.946.425-7.327,1.168-1.487.849-6.265,1.062-7.751.637.212-7.008,3.823-14.123,4.141-20.6,2.654,5.947,5.84,2.655,8.92-1.38C907.443,328.471,909.991,335.9,909.779,342.276Z" transform="translate(-861.428 -277.395)"/>
                  <path id="Path_127" data-name="Path 127" class="cls-13" d="M898.312,328.571a11.773,11.773,0,0,0,.956,2.018,5.394,5.394,0,0,0,3.185,2.336,5.288,5.288,0,0,0,4.566-1.38,11.621,11.621,0,0,0,1.168-1.062,46.116,46.116,0,0,1-.743-8.283c-3.08,4.035-6.265,7.327-8.92,1.381.212.425-.106,1.274-.106,1.7q-.159.956-.318,1.911A7.312,7.312,0,0,0,898.312,328.571Z" transform="translate(-861.218 -277.389)"/>
                  <path id="Path_128" data-name="Path 128" class="cls-14" d="M926.472,370.807c-.212-2.442-.425-4.885-.743-7.221-.212-1.911-.425-3.929-.637-5.84-.213-2.018-.531-4.035-.743-6.159-.743-5.734-1.381-12.955-3.717-18.264a.957.957,0,0,1-.106-.531c-.106,0-8.495-3.079-11.15-3.292,0,1.911-1.7,6.477-5.522,6.371-2.336,0-5.1-3.5-5.1-6.371-3.5.318-11.362,3.292-11.362,3.292-1.911.425-3.5,11.256-3.823,12.636-1.168,6.053-2.548,12.105-3.5,18.158v.212c-.425,2.336-.743,4.566-1.168,6.9h47.572Z" transform="translate(-862.406 -276.937)"/>
                  <path id="Path_129" data-name="Path 129" class="cls-15" d="M888.05,332.7h0c-2.018.637-5.947,2.973-7.964,4.141a24.018,24.018,0,0,0-8.6,8.389,50.034,50.034,0,0,0-4.885,10.513,12.177,12.177,0,0,0,4.141,4.566c2.442,1.7,7.433,3.5,7.964,3.717,1.168-2.124,2.336-3.4,2.761-4.566.85-4.46,1.911-9.663,2.761-14.123C884.546,343.956,886.245,333.125,888.05,332.7Z" transform="translate(-863.167 -276.739)"/>
                  <path id="Path_130" data-name="Path 130" class="cls-15" d="M933.928,344.706a21.991,21.991,0,0,0-7.964-8.5c-2.124-1.274-8.07-3.61-7.964-3.61,0,.212,3.079,12.955,3.823,18.689.319,2.018.212,2.124.531,4.141.212,1.911,2.442,6.9,4.035,8.92a45.16,45.16,0,0,0,7.539-3.61,12.069,12.069,0,0,0,3.929-3.717C937.008,353.2,935.733,348,933.928,344.706Z" transform="translate(-859.986 -276.745)"/>
                  <path id="Path_131" data-name="Path 131" class="cls-13" d="M892.716,317.464a20.363,20.363,0,0,0,2.655,8.707,9.88,9.88,0,0,0,7.539,4.672c3.929.106,7.646-2.761,9.557-6.265s2.336-7.539,2.761-11.362c.319-3.292.531-6.8-.956-9.769a6.265,6.265,0,0,0-2.336-2.655,15.644,15.644,0,0,0-2.336-1.062,14.812,14.812,0,0,0-10.831,1.168C892.4,304.4,891.972,311.093,892.716,317.464Z" transform="translate(-861.567 -278.812)"/>
                  <path id="Path_132" data-name="Path 132" class="cls-12" d="M918.747,304.275a5.894,5.894,0,0,0,1.805-3.823c0-.425-.319-1.062-.743-.956a7.287,7.287,0,0,1-.319.849c-.637.212-1.274-.319-1.7-.849a21.306,21.306,0,0,1-1.487-1.7,6.827,6.827,0,0,0-1.062-1.38c-.106-.106-.106-.212-.213-.319a22.615,22.615,0,0,0-1.7-2.655c-2.018-2.23-5.522-2.549-8.6-2.442a16.942,16.942,0,0,0-5.628.956,7.337,7.337,0,0,0-4.141,3.823c-.106.212-.106.425-.212.637-4.248,2.655-6.8,7.964-5.734,12.743.318,1.593,1.062,3.186.743,4.885a26.033,26.033,0,0,1,.212,2.867,1.776,1.776,0,0,0,2.548.425,2.722,2.722,0,0,0,.637-2.018c.106-2.124.212-4.248.319-6.265a2.1,2.1,0,0,1,.212-1.168,6.405,6.405,0,0,1,.85-.849,11.1,11.1,0,0,0,3.292-3.717,15.16,15.16,0,0,0,4.247,2.761,20.374,20.374,0,0,0,9.132.85,21.3,21.3,0,0,0,2.549-.425c.106,2.867.106,5.84.212,8.707,0,1.062.213,2.442,1.274,2.655a1.779,1.779,0,0,0,1.911-.849,5.085,5.085,0,0,0,.743-2.124,33.936,33.936,0,0,0,.743-10.831C918.747,304.487,918.747,304.381,918.747,304.275Z" transform="translate(-861.795 -279.32)"/>
                  <path id="Path_133" data-name="Path 133" class="cls-13" d="M893.577,317.9a38.169,38.169,0,0,1-.319-4.991,1.011,1.011,0,0,0-.743-.212,2.339,2.339,0,0,0-.849.106,1.741,1.741,0,0,0-.743,1.274,9.937,9.937,0,0,0-.106,4.991,5.1,5.1,0,0,0,2.867,3.5.482.482,0,0,0,.531,0A31,31,0,0,1,893.577,317.9Z" transform="translate(-861.685 -277.977)"/>
                  <path id="Path_134" data-name="Path 134" class="cls-13" d="M915.948,314.183c-.106-.531-.212-1.062-.637-1.274a.933.933,0,0,0-.743-.106,3.075,3.075,0,0,0-1.7.956c-.106,0-.106.106-.212.106a25.861,25.861,0,0,1-.106,2.867,25.307,25.307,0,0,1-.425,4.885A6.871,6.871,0,0,1,911.7,323a1.97,1.97,0,0,0,.743-.212,5.523,5.523,0,0,0,3.185-3.5A12.049,12.049,0,0,0,915.948,314.183Z" transform="translate(-860.376 -277.973)"/>
                </g>
              </g>
            </g>
          </g>
          <g id="Group_109" data-name="Group 109" transform="translate(39.396 229.154)">
            <path id="Path_136" data-name="Path 136" class="cls-16" d="M899.284,431.929H881.445a9.358,9.358,0,0,1-9.345-9.345v-17.84a9.358,9.358,0,0,1,9.345-9.345h17.839a9.358,9.358,0,0,1,9.345,9.345v17.84A9.358,9.358,0,0,1,899.284,431.929Zm-17.839-32.812a5.665,5.665,0,0,0-5.628,5.628v17.84a5.665,5.665,0,0,0,5.628,5.628h17.839a5.665,5.665,0,0,0,5.628-5.628v-17.84a5.665,5.665,0,0,0-5.628-5.628Z" transform="translate(-872.1 -395.4)"/>
            <path id="Path_137" data-name="Path 137" class="cls-17" d="M899.284,482.429H881.445a9.358,9.358,0,0,1-9.345-9.345v-17.84a9.358,9.358,0,0,1,9.345-9.345h17.839a9.358,9.358,0,0,1,9.345,9.345v17.84A9.358,9.358,0,0,1,899.284,482.429Zm-17.839-32.812a5.665,5.665,0,0,0-5.628,5.628v17.84a5.665,5.665,0,0,0,5.628,5.628h17.839a5.665,5.665,0,0,0,5.628-5.628v-17.84a5.665,5.665,0,0,0-5.628-5.628Z" transform="translate(-872.1 -392.275)"/>
            <path id="Path_138" data-name="Path 138" class="cls-18" d="M899.284,532.229H881.445a9.358,9.358,0,0,1-9.345-9.344v-17.84a9.358,9.358,0,0,1,9.345-9.345h17.839a9.358,9.358,0,0,1,9.345,9.345v17.84A9.291,9.291,0,0,1,899.284,532.229Zm-17.839-32.706a5.665,5.665,0,0,0-5.628,5.628v17.84a5.665,5.665,0,0,0,5.628,5.628h17.839a5.665,5.665,0,0,0,5.628-5.628v-17.84a5.665,5.665,0,0,0-5.628-5.628Z" transform="translate(-872.1 -389.193)"/>
            <g id="Group_105" data-name="Group 105" transform="translate(66.686 5.522)">
              <path id="Path_139" data-name="Path 139" class="cls-10" d="M1090.691,404.317H958.7a1.677,1.677,0,0,1-1.7-1.7V402.3a1.677,1.677,0,0,1,1.7-1.7h131.992a1.677,1.677,0,0,1,1.7,1.7v.319A1.677,1.677,0,0,1,1090.691,404.317Z" transform="translate(-933.532 -400.6)"/>
              <path id="Path_140" data-name="Path 140" class="cls-10" d="M1092.059,414.517H936.6a1.677,1.677,0,0,1-1.7-1.7V412.5a1.677,1.677,0,0,1,1.7-1.7h155.46a1.677,1.677,0,0,1,1.7,1.7v.318A1.677,1.677,0,0,1,1092.059,414.517Z" transform="translate(-934.9 -399.969)"/>
              <path id="Path_141" data-name="Path 141" class="cls-10" d="M1076.449,424.717H936.6a1.677,1.677,0,0,1-1.7-1.7V422.7a1.677,1.677,0,0,1,1.7-1.7h139.744a1.677,1.677,0,0,1,1.7,1.7v.318A1.657,1.657,0,0,1,1076.449,424.717Z" transform="translate(-934.9 -399.338)"/>
            </g>
            <g id="Group_106" data-name="Group 106" transform="translate(66.686 57.448)">
              <path id="Path_142" data-name="Path 142" class="cls-10" d="M1090.691,453.217H958.7a1.677,1.677,0,0,1-1.7-1.7V451.2a1.678,1.678,0,0,1,1.7-1.7h131.992a1.677,1.677,0,0,1,1.7,1.7v.318A1.677,1.677,0,0,1,1090.691,453.217Z" transform="translate(-933.532 -449.5)"/>
              <path id="Path_143" data-name="Path 143" class="cls-10" d="M1092.059,463.417H936.6a1.677,1.677,0,0,1-1.7-1.7V461.4a1.677,1.677,0,0,1,1.7-1.7h155.46a1.677,1.677,0,0,1,1.7,1.7v.319A1.747,1.747,0,0,1,1092.059,463.417Z" transform="translate(-934.9 -448.869)"/>
              <path id="Path_144" data-name="Path 144" class="cls-10" d="M998.082,473.517H936.6a1.677,1.677,0,0,1-1.7-1.7V471.5a1.677,1.677,0,0,1,1.7-1.7h61.483a1.677,1.677,0,0,1,1.7,1.7v.319A1.677,1.677,0,0,1,998.082,473.517Z" transform="translate(-934.9 -448.244)"/>
            </g>
            <g id="Group_107" data-name="Group 107" transform="translate(66.686 112.135)">
              <path id="Path_145" data-name="Path 145" class="cls-10" d="M1090.691,504.717H958.7a1.677,1.677,0,0,1-1.7-1.7V502.7a1.677,1.677,0,0,1,1.7-1.7h131.992a1.677,1.677,0,0,1,1.7,1.7v.319A1.677,1.677,0,0,1,1090.691,504.717Z" transform="translate(-933.532 -501)"/>
              <path id="Path_146" data-name="Path 146" class="cls-10" d="M1092.059,514.917H936.6a1.677,1.677,0,0,1-1.7-1.7V512.9a1.677,1.677,0,0,1,1.7-1.7h155.46a1.677,1.677,0,0,1,1.7,1.7v.318A1.747,1.747,0,0,1,1092.059,514.917Z" transform="translate(-934.9 -500.369)"/>
              <path id="Path_147" data-name="Path 147" class="cls-10" d="M936.6,525.017a1.677,1.677,0,0,1-1.7-1.7V523a1.677,1.677,0,0,1,1.7-1.7h124.134a1.677,1.677,0,0,1,1.7,1.7v.319a1.677,1.677,0,0,1-1.7,1.7" transform="translate(-934.9 -499.744)"/>
            </g>
            <g id="Group_108" data-name="Group 108" transform="translate(3.717 169.37)">
              <path id="Path_148" data-name="Path 148" class="cls-10" d="M1095.516,558.723h-218a1.9,1.9,0,0,1-1.911-1.911h0a1.9,1.9,0,0,1,1.911-1.911h218a1.9,1.9,0,0,1,1.911,1.911h0A1.84,1.84,0,0,1,1095.516,558.723Z" transform="translate(-875.6 -554.9)"/>
              <path id="Path_149" data-name="Path 149" class="cls-10" d="M992.938,568.923H877.511a1.9,1.9,0,0,1-1.911-1.911h0a1.9,1.9,0,0,1,1.911-1.911H992.938a1.9,1.9,0,0,1,1.911,1.911h0A1.974,1.974,0,0,1,992.938,568.923Z" transform="translate(-875.6 -554.269)"/>
              <path id="Path_150" data-name="Path 150" class="cls-10" d="M992.938,589.823H877.511a1.9,1.9,0,0,1-1.911-1.911h0A1.9,1.9,0,0,1,877.511,586H992.938a1.9,1.9,0,0,1,1.911,1.911h0A1.974,1.974,0,0,1,992.938,589.823Z" transform="translate(-875.6 -552.976)"/>
              <path id="Path_151" data-name="Path 151" class="cls-10" d="M1082.773,579.123H877.511a1.9,1.9,0,0,1-1.911-1.911h0a1.9,1.9,0,0,1,1.911-1.911h205.156a1.9,1.9,0,0,1,1.911,1.911h0A1.884,1.884,0,0,1,1082.773,579.123Z" transform="translate(-875.6 -553.638)"/>
            </g>
          </g>
        </g>
        <g id="Group_111" data-name="Group 111" transform="translate(519.517 564.816)">
          <path id="Path_155" data-name="Path 155" class="cls-19" d="M1116.59,711.5l-27.29,15.185,27.29,15.291Z" transform="translate(-1089.3 -711.5)"/>
          <path id="Path_156" data-name="Path 156" class="cls-20" d="M1095.777,721.7l-6.477,4.354,6.477,4.354Z" transform="translate(-1089.3 -710.869)"/>
          <path id="Path_157" data-name="Path 157" class="cls-21" d="M1249.1,735.811V717.865a6.276,6.276,0,0,1,6.265-6.265l37.378.106a6.277,6.277,0,0,1,6.266,6.265v17.946a6.277,6.277,0,0,1-6.266,6.265l-37.378-.106A6.209,6.209,0,0,1,1249.1,735.811Z" transform="translate(-1079.412 -711.494)"/>
          <path id="Path_158" data-name="Path 158" class="cls-22" d="M1115,721.694l150.256.106V711.606L1115,711.5Z" transform="translate(-1087.71 -711.5)"/>
          <path id="Path_159" data-name="Path 159" class="cls-23" d="M1115,731.188l150.256.106V721.206L1115,721.1Z" transform="translate(-1087.71 -710.906)"/>
          <path id="Path_160" data-name="Path 160" class="cls-24" d="M1115,740.794l150.256.106V730.706L1115,730.6Z" transform="translate(-1087.71 -710.318)"/>
          <rect id="Rectangle_18" data-name="Rectangle 18" class="cls-25" width="30.476" height="6.159" transform="translate(179.863 0.102) rotate(90.097)"/>
        </g>
        <g id="Group_114" data-name="Group 114" transform="translate(363.923 238.265)">
          <path id="Path_161" data-name="Path 161" class="cls-13" d="M1016.369,484.769s25.379-14.123,29.839-17.734,6.052-6.477,4.46-18.583-3.717-25.273-4.991-26.972c-1.168-1.7-3.929-2.655-7.221-4.035-3.4-1.38-8.283-4.035-6.477-4.566a10.185,10.185,0,0,1,6.053.85,19.612,19.612,0,0,0,3.929,1.381s1.062-2.867-.106-4.035-8.177-1.38-9.026-1.487-1.593-1.911,2.336-2.655c3.929-.85,4.991-.637,6.69,0a28.482,28.482,0,0,1,7.114,4.672c.956,1.168.849,6.159,1.381,8.07s8.283,21.45,10.194,28.458,8.176,14.123-2.442,26.016c-10.619,12-43.75,42.688-43.75,42.688s-8.813-7.433-9.451-16.034C1004.37,492.2,1016.369,484.769,1016.369,484.769Z" transform="translate(-938.93 -403.832)"/>
          <path id="Path_162" data-name="Path 162" class="cls-14" d="M1047.27,480.569l-.425-.425c-.531-.637-1.062-1.274-1.7-1.911-1.274-1.38-2.655-2.655-4.035-3.929-.106-.106-.319-.212-.425-.319-.106,0-.212-.106-.425-.319-.637-.425-1.38-.85-2.018-1.274-.212-.212-1.38-.637-1.487-.743-.425-.106-.956-.319-1.381-.425a5.179,5.179,0,0,1-1.168-.425c-8.389,4.885-17.734,10.088-17.734,10.088s-12.105,7.539-11.575,16.141,9.451,16.034,9.451,16.034,19.432-18.052,33.343-31.857A2.009,2.009,0,0,0,1047.27,480.569Z" transform="translate(-938.931 -399.845)"/>
          <g id="Group_112" data-name="Group 112" transform="translate(0 36.749)">
            <path id="Path_163" data-name="Path 163" class="cls-12" d="M983.438,755.8a150.5,150.5,0,0,0-1.274,19.751s.531.213,1.274.531c-.425,3.929-.637,7.964-.849,12a61.194,61.194,0,0,1-7.221-1.593c-1.805-4.354-2.655-18.158-2.867-29.52C976.11,757.818,980.04,756.119,983.438,755.8Z" transform="translate(-940.935 -418.957)"/>
            <path id="Path_164" data-name="Path 164" class="cls-12" d="M1009.385,753.9a194.955,194.955,0,0,0-3.079,21.556s13.273,6.584,14.866,9.238-.212,3.717-7.114,4.141-15.4-3.079-15.4-3.079c-1.486-4.46-1.168-18.371-.318-29.733C1001.633,757.192,1005.881,753.794,1009.385,753.9Z" transform="translate(-939.38 -419.075)"/>
            <path id="Path_165" data-name="Path 165" class="cls-26" d="M1009.728,568.2a12.86,12.86,0,0,0-9.239,3.4,12.978,12.978,0,0,0-8.708-3.292c-17.734-.637-24.211,12-23.68,25.485.106,1.487.956,106.295,4.566,175,2.761-.106,8.6-.106,11.362-.213,1.062-20.282,7.964-81.128,14.017-125.621,1.38,44.493,1.7,105.126,2.124,125.3,2.761.106,7.752.425,10.513.637,11.575-61.908,21.769-172.768,21.875-174.361C1033.514,581.049,1027.567,568.2,1009.728,568.2Z" transform="translate(-941.209 -430.566)"/>
            <path id="Path_166" data-name="Path 166" class="cls-27" d="M995.922,575.3a108.727,108.727,0,0,1-15.822-3.5,39.178,39.178,0,0,1,1.274,8.6c3.4.319,6.265.425,8.07.531,7.539.531,15.716.637,18.052.637a90.275,90.275,0,0,1-6.053-8.176C998.9,574.136,995.922,575.3,995.922,575.3Z" transform="translate(-940.464 -430.344)"/>
            <path id="Path_167" data-name="Path 167" class="cls-13" d="M988.993,585.325a23.263,23.263,0,0,0-2.017-7.646C976.357,575.025,961.7,569.5,960,559.2c-1.7-10.513,9.451-43.006,14.017-57.023-1.911-.425-3.823-.85-5.734-1.168-4.141-.637-9.026-.743-13.274-1.911-3.186,8.707-15.4,43.75-11.468,63.182C947.9,582.989,977.1,584.688,988.993,585.325Z" transform="translate(-942.774 -434.843)"/>
            <path id="Path_168" data-name="Path 168" class="cls-13" d="M978.21,470.844a3.1,3.1,0,0,1,.212-.956,6.479,6.479,0,0,1-.743-1.487,15.126,15.126,0,0,1,.849-14.123c3.08-4.779,12.106-9.451,16.778-4.141,4.885,5.522,6.584,15.928,3.717,22.512a9.317,9.317,0,0,1-2.124,3.186,7.009,7.009,0,0,1-3.823,1.7c-.213,2.973-.956,6.159-1.062,8.92-.212,3.292-.425,7.115-2.018,8.92-1.274,1.487-2.973.849-4.354.106-3.186-1.593-6.584-3.5-8.283-8.283a10.066,10.066,0,0,1-.743-3.717,25.305,25.305,0,0,1,.425-4.885C977.36,476.047,977.785,473.393,978.21,470.844Z" transform="translate(-940.698 -438.018)"/>
            <path id="Path_169" data-name="Path 169" class="cls-28" d="M997.177,460.688c1.274-.319,2.761-.319,4.035-.531a2.323,2.323,0,0,0,1.486-.849c1.487-1.805,1.911-3.929.85-6.69-.637-1.487-1.805-2.655-2.336-4.141-.637-1.487-.425-2.336-.425-4.035a11.635,11.635,0,0,0-.743-4.672,2.241,2.241,0,0,0-2.124-1.168h0a30.418,30.418,0,0,0-6.159,1.38,3.613,3.613,0,0,1-1.062.106c-8.177-1.274-19.008,2.761-21.556,7.646a9.319,9.319,0,0,0-.531,1.593,2.355,2.355,0,0,1-.531,1.168,5.646,5.646,0,0,0-1.275,2.336c-1.168,4.779,5.734,9.026,6.584,14.017.212,1.168.106,2.336.318,3.5.637,4.141,5.84,7.752,11.468,8.07s10.938-2.761,11.893-6.8a2.961,2.961,0,0,0-.106-1.911c-.425-.849-1.487-1.38-2.23-2.124C992.4,465.36,993.673,461.644,997.177,460.688Z" transform="translate(-941.295 -438.587)"/>
            <path id="Path_170" data-name="Path 170" class="cls-14" d="M1024.5,514.867c-.743-2.655-1.593-5.309-2.548-7.858,1.168-.106-3.5-16.247-5.628-24.423-6.9-.743-13.061-1.487-16.035-1.487-.106,0-.106,0-.212-.106a3.4,3.4,0,0,1-.743-.106c.212-1.487,0-2.655-3.186-2.973-5.947-.743-15.716.531-18.8,1.168-1.593.319-1.486,1.38-1.062,2.761l-.213-.212-.319.319s-22.406-.956-28.565,43.006c2.336,5.628,14.548,7.433,17.415,7.752a38.818,38.818,0,0,0,1.38-4.673c1.593,10.831,2.442,13.592,4.141,33.768-1.062,15.291-1.593,27.078-.743,27.609,2.23,1.593,50.227,1.062,60.633-2.973.319,0,.637-.106.956-.106,5.416-.849,1.805-8.6,1.487-9.876C1028.646,556.174,1029.814,534.724,1024.5,514.867Z" transform="translate(-942.5 -436.168)"/>
            <path id="Path_171" data-name="Path 171" class="cls-14" d="M1030.623,581.074c-15.61-.425-31.644-6.477-42.475-17.946C978.06,552.4,971.9,538.174,966.91,524.582c-1.168-3.292-2.336-6.69-3.292-9.982-.106.106-.212.212-.318.212,1.593,10.725,4.141,24.636,5.84,44.6-1.062,15.291-1.593,27.078-.743,27.609,2.23,1.593,50.227,1.062,60.633-2.973.318,0,.637-.106.956-.106a3.158,3.158,0,0,0,2.867-2.867Z" transform="translate(-941.504 -433.883)"/>
            <path id="Path_172" data-name="Path 172" class="cls-29" d="M997.557,480.886c.212-1.487,0-2.655-3.186-2.973-5.946-.743-15.716.531-18.8,1.168-1.486.319-1.486,1.274-1.062,2.442C982.054,483.329,997.663,480.886,997.557,480.886Z" transform="translate(-940.825 -436.168)"/>
            <path id="Path_173" data-name="Path 173" class="cls-28" d="M987.5,781.523a18.447,18.447,0,0,0-2.336-5.1,17.577,17.577,0,0,0-2.973-4.354c0-1.593,0-3.186.106-4.672a30.681,30.681,0,0,1-9.345.106c.106,2.23.106,4.46.106,6.584a57.207,57.207,0,0,0-.849,5.946c-.212,2.23-.637,5.1,1.062,6.9,1.274,1.38,3.292,1.593,5.2,1.487,1.8-.106,6.9-.106,7.433-.425a2.085,2.085,0,0,0,.956-.956A7.194,7.194,0,0,0,987.5,781.523Z" transform="translate(-940.965 -418.239)"/>
            <path id="Path_174" data-name="Path 174" class="cls-28" d="M1021.26,783.815c-1.062-1.911-8.177-5.734-12.105-7.858a17.747,17.747,0,0,0-2.549-3.716c.106-1.805.319-3.5.531-5.2a30.394,30.394,0,0,1-9.345-.637c-.106,2.017-.106,4.035-.106,6.053,0,.106-.106.212-.106.425a56.769,56.769,0,0,0-1.168,7.221c-.212,2.23-.637,5.1,1.062,6.9,1.274,1.381,3.292,1.593,5.2,1.487,1.805-.106,6.9-.106,7.433-.425l.106-.106a23.3,23.3,0,0,0,3.823.106C1020.942,787.531,1022.747,786.576,1021.26,783.815Z" transform="translate(-939.468 -418.301)"/>
          </g>
          <g id="Group_113" data-name="Group 113" transform="translate(80.837 0)">
            <path id="Path_175" data-name="Path 175" class="cls-10" d="M1021.555,407.923l-2.655-3.292,4.141-.531Z" transform="translate(-1018.9 -403.972)"/>
            <path id="Path_176" data-name="Path 176" class="cls-20" d="M1019.537,405.462l-.637-.85,1.062-.212Z" transform="translate(-1018.9 -403.954)"/>
            <path id="Path_177" data-name="Path 177" class="cls-30" d="M1052.054,416.33l-.849,2.23a.747.747,0,0,0,.425,1.062l4.672,1.805a.747.747,0,0,0,1.062-.425l.849-2.23a.747.747,0,0,0-.425-1.062l-4.672-1.805A.747.747,0,0,0,1052.054,416.33Z" transform="translate(-1016.906 -403.247)"/>
            <rect id="Rectangle_19" data-name="Rectangle 19" class="cls-19" width="34.617" height="1.38" transform="translate(34.835 16.431) rotate(-158.71)"/>
            <rect id="Rectangle_20" data-name="Rectangle 20" class="cls-31" width="34.617" height="1.38" transform="translate(35.377 15.211) rotate(-158.71)"/>
            <rect id="Rectangle_21" data-name="Rectangle 21" class="cls-19" width="34.617" height="1.38" transform="translate(35.856 13.856) rotate(-158.71)"/>
            <rect id="Rectangle_22" data-name="Rectangle 22" class="cls-25" width="4.035" height="0.85" transform="matrix(0.362, -0.932, 0.932, 0.362, 34.48, 16.228)"/>
          </g>
          <path id="Path_178" data-name="Path 178" class="cls-13" d="M1040.056,410.98a.39.39,0,0,1,.319.106c2.443,1.062,4.885,1.911,7.433,2.761h.106a5.707,5.707,0,0,0-.637-2.442,28.488,28.488,0,0,0-7.115-4.672c-1.7-.637-2.867-.85-6.69,0-3.928.849-3.079,2.549-2.336,2.655.744.212,7.752.425,8.919,1.593Z" transform="translate(-937.345 -403.844)"/>
          <path id="Path_179" data-name="Path 179" class="cls-13" d="M1048.589,418.469a21.35,21.35,0,0,0-2.655-1.487,16.355,16.355,0,0,0-3.291-1.805.37.37,0,0,1-.212-.106c-1.168-.319-2.124-.531-2.124-.531a22.186,22.186,0,0,1-3.928-1.38,10.184,10.184,0,0,0-6.053-.85c-1.912.531,3.08,3.186,6.478,4.566s6.053,2.336,7.22,4.035a9.472,9.472,0,0,1,.956,2.973c1.7-.319,3.4-.531,4.99-.85-.743-2.018-1.274-3.5-1.486-3.929C1048.7,419,1048.589,418.787,1048.589,418.469Z" transform="translate(-937.382 -403.475)"/>
        </g>
      </g>
    </g>
  </g>
</svg>
