<svg xmlns="http://www.w3.org/2000/svg" viewBox="0 0 117.407 116.049">
  <defs>
    <style>
      .cls-1, .cls-6 {
        fill: #38003c;
      }

      .cls-1 {
        stroke: #fff;
      }

      .cls-2 {
        fill: #e90052;
      }

      .cls-3 {
        fill: #99cbff;
      }

      .cls-4 {
        fill: #f7f7f7;
        stroke: #fef8f8;
        stroke-width: 9px;
      }

      .cls-5 {
        fill: none;
      }
    </style>
  </defs>
  <g id="Group_850" data-name="Group 850" transform="translate(-907.534 -1939.156)">
    <g id="bank" transform="translate(906.205 1939.739)">
      <path id="Path_560" data-name="Path 560" class="cls-1" d="M11.823,44h2.4a2.939,2.939,0,0,0-.027.381V91.027H12.563a2.968,2.968,0,0,0,0,5.937H100.62a2.968,2.968,0,0,0,0-5.937H98.992V44.385A2.94,2.94,0,0,0,98.965,44h2.4a5.171,5.171,0,0,0,3.076-9.328L58.357.582a2.968,2.968,0,0,0-3.531,0L8.747,34.675A5.171,5.171,0,0,0,11.823,44ZM59.257,91.027h-5.33V44.385A2.939,2.939,0,0,0,53.9,44h5.384a2.94,2.94,0,0,0-.027.381V91.027Zm-22.533,0H31.393V44.385A2.939,2.939,0,0,0,31.366,44h5.385a2.939,2.939,0,0,0-.027.381Zm-16.6,0V47.353h5.33V91.027Zm22.533,0V47.353h5.33V91.027Zm22.533,0V47.353h5.33V91.027Zm22.534,0V47.353h5.33V91.027ZM81.79,44.385V91.027H76.46V44.385A2.94,2.94,0,0,0,76.432,44h5.385A2.939,2.939,0,0,0,81.79,44.385ZM56.592,6.661,99.039,38.066H14.144L56.592,6.661Z" transform="translate(-2.689 0)"/>
      <path id="Path_561" data-name="Path 561" class="cls-2" d="M103.509,203.2H4.3a2.968,2.968,0,1,0,0,5.937h99.212a2.968,2.968,0,1,0,0-5.937Z" transform="translate(0 -102.676)"/>
    </g>
    <g id="file" transform="translate(931.521 2005.5)">
      <path id="Path_548" data-name="Path 548" class="cls-3" d="M370.361,18.361h-5.771a1.929,1.929,0,0,1-1.924-1.924V10.667Z" transform="translate(-281.442 -9.705)"/>
      <path id="Path_549" data-name="Path 549" class="cls-4" d="M98.625,18.361V52.986A1.929,1.929,0,0,1,96.7,54.91H65.924A1.929,1.929,0,0,1,64,52.986v-40.4a1.929,1.929,0,0,1,1.924-1.924H90.93v5.771a1.93,1.93,0,0,0,1.924,1.924Z" transform="translate(-9.705 -9.705)"/>
      <path id="Path_550" data-name="Path 550" class="cls-5" d="M128.962,170.667h21.16a.962.962,0,0,1,.962.962v11.542a.962.962,0,0,1-.962.962h-21.16a.962.962,0,0,1-.962-.962V171.629A.962.962,0,0,1,128.962,170.667Z" transform="translate(-67.934 -155.278)"/>
      <g id="Group_556" data-name="Group 556" transform="translate(53.333)">
        <path id="Path_551" data-name="Path 551" class="cls-6" d="M117.333,64h7.695v7.662h-7.695Z" transform="translate(-111.562 -58.229)"/>
        <path id="Path_554" data-name="Path 554" class="cls-6" d="M89.6,7.976,81.905.282A.961.961,0,0,0,81.225,0H56.218a2.885,2.885,0,0,0-2.885,2.885h0v40.4a2.885,2.885,0,0,0,2.885,2.885H87a2.885,2.885,0,0,0,2.885-2.885V8.656A.961.961,0,0,0,89.6,7.976Zm-1.642,35.3a.962.962,0,0,1-.962.962H56.218a.962.962,0,0,1-.962-.962V2.885a.962.962,0,0,1,.962-.962H80.264V6.733a2.885,2.885,0,0,0,2.885,2.885h1.924V7.694H83.149a.962.962,0,0,1-.962-.962V3.284l5.771,5.771Z" transform="translate(-53.333 0)"/>
        <path id="Path_555" data-name="Path 555" class="cls-2" d="M373.333,362.667h1.924v1.924h-1.924Z" transform="translate(-344.479 -329.966)"/>
        <path id="Path_556" data-name="Path 556" class="cls-6" d="M330.667,362.667h1.924v1.924h-1.924Z" transform="translate(-305.66 -329.966)"/>
        <path id="Path_557" data-name="Path 557" class="cls-6" d="M117.333,362.667h15.389v1.924H117.333Z" transform="translate(-111.562 -329.966)"/>
        <path id="Path_558" data-name="Path 558" class="cls-6" d="M117.333,416H142.34v1.924H117.333Z" transform="translate(-111.562 -378.49)"/>
        <path id="Path_622" data-name="Path 622" class="cls-6" d="M117.333,364.74H142.34v-2.073H117.333Z" transform="translate(-111.562 -336.729)"/>
        <path id="Path_623" data-name="Path 623" class="cls-6" d="M117.333,362.667h15.389v1.924H117.333Z" transform="translate(-111.562 -341.69)"/>
      </g>
    </g>
  </g>
</svg>
