<svg xmlns="http://www.w3.org/2000/svg" viewBox="0 0 15.719 35.577">
  <defs>
    <style>
      .cls-1 {
        fill: #2b2c2c;
      }
    </style>
  </defs>
  <g id="info" transform="translate(-31.139)">
    <path id="Path_748" data-name="Path 748" class="cls-1" d="M46.388,31.738l-.5,2.032q-2.237.883-3.57,1.345a9.416,9.416,0,0,1-3.1.463,6.18,6.18,0,0,1-4.211-1.321,4.275,4.275,0,0,1-1.5-3.355,11.869,11.869,0,0,1,.112-1.615q.114-.826.363-1.864l1.864-6.6q.249-.947.42-1.8a7.8,7.8,0,0,0,.17-1.546,2.391,2.391,0,0,0-.522-1.763,2.946,2.946,0,0,0-1.993-.5,5.224,5.224,0,0,0-1.482.226c-.507.15-.94.295-1.3.429l.5-2.034q1.831-.746,3.5-1.276a10.481,10.481,0,0,1,3.169-.532,6.028,6.028,0,0,1,4.148,1.3,4.314,4.314,0,0,1,1.457,3.377c0,.287-.032.792-.1,1.514a10.123,10.123,0,0,1-.373,1.989l-1.856,6.57a17.451,17.451,0,0,0-.408,1.81A9.316,9.316,0,0,0,41,30.132a2.213,2.213,0,0,0,.584,1.785,3.3,3.3,0,0,0,2.03.474,5.862,5.862,0,0,0,1.535-.237A8.584,8.584,0,0,0,46.388,31.738Zm.471-27.583a3.845,3.845,0,0,1-1.3,2.926,4.42,4.42,0,0,1-3.126,1.21,4.469,4.469,0,0,1-3.142-1.21,3.836,3.836,0,0,1-1.311-2.926,3.874,3.874,0,0,1,1.311-2.936,4.638,4.638,0,0,1,6.268,0A3.882,3.882,0,0,1,46.858,4.155Z" transform="translate(0 0)"/>
  </g>
</svg>
