<svg xmlns="http://www.w3.org/2000/svg" viewBox="0 0 360.208 724.434">
  <defs>
    <style>
      .cls-1 {
        fill: #38003c;
      }

      .cls-2, .cls-5 {
        opacity: 0.05;
      }

      .cls-3, .cls-4, .cls-5 {
        fill: #ecedf0;
      }

      .cls-4, .cls-6 {
        opacity: 0.03;
      }

      .cls-6 {
        fill: #f2f0f7;
      }
    </style>
  </defs>
  <g id="mobile_background" transform="translate(0 7.034)">
    <path id="Rectangle_336" data-name="Rectangle 336" class="cls-1" d="M0,0H359.961V724.434H0Z" transform="translate(0 -7.034)"/>
    <g id="Symbol_3_6" data-name="Symbol 3 – 6" class="cls-2" transform="translate(54.922 49.809)">
      <ellipse id="Ellipse_64" data-name="Ellipse 64" class="cls-3" cx="7.202" cy="7.116" rx="7.202" ry="7.116" transform="translate(0)"/>
    </g>
    <ellipse id="Ellipse_153" data-name="Ellipse 153" class="cls-4" cx="30.078" cy="28.674" rx="30.078" ry="28.674" transform="translate(62.583 63.673)"/>
    <g id="Symbol_3_7" data-name="Symbol 3 – 7" class="cls-2" transform="translate(160.608 590.693)">
      <ellipse id="Ellipse_64-2" data-name="Ellipse 64" class="cls-3" cx="7.202" cy="7.116" rx="7.202" ry="7.116" transform="translate(0 0)"/>
    </g>
    <ellipse id="Ellipse_154" data-name="Ellipse 154" class="cls-4" cx="21.917" cy="20.828" rx="21.917" ry="20.828" transform="translate(77.055 615.291)"/>
    <ellipse id="Ellipse_155" data-name="Ellipse 155" class="cls-5" cx="8.76" cy="8.328" rx="8.76" ry="8.328" transform="translate(68.489 7.406)"/>
    <path id="Path_776" data-name="Path 776" class="cls-6" d="M.877,62.864,253.245.105h2.121L.039,93.136" transform="matrix(-0.999, 0.035, -0.035, -0.999, 360.251, 689.196)"/>
    <ellipse id="Ellipse_86" data-name="Ellipse 86" class="cls-5" cx="8.722" cy="8.291" rx="8.722" ry="8.291" transform="translate(122.579 579.933)"/>
    <ellipse id="Ellipse_87" data-name="Ellipse 87" class="cls-4" cx="25.343" cy="24.002" rx="25.343" ry="24.002" transform="translate(273.068 480.966)"/>
    <ellipse id="Ellipse_88" data-name="Ellipse 88" class="cls-5" cx="8.722" cy="8.291" rx="8.722" ry="8.291" transform="translate(264.337 309.933)"/>
  </g>
</svg>
