<svg xmlns="http://www.w3.org/2000/svg" xmlns:xlink="http://www.w3.org/1999/xlink" viewBox="0 0 316.968 289.879">
  <defs>
    <style>
      .cls-1 {
        opacity: 0.4;
        fill: url(#linear-gradient);
      }

      .cls-2 {
        fill: #e1f1f9;
      }

      .cls-3 {
        fill: #97caff;
      }

      .cls-4 {
        fill: #092140;
      }

      .cls-5 {
        fill: #e90052;
      }

      .cls-6 {
        fill: #52517b;
      }

      .cls-7 {
        fill: #45446c;
      }

      .cls-8 {
        fill: #2c2b57;
      }

      .cls-9 {
        fill: #d1e7f4;
      }

      .cls-10 {
        fill: #a7c4e4;
      }

      .cls-11 {
        fill: #8db0da;
      }

      .cls-12 {
        fill: #38003c;
      }

      .cls-13 {
        fill: #add5f8;
        opacity: 0.25;
      }

      .cls-14 {
        fill: #45014a;
      }

      .cls-15 {
        fill: #77a0c9;
      }

      .cls-16 {
        fill: #cbdcf8;
      }

      .cls-17 {
        fill: #c2d4ea;
      }

      .cls-18 {
        fill: #fff;
      }

      .cls-19 {
        clip-path: url(#clip-path);
      }

      .cls-20 {
        fill: #492817;
      }

      .cls-21 {
        fill: #703313;
      }

      .cls-22 {
        fill: #ffd22e;
      }

      .cls-23 {
        fill: #f4c42a;
      }

      .cls-24 {
        fill: #6a4576;
      }

      .cls-25 {
        fill: #d96fa6;
      }

      .cls-26 {
        fill: #012561;
      }

      .cls-27 {
        fill: #031f4d;
      }

      .cls-28 {
        fill: #ffaa81;
      }

      .cls-29 {
        fill: #211109;
      }

      .cls-30 {
        fill: #292951;
      }

      .cls-31 {
        fill: #f2f2f2;
      }

      .cls-32 {
        fill: #100703;
      }
    </style>
    <linearGradient id="linear-gradient" y1="0.5" x2="1" y2="0.5" gradientUnits="objectBoundingBox">
      <stop offset="0" stop-color="#67e5fc"/>
      <stop offset="1" stop-color="#99cbff"/>
    </linearGradient>
    <clipPath id="clip-path">
      <path id="Path_658" data-name="Path 658" d="M430.679,266.4a13.182,13.182,0,0,1-13.162,12.5,12.063,12.063,0,0,1-12.234-12.5,13.175,13.175,0,0,1,13.133-12.5A12.069,12.069,0,0,1,430.679,266.4Z" transform="translate(-405.275 -253.9)"/>
    </clipPath>
  </defs>
  <g id="Group_592" data-name="Group 592" transform="translate(-18.667 -312.8)">
    <g id="Group_1" data-name="Group 1" transform="translate(18.667 312.8)">
      <path id="Path_435" data-name="Path 435" class="cls-1" d="M81.926,45.313C154.409,27.088,255.109-38.1,287.173,31.176c16.955,32.206,18.3,85.257,10.949,120.365-8.008,36.949-24.776,55.892-60.313,61.914C167.2,223.879,37.849,231.025,10.07,158.688c-15.36-34.858-11.575-67.189.813-83.2C23.959,57.827,45.638,56.485,81.926,45.313Z" transform="matrix(0.998, -0.07, 0.07, 0.998, 0, 21.092)"/>
    </g>
    <g id="Group_591" data-name="Group 591" transform="translate(91.223 355.587)">
      <ellipse id="Ellipse_84" data-name="Ellipse 84" class="cls-2" cx="90.25" cy="7.77" rx="90.25" ry="7.77" transform="translate(0 231.553)"/>
      <g id="Group_565" data-name="Group 565" transform="translate(122.111 226.683)">
        <path id="Path_629" data-name="Path 629" class="cls-3" d="M647.7,885.6l-9.1,5.044,9.074,5.074Z" transform="translate(-638.6 -885.6)"/>
        <path id="Path_630" data-name="Path 630" class="cls-4" d="M640.774,898.1l-2.174,1.421,2.174,1.45Z" transform="translate(-638.6 -894.476)"/>
        <path id="Path_631" data-name="Path 631" class="cls-5" d="M833.2,893.831v-5.972a2.073,2.073,0,0,1,2.087-2.058l12.408.029a2.073,2.073,0,0,1,2.059,2.087v5.972a2.073,2.073,0,0,1-2.088,2.058l-12.408-.029A2.073,2.073,0,0,1,833.2,893.831Z" transform="translate(-776.783 -885.742)"/>
        <path id="Path_632" data-name="Path 632" class="cls-6" d="M670,888.963l49.923.058.029-3.363L670,885.6Z" transform="translate(-660.897 -885.6)"/>
        <path id="Path_633" data-name="Path 633" class="cls-7" d="M669.9,900.592l49.952.029v-3.363l-49.923-.058Z" transform="translate(-660.826 -893.837)"/>
        <path id="Path_634" data-name="Path 634" class="cls-8" d="M669.9,912.263l49.952.058v-3.392L669.9,908.9Z" transform="translate(-660.826 -902.145)"/>
        <rect id="Rectangle_42" data-name="Rectangle 42" class="cls-9" width="10.118" height="2.029" transform="translate(59.812 0.05) rotate(90.097)"/>
      </g>
      <g id="Group_569" data-name="Group 569" transform="translate(37.747 0)">
        <g id="Group_568" data-name="Group 568">
          <path id="Path_635" data-name="Path 635" class="cls-10" d="M383.02,312.553h80.393c6.175,0,11.22-5.508,11.22-12.234V115.934c0-6.726-5.044-12.234-11.22-12.234H383.02c-6.175,0-11.22,5.508-11.22,12.234V300.319C371.829,307.045,376.874,312.553,383.02,312.553Z" transform="translate(-364.784 -103.7)"/>
          <path id="Path_636" data-name="Path 636" class="cls-11" d="M492.2,186.4l10.321,157.162,57.548-.551.058-156.611S521.829,187.415,492.2,186.4Z" transform="translate(-450.279 -162.424)"/>
          <g id="Group_567" data-name="Group 567">
            <g id="Group_566" data-name="Group 566">
              <path id="Path_637" data-name="Path 637" class="cls-12" d="M358.82,312.553h80.393c6.175,0,11.22-5.508,11.22-12.234V115.934c0-6.726-5.044-12.234-11.22-12.234H358.82c-6.175,0-11.22,5.508-11.22,12.234V300.319C347.629,307.045,352.673,312.553,358.82,312.553Z" transform="translate(-347.6 -103.7)"/>
              <rect id="Rectangle_43" data-name="Rectangle 43" class="cls-9" width="91.757" height="157.771" transform="translate(97.313 183.315) rotate(-179.998)"/>
            </g>
            <path id="Path_753" data-name="Path 753" class="cls-11" d="M0,0H16.9V2.377H0Z" transform="translate(43.603 10.901)"/>
          </g>
        </g>
        <path id="Path_638" data-name="Path 638" class="cls-13" d="M392.466,346.968Q418.3,374.8,444.1,402.631l14.467,15.6-.2-35.775-5.247-5.682q-20.743-22.4-41.516-44.763L366.2,283.1l.2,35.775Z" transform="translate(-360.808 -231.09)"/>
        <path id="Path_639" data-name="Path 639" class="cls-13" d="M580.66,207.377,565.672,191.2,539,191.374l15.278,16.467q13.263,14.307,26.556,28.614Z" transform="translate(-483.511 -165.833)"/>
        <path id="Path_640" data-name="Path 640" class="cls-13" d="M366.909,573.136l42.443,45.748,13.539-.087-19.018-20.5q-18.786-20.265-37.573-40.5l.087,14.815Z" transform="translate(-360.879 -426.151)"/>
        <path id="Path_641" data-name="Path 641" class="cls-14" d="M487.881,772.051l-15.365.116a3.143,3.143,0,0,1-3.015-3.247v-.928a3.146,3.146,0,0,1,2.986-3.276l15.365-.116a3.143,3.143,0,0,1,3.015,3.247v.928A3.165,3.165,0,0,1,487.881,772.051Z" transform="translate(-434.16 -572.997)"/>
        <path id="Path_642" data-name="Path 642" class="cls-15" d="M486.431,763.009a3.143,3.143,0,0,1,3.015,3.247v.928a3.146,3.146,0,0,1-2.986,3.276l-15.365.116a3.143,3.143,0,0,1-3.015-3.247V766.4a3.146,3.146,0,0,1,2.986-3.276l15.365-.116m-.029-.609-15.365.116a3.738,3.738,0,0,0-3.537,3.914v.928a3.713,3.713,0,0,0,3.595,3.856l15.365-.116A3.738,3.738,0,0,0,490,767.184v-.928A3.731,3.731,0,0,0,486.4,762.4Z" transform="translate(-432.739 -571.434)"/>
      </g>
      <g id="Group_580" data-name="Group 580" transform="translate(48.531 31.919)">
        <path id="Path_643" data-name="Path 643" class="cls-16" d="M460.931,334.9h-71a5.122,5.122,0,0,1-5.132-5.131V218.932a5.122,5.122,0,0,1,5.132-5.131H460.9a5.122,5.122,0,0,1,5.132,5.131V329.765A5.116,5.116,0,0,1,460.931,334.9Z" transform="translate(-384.8 -213.8)"/>
        <g id="Group_579" data-name="Group 579" transform="translate(5.936 11.625)">
          <g id="Group_573" data-name="Group 573">
            <path id="Path_644" data-name="Path 644" class="cls-17" d="M437.487,267.524a12.4,12.4,0,0,1-12.35,12.524A12.528,12.528,0,0,1,412.7,267.524a12.394,12.394,0,1,1,24.788,0Z" transform="translate(-410.547 -254.681)"/>
            <path id="Path_645" data-name="Path 645" class="cls-18" d="M554.16,272.369h-30.9a1.875,1.875,0,0,1-1.855-1.884h0a1.875,1.875,0,0,1,1.855-1.884h30.934a1.875,1.875,0,0,1,1.855,1.884h0A1.919,1.919,0,0,1,554.16,272.369Z" transform="translate(-487.734 -264.338)"/>
            <path id="Path_646" data-name="Path 646" class="cls-17" d="M554.189,301.969H523.255a1.875,1.875,0,0,1-1.855-1.884h0a1.875,1.875,0,0,1,1.855-1.884h30.934a1.875,1.875,0,0,1,1.855,1.884h0A1.894,1.894,0,0,1,554.189,301.969Z" transform="translate(-487.734 -285.357)"/>
            <g id="Group_572" data-name="Group 572">
              <g id="Group_571" data-name="Group 571">
                <path id="Path_647" data-name="Path 647" class="cls-17" d="M430.679,266.4a13.182,13.182,0,0,1-13.162,12.5,12.063,12.063,0,0,1-12.234-12.5,13.175,13.175,0,0,1,13.133-12.5A12.069,12.069,0,0,1,430.679,266.4Z" transform="translate(-405.275 -253.9)"/>
                <g id="Group_570" data-name="Group 570" class="cls-19">
                  <path id="Path_648" data-name="Path 648" class="cls-20" d="M435.731,283.487a2.663,2.663,0,0,0,.725,1.3,3.552,3.552,0,0,0,2.29.522,4.5,4.5,0,0,0,2.7-.551,3.156,3.156,0,0,0,.87-1.189,5.7,5.7,0,0,0-.116-4.813,2.192,2.192,0,0,0-.551-.725,2.071,2.071,0,0,0-1.189-.377,5.235,5.235,0,0,0-3.16.754,4.438,4.438,0,0,0-1.913,2.348A5.2,5.2,0,0,0,435.731,283.487Z" transform="translate(-426.592 -270.76)"/>
                  <path id="Path_649" data-name="Path 649" class="cls-21" d="M443.607,305.185c-.464.29-1.739.116-2.145.348a5.06,5.06,0,0,1-2.261.2c.087-2.058,1.1-4.146,1.189-6.03.783,1.74,1.71.783,2.609-.406C442.911,301.126,443.665,303.3,443.607,305.185Z" transform="translate(-429.365 -286.138)"/>
                  <path id="Path_650" data-name="Path 650" class="cls-21" d="M442.882,301.084a2.175,2.175,0,0,0,.29.58,1.577,1.577,0,0,0,.957.7,1.55,1.55,0,0,0,1.334-.406,3.485,3.485,0,0,0,.348-.319,11.833,11.833,0,0,1-.2-2.435c-.9,1.189-1.826,2.145-2.609.406.058.116-.029.377-.058.522-.029.174-.058.377-.087.551A.665.665,0,0,0,442.882,301.084Z" transform="translate(-431.945 -286.067)"/>
                  <path id="Path_651" data-name="Path 651" class="cls-22" d="M436.145,319.218c-.058-.725-.145-1.421-.2-2.145-.058-.58-.116-1.16-.2-1.71-.087-.58-.145-1.189-.232-1.8a22.01,22.01,0,0,0-1.073-5.363c-.029-.058-.029-.087-.058-.145a24.981,24.981,0,0,0-3.247-.957c0,.551-.493,1.884-1.624,1.884-.7,0-1.508-1.015-1.508-1.884a18.707,18.707,0,0,0-3.334.957c-.551.116-1.044,3.305-1.1,3.711-.348,1.8-.725,3.537-1.044,5.334v.058c-.116.667-.232,1.363-.319,2.029h13.945Z" transform="translate(-417.293 -291.677)"/>
                  <path id="Path_652" data-name="Path 652" class="cls-23" d="M415.291,310.5h.029a15.383,15.383,0,0,0-2.377,1.218,7.308,7.308,0,0,0-2.522,2.464A12.389,12.389,0,0,0,409,317.255a3.907,3.907,0,0,0,1.218,1.363,14.632,14.632,0,0,0,2.319,1.1c.348-.609.667-.986.812-1.334.261-1.3.551-2.841.812-4.146C414.247,313.805,414.74,310.616,415.291,310.5Z" transform="translate(-407.92 -294.091)"/>
                  <path id="Path_653" data-name="Path 653" class="cls-23" d="M468.838,314.037a6.431,6.431,0,0,0-2.319-2.493c-.638-.377-2.348-1.044-2.319-1.044,0,.058.9,3.8,1.131,5.479.087.609.087.609.145,1.218a8.324,8.324,0,0,0,1.189,2.609,9.167,9.167,0,0,0,2.2-1.073,3.531,3.531,0,0,0,1.16-1.1A16.344,16.344,0,0,0,468.838,314.037Z" transform="translate(-447.116 -294.091)"/>
                  <path id="Path_654" data-name="Path 654" class="cls-21" d="M436.814,279.891a6.4,6.4,0,0,0,.783,2.551,2.856,2.856,0,0,0,2.232,1.363,3.287,3.287,0,0,0,2.783-1.826,8.808,8.808,0,0,0,.812-3.334,5.324,5.324,0,0,0-.29-2.87,1.763,1.763,0,0,0-.667-.783,1.864,1.864,0,0,0-.7-.29,4.231,4.231,0,0,0-3.189.348C436.7,276.064,436.611,278.036,436.814,279.891Z" transform="translate(-427.617 -268.556)"/>
                  <path id="Path_655" data-name="Path 655" class="cls-20" d="M441.689,269.813a1.71,1.71,0,0,0,.522-1.1c0-.145-.087-.319-.2-.261l-.087.261c-.2.058-.348-.116-.493-.232l-.435-.522c-.087-.145-.2-.261-.29-.406-.029-.029-.029-.058-.058-.087a4.6,4.6,0,0,0-.522-.783,3.128,3.128,0,0,0-2.522-.7,5.355,5.355,0,0,0-1.653.29,1.994,1.994,0,0,0-1.189,1.131,1.868,1.868,0,0,0-.058.2,3.634,3.634,0,0,0-1.681,3.74,3.032,3.032,0,0,1,.2,1.421,7.682,7.682,0,0,1,.058.841c.2.232.522.348.725.145a1,1,0,0,0,.2-.58c.029-.609.058-1.218.087-1.855a.735.735,0,0,1,.058-.348.659.659,0,0,1,.261-.232,3.366,3.366,0,0,0,.957-1.073,4.14,4.14,0,0,0,1.247.812,5.533,5.533,0,0,0,2.667.232,6.8,6.8,0,0,0,.754-.116c.029.841.029,1.71.058,2.551,0,.319.058.7.377.783a.593.593,0,0,0,.58-.232,2.206,2.206,0,0,0,.232-.609,9.692,9.692,0,0,0,.2-3.16Z" transform="translate(-424.925 -262.478)"/>
                  <path id="Path_656" data-name="Path 656" class="cls-21" d="M435.672,290.608c-.029-.464-.116-.986-.116-1.45a.276.276,0,0,0-.2-.058.565.565,0,0,0-.232.029.606.606,0,0,0-.2.377,2.735,2.735,0,0,0-.029,1.45A1.544,1.544,0,0,0,435.73,292a.262.262,0,0,0,.145.029A4.678,4.678,0,0,1,435.672,290.608Z" transform="translate(-426.243 -278.895)"/>
                  <path id="Path_657" data-name="Path 657" class="cls-21" d="M458.547,289.476c-.029-.145-.058-.319-.2-.377a.308.308,0,0,0-.232-.029.915.915,0,0,0-.493.261c-.029,0-.029.029-.058.029a8.156,8.156,0,0,1-.029.841,7.824,7.824,0,0,1-.116,1.421,2.133,2.133,0,0,1-.116.406.537.537,0,0,0,.2-.058,1.672,1.672,0,0,0,.928-1.044A2.475,2.475,0,0,0,458.547,289.476Z" transform="translate(-442.217 -278.866)"/>
                </g>
              </g>
            </g>
          </g>
          <g id="Group_578" data-name="Group 578" transform="translate(2.761 31.531)">
            <path id="Path_659" data-name="Path 659" class="cls-24" d="M422.773,388.527h-5.218a2.772,2.772,0,0,1-2.754-2.754v-5.218a2.772,2.772,0,0,1,2.754-2.754h5.218a2.772,2.772,0,0,1,2.754,2.754v5.218A2.753,2.753,0,0,1,422.773,388.527Zm-5.218-9.625a1.621,1.621,0,0,0-1.624,1.623v5.218a1.621,1.621,0,0,0,1.624,1.623h5.218a1.621,1.621,0,0,0,1.624-1.623v-5.218a1.621,1.621,0,0,0-1.624-1.623Z" transform="translate(-414.8 -373.411)"/>
            <path id="Path_660" data-name="Path 660" class="cls-25" d="M422.773,442.827h-5.218a2.772,2.772,0,0,1-2.754-2.754v-5.218a2.772,2.772,0,0,1,2.754-2.754h5.218a2.772,2.772,0,0,1,2.754,2.754v5.218A2.753,2.753,0,0,1,422.773,442.827Zm-5.218-9.625a1.621,1.621,0,0,0-1.624,1.623v5.218a1.621,1.621,0,0,0,1.624,1.624h5.218a1.621,1.621,0,0,0,1.624-1.624v-5.218a1.621,1.621,0,0,0-1.624-1.623Z" transform="translate(-414.8 -411.968)"/>
            <path id="Path_661" data-name="Path 661" class="cls-26" d="M422.773,496.327h-5.218a2.772,2.772,0,0,1-2.754-2.754v-5.218a2.772,2.772,0,0,1,2.754-2.754h5.218a2.772,2.772,0,0,1,2.754,2.754v5.218A2.735,2.735,0,0,1,422.773,496.327Zm-5.218-9.625a1.621,1.621,0,0,0-1.624,1.624v5.218a1.621,1.621,0,0,0,1.624,1.623h5.218a1.621,1.621,0,0,0,1.624-1.623v-5.218a1.621,1.621,0,0,0-1.624-1.624Z" transform="translate(-414.8 -449.958)"/>
            <g id="Group_574" data-name="Group 574" transform="translate(19.598 6.042)">
              <path id="Path_662" data-name="Path 662" class="cls-17" d="M545.3,384.573h-38.7a.508.508,0,0,1-.493-.493v-.087a.508.508,0,0,1,.493-.493h38.7a.508.508,0,0,1,.493.493v.087A.489.489,0,0,1,545.3,384.573Z" transform="translate(-499.229 -383.5)"/>
              <path id="Path_663" data-name="Path 663" class="cls-17" d="M514.262,395.573H482.806a.4.4,0,0,1-.406-.406v-.261a.4.4,0,0,1,.406-.406H514.29a.4.4,0,0,1,.406.406v.261A.465.465,0,0,1,514.262,395.573Z" transform="translate(-482.4 -391.311)"/>
            </g>
            <g id="Group_575" data-name="Group 575" transform="translate(19.569 21.262)">
              <path id="Path_664" data-name="Path 664" class="cls-18" d="M545.3,437.073h-38.7a.508.508,0,0,1-.493-.493v-.087a.508.508,0,0,1,.493-.493h38.7a.508.508,0,0,1,.493.493v.087A.489.489,0,0,1,545.3,437.073Z" transform="translate(-499.2 -436)"/>
              <path id="Path_665" data-name="Path 665" class="cls-18" d="M528.4,448.073h-45.6a.508.508,0,0,1-.493-.493v-.087a.508.508,0,0,1,.493-.493h45.574a.508.508,0,0,1,.493.493v.087A.465.465,0,0,1,528.4,448.073Z" transform="translate(-482.3 -443.811)"/>
              <path id="Path_666" data-name="Path 666" class="cls-18" d="M500.825,458.973H482.793a.508.508,0,0,1-.493-.493v-.087a.508.508,0,0,1,.493-.493h18.033a.508.508,0,0,1,.493.493v.087A.489.489,0,0,1,500.825,458.973Z" transform="translate(-482.3 -451.551)"/>
            </g>
            <g id="Group_576" data-name="Group 576" transform="translate(19.569 37.295)">
              <path id="Path_667" data-name="Path 667" class="cls-18" d="M545.3,492.373h-38.7a.508.508,0,0,1-.493-.493v-.087a.508.508,0,0,1,.493-.493h38.7a.508.508,0,0,1,.493.493v.087A.489.489,0,0,1,545.3,492.373Z" transform="translate(-499.2 -491.3)"/>
              <path id="Path_668" data-name="Path 668" class="cls-18" d="M528.4,503.373h-45.6a.508.508,0,0,1-.493-.493v-.087a.508.508,0,0,1,.493-.493h45.574a.508.508,0,0,1,.493.493v.087A.465.465,0,0,1,528.4,503.373Z" transform="translate(-482.3 -499.111)"/>
              <path id="Path_669" data-name="Path 669" class="cls-18" d="M482.793,514.273a.508.508,0,0,1-.493-.493v-.087a.508.508,0,0,1,.493-.493h36.384a.508.508,0,0,1,.493.493v.087a.508.508,0,0,1-.493.493" transform="translate(-482.3 -506.851)"/>
            </g>
            <g id="Group_577" data-name="Group 577" transform="translate(1.131 54.11)">
              <path id="Path_670" data-name="Path 670" class="cls-18" d="M483.177,550.4H419.251a.55.55,0,0,1-.551-.551h0a.551.551,0,0,1,.551-.551h63.926a.55.55,0,0,1,.551.551h0A.55.55,0,0,1,483.177,550.4Z" transform="translate(-418.7 -549.3)"/>
              <path id="Path_671" data-name="Path 671" class="cls-18" d="M453.084,561.4H419.251a.55.55,0,0,1-.551-.551h0a.551.551,0,0,1,.551-.551h33.833a.551.551,0,0,1,.551.551h0A.57.57,0,0,1,453.084,561.4Z" transform="translate(-418.7 -557.111)"/>
              <path id="Path_672" data-name="Path 672" class="cls-18" d="M453.084,583.7H419.251a.55.55,0,0,1-.551-.551h0a.551.551,0,0,1,.551-.551h33.833a.551.551,0,0,1,.551.551h0A.551.551,0,0,1,453.084,583.7Z" transform="translate(-418.7 -572.946)"/>
              <path id="Path_673" data-name="Path 673" class="cls-18" d="M479.408,572.3H419.251a.55.55,0,0,1-.551-.551h0a.55.55,0,0,1,.551-.551h60.186a.55.55,0,0,1,.551.551h0A.576.576,0,0,1,479.408,572.3Z" transform="translate(-418.7 -564.851)"/>
            </g>
          </g>
        </g>
      </g>
      <g id="Group_586" data-name="Group 586" transform="translate(48.85 157.8)">
        <g id="Group_585" data-name="Group 585">
          <g id="Group_581" data-name="Group 581">
            <path id="Path_677" data-name="Path 677" class="cls-10" d="M400.686,666.265H389.379a3.489,3.489,0,0,1-3.479-3.479V651.479A3.489,3.489,0,0,1,389.379,648h11.307a3.489,3.489,0,0,1,3.479,3.479v11.306A3.489,3.489,0,0,1,400.686,666.265Z" transform="translate(-385.9 -648)"/>
          </g>
          <g id="Group_582" data-name="Group 582" transform="translate(20.874)">
            <path id="Path_678" data-name="Path 678" class="cls-10" d="M472.686,666.265H461.379a3.489,3.489,0,0,1-3.479-3.479V651.479A3.489,3.489,0,0,1,461.379,648h11.307a3.489,3.489,0,0,1,3.479,3.479v11.306A3.489,3.489,0,0,1,472.686,666.265Z" transform="translate(-457.9 -648)"/>
          </g>
          <g id="Group_583" data-name="Group 583" transform="translate(41.458)">
            <path id="Path_679" data-name="Path 679" class="cls-10" d="M543.686,666.265H532.379a3.489,3.489,0,0,1-3.479-3.479V651.479A3.489,3.489,0,0,1,532.379,648h11.307a3.489,3.489,0,0,1,3.479,3.479v11.306A3.489,3.489,0,0,1,543.686,666.265Z" transform="translate(-528.9 -648)"/>
          </g>
          <g id="Group_584" data-name="Group 584" transform="translate(62.331)">
            <path id="Path_680" data-name="Path 680" class="cls-10" d="M615.686,666.265H604.379a3.489,3.489,0,0,1-3.479-3.479V651.479A3.489,3.489,0,0,1,604.379,648h11.307a3.489,3.489,0,0,1,3.479,3.479v11.306A3.489,3.489,0,0,1,615.686,666.265Z" transform="translate(-600.9 -648)"/>
          </g>
        </g>
      </g>
      <g id="Group_590" data-name="Group 590" transform="translate(79.158 84.207)">
        <g id="Group_589" data-name="Group 589" transform="translate(0 0)">
          <path id="Path_681" data-name="Path 681" class="cls-21" d="M581.686,427.382s9.712-5.392,11.394-6.784,2.319-2.464,1.681-7.074c-.609-4.61-1.45-9.654-1.884-10.321-.464-.667-1.479-1.015-2.783-1.537-1.276-.522-3.189-1.537-2.464-1.739a3.951,3.951,0,0,1,2.319.319,7.685,7.685,0,0,0,1.479.522s.406-1.073-.058-1.536-3.131-.522-3.45-.551c-.319-.058-.609-.725.87-1.015a3.75,3.75,0,0,1,2.58,0,10.849,10.849,0,0,1,2.725,1.8c.348.464.319,2.348.522,3.073s3.189,8.2,3.914,10.872,3.131,5.392-.928,9.944c-4.059,4.581-16.728,16.322-16.728,16.322s-3.392-2.812-3.595-6.117C577.047,430.252,581.686,427.382,581.686,427.382Z" transform="translate(-552.098 -396.494)"/>
          <path id="Path_682" data-name="Path 682" class="cls-22" d="M593.532,491.169a1.356,1.356,0,0,1-.145-.174c-.2-.261-.435-.493-.638-.754-.493-.522-1.015-1.044-1.537-1.508-.058-.058-.116-.087-.174-.145-.029,0-.087-.058-.174-.116-.261-.174-.522-.319-.754-.464-.087-.058-.522-.261-.58-.29-.174-.058-.348-.116-.551-.174-.145-.058-.29-.087-.435-.145-3.189,1.855-6.755,3.856-6.755,3.856s-4.61,2.87-4.407,6.146,3.595,6.117,3.595,6.117,7.422-6.9,12.727-12.176A.491.491,0,0,1,593.532,491.169Z" transform="translate(-552.174 -460.367)"/>
          <g id="Group_587" data-name="Group 587" transform="translate(0 17.799)">
            <path id="Path_683" data-name="Path 683" class="cls-21" d="M536.246,886.4a63.811,63.811,0,0,0-.493,7.567s.174.058.493.2c-.174,1.508-.232,3.044-.319,4.581a20.963,20.963,0,0,1-2.754-.609c-.7-1.653-1.015-6.958-1.073-11.278C533.434,887.154,534.912,886.516,536.246,886.4Z" transform="translate(-520.022 -761.491)"/>
            <path id="Path_684" data-name="Path 684" class="cls-21" d="M571.567,883.7a66.983,66.983,0,0,0-1.189,8.234s5.073,2.522,5.682,3.537c.58,1.015-.087,1.421-2.725,1.566a15.744,15.744,0,0,1-5.885-1.189c-.551-1.71-.435-7.016-.145-11.336C568.61,884.945,570.233,883.67,571.567,883.7Z" transform="translate(-544.849 -759.572)"/>
            <path id="Path_685" data-name="Path 685" class="cls-27" d="M541.7,623.8a4.963,4.963,0,0,0-3.537,1.3,5.065,5.065,0,0,0-3.334-1.276c-6.784-.232-9.219,4.581-9.045,9.741.029.58.348,40.617,1.74,66.854,1.044-.029,3.305-.058,4.349-.058.406-7.741,3.044-30.992,5.334-48.01.522,17.018.667,40.153.783,47.865,1.044.058,2.986.174,4,.232,4.436-23.657,8.32-66.013,8.378-66.593C550.74,628.729,548.479,623.829,541.7,623.8Z" transform="translate(-515.528 -575.022)"/>
            <path id="Path_686" data-name="Path 686" class="cls-28" d="M548.63,630.334A38.92,38.92,0,0,1,542.6,629a13.988,13.988,0,0,1,.464,3.305c1.3.116,2.377.145,3.1.2,2.87.2,6,.232,6.871.261a34.937,34.937,0,0,1-2.319-3.131A19.663,19.663,0,0,0,548.63,630.334Z" transform="translate(-527.478 -578.714)"/>
            <path id="Path_687" data-name="Path 687" class="cls-21" d="M508.085,560.134a8.925,8.925,0,0,0-.783-2.928c-4.059-1.015-9.654-3.131-10.321-7.045-.667-4.03,3.624-16.438,5.363-21.772-.725-.174-1.45-.319-2.2-.464a43.135,43.135,0,0,1-5.044-.725c-1.218,3.334-5.885,16.7-4.349,24.15C492.371,559.235,503.533,559.9,508.085,560.134Z" transform="translate(-490.441 -506.428)"/>
            <path id="Path_688" data-name="Path 688" class="cls-21" d="M537.874,464.319c.029-.116.029-.232.058-.348a5.072,5.072,0,0,1-.29-.551,5.815,5.815,0,0,1,.319-5.392c1.189-1.826,4.61-3.595,6.407-1.595a9.043,9.043,0,0,1,1.421,8.61,4.168,4.168,0,0,1-.783,1.218,2.681,2.681,0,0,1-1.45.667c-.087,1.131-.348,2.348-.406,3.392-.087,1.247-.174,2.725-.783,3.421-.493.58-1.131.319-1.652.058a5.65,5.65,0,0,1-3.189-3.16,5.368,5.368,0,0,1-.29-1.421,8.294,8.294,0,0,1,.174-1.884C537.555,466.291,537.729,465.3,537.874,464.319Z" transform="translate(-523.593 -455.549)"/>
            <path id="Path_689" data-name="Path 689" class="cls-22" d="M526.142,511.451a28.139,28.139,0,0,0-.986-3.015c.464-.058-1.334-6.2-2.145-9.335-2.609-.29-5.015-.58-6.146-.58-.029,0-.029-.029-.058-.029a1.314,1.314,0,0,0-.29-.029c.087-.551,0-1.015-1.218-1.16a27.421,27.421,0,0,0-7.161.464c-.609.145-.551.551-.406,1.044l-.058-.058a1.046,1.046,0,0,0-.145.116s-8.581-.377-10.93,16.409c.9,2.174,5.566,2.841,6.668,2.928a14.061,14.061,0,0,0,.522-1.768c.638,4.117.928,5.19,1.594,12.9-.406,5.856-.609,10.321-.29,10.553.87.609,19.192.406,23.164-1.131.116-.029.261-.029.377-.058,2.058-.319.667-3.276.58-3.8C527.678,527.223,528.142,519.018,526.142,511.451Z" transform="translate(-494.814 -485.142)"/>
            <path id="Path_690" data-name="Path 690" class="cls-23" d="M544.744,574.3a23.309,23.309,0,0,1-16.235-6.842c-3.885-4.088-6.2-9.538-8.118-14.728-.464-1.247-.9-2.522-1.276-3.827a.4.4,0,0,1-.116.087c.638,4.117,1.595,9.422,2.232,17.047-.406,5.856-.609,10.321-.29,10.553.87.609,19.192.406,23.164-1.131.116-.029.261-.029.377-.058a1.205,1.205,0,0,0,1.1-1.1Z" transform="translate(-510.72 -521.836)"/>
            <path id="Path_691" data-name="Path 691" class="cls-7" d="M543.463,498.463c.087-.551,0-1.015-1.218-1.16a27.42,27.42,0,0,0-7.161.464c-.551.145-.551.493-.435.957C537.52,499.391,543.492,498.463,543.463,498.463Z" transform="translate(-521.789 -485.142)"/>
            <path id="Path_692" data-name="Path 692" class="cls-29" d="M537.164,907.851a8.513,8.513,0,0,0-.87-1.971,8.138,8.138,0,0,0-1.131-1.681c0-.609.029-1.218.029-1.8a12.47,12.47,0,0,1-3.595.058,24.565,24.565,0,0,1,.029,2.522,21.2,21.2,0,0,0-.319,2.262,3.336,3.336,0,0,0,.406,2.638,2.393,2.393,0,0,0,1.971.551c.7-.058,2.638-.058,2.87-.145a.805.805,0,0,0,.348-.348A2.626,2.626,0,0,0,537.164,907.851Z" transform="translate(-519.404 -772.852)"/>
            <path id="Path_693" data-name="Path 693" class="cls-29" d="M574.617,907.939c-.406-.725-3.1-2.2-4.639-2.986a6.9,6.9,0,0,0-.986-1.421c.058-.667.116-1.334.2-2a12.2,12.2,0,0,1-3.566-.232c-.029.783-.029,1.566-.029,2.29-.029.058-.029.087-.058.145a17.587,17.587,0,0,0-.435,2.754,3.336,3.336,0,0,0,.406,2.638,2.392,2.392,0,0,0,1.971.551c.7-.058,2.638-.058,2.87-.145.029,0,.029-.029.058-.029a8.414,8.414,0,0,0,1.479.058C574.53,909.36,575.2,908.954,574.617,907.939Z" transform="translate(-543.405 -772.071)"/>
          </g>
          <g id="Group_588" data-name="Group 588" transform="translate(30.864)">
            <path id="Path_694" data-name="Path 694" class="cls-18" d="M597.915,395.721,596.9,394.5l1.595-.2Z" transform="translate(-596.9 -394.258)"/>
            <path id="Path_695" data-name="Path 695" class="cls-4" d="M597.132,395.106l-.232-.319.406-.087Z" transform="translate(-596.9 -394.542)"/>
            <path id="Path_696" data-name="Path 696" class="cls-30" d="M642.375,410.829l-.319.841a.323.323,0,0,0,.174.406l1.768.7a.323.323,0,0,0,.406-.174l.319-.841a.323.323,0,0,0-.174-.406l-1.768-.7A.323.323,0,0,0,642.375,410.829Z" transform="translate(-628.952 -405.859)"/>
            <rect id="Rectangle_45" data-name="Rectangle 45" class="cls-30" width="13.22" height="0.522" transform="translate(13.334 6.253) rotate(-158.71)"/>
            <rect id="Rectangle_46" data-name="Rectangle 46" class="cls-30" width="13.22" height="0.522" transform="translate(13.501 5.778) rotate(-158.71)"/>
            <rect id="Rectangle_47" data-name="Rectangle 47" class="cls-30" width="13.22" height="0.522" transform="translate(13.705 5.286) rotate(-158.71)"/>
            <rect id="Rectangle_48" data-name="Rectangle 48" class="cls-31" width="1.537" height="0.319" transform="matrix(0.362, -0.932, 0.932, 0.362, 13.158, 6.181)"/>
          </g>
          <path id="Path_697" data-name="Path 697" class="cls-21" d="M616.548,399.061a.174.174,0,0,1,.116.029c.928.406,1.884.725,2.812,1.073a.028.028,0,0,1,.029.029,2.092,2.092,0,0,0-.261-.928,10.348,10.348,0,0,0-2.725-1.8,3.721,3.721,0,0,0-2.58,0c-1.479.319-1.189.986-.87,1.015.348.058,3.015.116,3.479.58Z" transform="translate(-577.334 -396.352)"/>
          <path id="Path_698" data-name="Path 698" class="cls-21" d="M619.61,408.131c-.319-.2-.667-.377-.986-.58a5.166,5.166,0,0,0-1.247-.667c-.029,0-.058-.029-.087-.029-.464-.116-.783-.174-.783-.174a7.685,7.685,0,0,1-1.479-.522,3.951,3.951,0,0,0-2.319-.319c-.725.2,1.189,1.218,2.464,1.739s2.319.87,2.783,1.537a4.023,4.023,0,0,1,.377,1.131l1.913-.348c-.29-.783-.493-1.334-.551-1.508C619.639,408.334,619.639,408.218,619.61,408.131Z" transform="translate(-577.15 -402.407)"/>
        </g>
        <path id="Path_699" data-name="Path 699" class="cls-32" d="M537.927,445.158c-.232-.58-.7-1.015-.9-1.594a3.042,3.042,0,0,1-.145-1.536,3.722,3.722,0,0,0-.29-1.8.8.8,0,0,0-.812-.435h0a9.7,9.7,0,0,0-1.594.319,4.733,4.733,0,0,0-2.116-1.247c-2.609-.725-5.363.841-6.61,3.595a3.66,3.66,0,0,0-.7.87,1.963,1.963,0,0,0-.2.58.761.761,0,0,1-.2.435,2.106,2.106,0,0,0-.493.9c-.464,1.855,2.174,3.479,2.522,5.363.087.435.029.9.116,1.334.261,1.566,2.232,2.957,4.378,3.073s4.2-1.044,4.552-2.609a.909.909,0,0,0-.058-.725,3.74,3.74,0,0,0-.841-.812,1.571,1.571,0,0,1,.928-2.638,9.248,9.248,0,0,1,1.566-.2.9.9,0,0,0,.58-.319A2.458,2.458,0,0,0,537.927,445.158Z" transform="translate(-514.137 -425.779)"/>
      </g>
    </g>
  </g>
</svg>
