<svg xmlns="http://www.w3.org/2000/svg" viewBox="0 0 19.289 19.399">
  <defs>
    <style>
      .cls-1 {
        fill: #a3b0c6;
        opacity: 0.6;
      }
    </style>
  </defs>
  <path id="SEARCH_" class="cls-1" d="M16.778,1162.535l5.511,5.511-1.653,1.653-5.511-5.511v-.882l-.331-.331a7.011,7.011,0,0,1-4.629,1.653,6.656,6.656,0,0,1-5.07-2.094A7.269,7.269,0,0,1,3,1157.464a6.656,6.656,0,0,1,2.094-5.07,7.269,7.269,0,0,1,5.07-2.094,6.823,6.823,0,0,1,5.07,2.094,7.269,7.269,0,0,1,2.094,5.07,7.012,7.012,0,0,1-1.653,4.629l.331.331h.772ZM6.637,1161.1a4.656,4.656,0,0,0,3.527,1.433,4.825,4.825,0,0,0,3.527-1.433,5.057,5.057,0,0,0,0-7.054,4.656,4.656,0,0,0-3.527-1.433,4.824,4.824,0,0,0-3.527,1.433,4.656,4.656,0,0,0-1.433,3.527A5.1,5.1,0,0,0,6.637,1161.1Z" transform="translate(-3 -1150.3)"/>
</svg>
