<svg xmlns="http://www.w3.org/2000/svg" viewBox="0 0 23.571 23.706">
  <defs>
    <style>
      .cls-1 {
        fill: #070707;
      }
    </style>
  </defs>
  <path id="search" class="cls-1" d="M19.837,1165.251l6.735,6.735-2.02,2.02-6.735-6.735v-1.078l-.4-.4a8.569,8.569,0,0,1-5.657,2.02,8.135,8.135,0,0,1-6.2-2.559,8.883,8.883,0,0,1-2.559-6.2,8.134,8.134,0,0,1,2.559-6.2,8.884,8.884,0,0,1,6.2-2.559,8.338,8.338,0,0,1,6.2,2.559,8.883,8.883,0,0,1,2.559,6.2,8.568,8.568,0,0,1-2.02,5.657l.4.4h.943ZM7.445,1163.5a5.689,5.689,0,0,0,4.31,1.751,5.9,5.9,0,0,0,4.31-1.751,6.18,6.18,0,0,0,0-8.62,5.69,5.69,0,0,0-4.31-1.751,5.9,5.9,0,0,0-4.31,1.751,5.689,5.689,0,0,0-1.751,4.31A6.23,6.23,0,0,0,7.445,1163.5Z" transform="translate(-3 -1150.3)"/>
</svg>
