<svg xmlns="http://www.w3.org/2000/svg" viewBox="0 0 476.591 430.805">
  <defs>
    <style>
      .cls-1 {
        fill: none;
        stroke: #012561;
        stroke-width: 7px;
        stroke-dasharray: 6;
      }

      .cls-12, .cls-2 {
        fill: #6a0b6c;
      }

      .cls-3 {
        fill: #460e47;
      }

      .cls-4, .cls-6 {
        fill: #012561;
      }

      .cls-5 {
        fill: #5c68bf;
      }

      .cls-6 {
        stroke: #5c68bf;
      }

      .cls-12, .cls-6 {
        stroke-miterlimit: 10;
        stroke-width: 10px;
      }

      .cls-7 {
        fill: #767af8;
      }

      .cls-8 {
        fill: #ccc;
      }

      .cls-9 {
        fill: #e1e1e5;
      }

      .cls-10 {
        fill: #e9fdff;
      }

      .cls-11 {
        fill: #c7f6fe;
      }

      .cls-12 {
        stroke: #460e47;
      }
    </style>
  </defs>
  <g id="Group_708" data-name="Group 708" transform="translate(-771.236 -225.567)">
    <path id="Path_663" data-name="Path 663" class="cls-1" d="M10181.621-104.558c30.444-109.744,174.872,36.018,206.547,0s33.959-103.708,39.623-143.927" transform="translate(-8577.79 4089.52) rotate(-20)"/>
    <g id="Group_596" data-name="Group 596" transform="translate(1063 242.55)">
      <g id="Group_592" data-name="Group 592" transform="translate(53.787 111.846)">
        <path id="Path_648" data-name="Path 648" class="cls-2" d="M546.669,688.47l-24.469,17.3,2.757-27.571Z" transform="translate(-521.281 -676.454)"/>
        <path id="Path_649" data-name="Path 649" class="cls-3" d="M518.2,701.893l2.688-31.293,24.975,11.81Zm4.664-27.8-2.344,23.435,20.816-14.7Z" transform="translate(-518.2 -670.6)"/>
      </g>
      <g id="Group_593" data-name="Group 593">
        <path id="Path_650" data-name="Path 650" class="cls-4" d="M288.2,267.8c-.528-.414,169.562-74.1,169.562-74.1L336.1,298.47,288.2,267.8Z" transform="translate(-287.254 -191.425)"/>
        <path id="Path_651" data-name="Path 651" class="cls-5" d="M454.145,185.018h0l-84.873,36.853-34.257,14.934a2.263,2.263,0,0,0,1.218,2.229.933.933,0,0,0-.115-.207l34.05-14.842,78.187-33.935-2.068,1.769-22.815,19.644-30.42,26.169-60.2,51.788-23.229-14.888-20.954-13.418-1.264-.8.735-.345,2.619-1.195,5.284-2.344,10.569-4.664,15.118-6.64c.069.138.138.253.207.391A9.854,9.854,0,0,0,321,242.94l-15.325,6.709-10.592,4.664-5.284,2.367-2.642,1.195-1.333.62-.666.322-.345.161-.184.092-.115.069a.91.91,0,0,0-.092.069,1.3,1.3,0,0,0-.322.322c.666,3.286.184.919.345,1.654h.023l.023.023.046.023.092.069.184.115.368.23.758.482,1.493.965L290.418,265l6,3.837,11.97,7.674,23.941,15.3.712.459.643-.551h0l60.794-52.431,30.4-26.192,22.792-19.644,3.791-3.286c1.264-1.1,2.527-2.183,3.86-3.217l1.493-3.148Z" transform="translate(-284.1 -183.8)"/>
      </g>
      <path id="Path_653" data-name="Path 653" class="cls-6" d="M528.2,314.03,641.31,205.4,579.9,338.5Z" transform="translate(-472.116 -200.437)"/>
      <g id="Group_595" data-name="Group 595" transform="translate(47.715 2.275)">
        <g id="Group_594" data-name="Group 594">
          <path id="Path_654" data-name="Path 654" class="cls-7" d="M496.644,298.47c-.345,1.723,4.733,28.536,4.733,28.536l2.5-21.988L618.3,193.7Z" transform="translate(-495.512 -193.7)"/>
          <path id="Path_655" data-name="Path 655" class="cls-5" d="M493.895,299.044a.454.454,0,0,0,.138-.322v.161c0,.115.023.253.023.391.023.276.069.574.092.85.069.574.161,1.172.23,1.769.161,1.172.368,2.367.551,3.561.391,2.367.8,4.733,1.218,7.123.85,4.733,1.723,9.489,2.6,14.222l-2.275.092,2.5-21.988h0l.046-.414.3-.276,115.2-110.491h0v.023a4.469,4.469,0,0,1-.528,1.31,7.053,7.053,0,0,1-.758,1.034,8.057,8.057,0,0,1-.919.85l-.942.827-3.768,3.286-7.536,6.571-15.1,13.142-15.118,13.119-7.513,6.525-7.582,6.548-15.164,13.073-15.187,13.05Q509.208,286.04,493.895,299.044Zm-1.976-1.149q15.061-13.234,30.305-26.376l15.233-13.142,15.256-13.142,7.628-6.548,7.651-6.548,15.279-13.1,15.325-13.05,7.651-6.525,3.837-3.263.965-.8a8.211,8.211,0,0,1,.988-.781,6.027,6.027,0,0,1,1.149-.6,4.188,4.188,0,0,1,1.379-.322v.023h0L500.948,305.845l.345-.689h0l-2.5,21.988-.85,7.559-1.4-7.49c-.9-4.756-1.769-9.489-2.619-14.245-.414-2.367-.827-4.756-1.218-7.146q-.31-1.792-.551-3.584c-.092-.6-.161-1.218-.253-1.815-.023-.322-.069-.62-.092-.942a3.562,3.562,0,0,1-.023-.505V298.7A1.529,1.529,0,0,1,491.919,297.9Z" transform="translate(-491.775 -193.7)"/>
        </g>
      </g>
    </g>
    <path id="Path_657" data-name="Path 657" class="cls-8" d="M379,580.5c.889.627,1.777,1.1,2.666,1.751" transform="translate(515.054 -142.973)"/>
    <g id="Group_605" data-name="Group 605" transform="translate(873.774 496.618)">
      <path id="Path_659" data-name="Path 659" class="cls-9" d="M305.793,999.789C304.277,999,314.03,881,307.361,806.6c0,0,103,42.616,143.743,0,0,0-16.727,142.517,3.659,180.521C454.763,987.121,391.629,1014.6,305.793,999.789Z" transform="translate(-301.403 -844.418)"/>
      <g id="Group_600" data-name="Group 600" transform="matrix(0.921, -0.391, 0.391, 0.921, 22.226, -1.018)">
        <path id="Path_662" data-name="Path 662" class="cls-8" d="M667.044,1053.8l.136.3.227.349a6.087,6.087,0,0,0,.453.7l1,1.4,1.088,1.345c.363.448.725.9,1.133,1.346l1.179,1.3a15.068,15.068,0,0,0,1.224,1.246l2.539,2.442a96.569,96.569,0,0,0,11.152,8.572c1.949,1.3,3.9,2.641,5.939,3.738l3.037,1.744,1.5.9c.5.3,1.043.548,1.541.8l6.256,3.189c2.131,1,4.261,1.894,6.392,2.841l3.219,1.4,3.264,1.246,6.528,2.492,1.632.6,1.677.548,3.309,1.1,3.31,1.1,1.677.548.816.249.816.249,6.71,1.844,3.355.947c1.133.3,2.221.648,3.355.9l13.555,3.09-13.691-2.492c-1.133-.2-2.267-.5-3.4-.748l-3.4-.8-6.8-1.545-.861-.2-.861-.249-1.677-.449-3.355-.947-3.355-.947-1.677-.448c-.544-.15-1.133-.3-1.677-.5l-6.664-2.193-3.355-1.1-3.264-1.3c-2.176-.847-4.4-1.694-6.573-2.592l-6.437-2.94-1.632-.748-1.587-.847-3.173-1.645c-2.131-1.047-4.171-2.342-6.211-3.588a104.911,104.911,0,0,1-11.878-8.373l-2.765-2.442c-.453-.4-.907-.847-1.36-1.3l-1.315-1.346c-.453-.449-.861-.9-1.315-1.4l-1.269-1.445-1.224-1.545c-.181-.249-.408-.548-.589-.847l-.272-.4c-.091-.15-.227-.349-.317-.5Z" transform="translate(-663.1 -1053.8)"/>
      </g>
      <g id="Group_607" data-name="Group 607" transform="matrix(0.921, -0.391, 0.391, 0.921, 22.226, 22.982)">
        <path id="Path_662-2" data-name="Path 662" class="cls-8" d="M667.044,1053.8l.136.3.227.349a6.087,6.087,0,0,0,.453.7l1,1.4,1.088,1.345c.363.448.725.9,1.133,1.346l1.179,1.3a15.068,15.068,0,0,0,1.224,1.246l2.539,2.442a96.569,96.569,0,0,0,11.152,8.572c1.949,1.3,3.9,2.641,5.939,3.738l3.037,1.744,1.5.9c.5.3,1.043.548,1.541.8l6.256,3.189c2.131,1,4.261,1.894,6.392,2.841l3.219,1.4,3.264,1.246,6.528,2.492,1.632.6,1.677.548,3.309,1.1,3.31,1.1,1.677.548.816.249.816.249,6.71,1.844,3.355.947c1.133.3,2.221.648,3.355.9l13.555,3.09-13.691-2.492c-1.133-.2-2.267-.5-3.4-.748l-3.4-.8-6.8-1.545-.861-.2-.861-.249-1.677-.449-3.355-.947-3.355-.947-1.677-.448c-.544-.15-1.133-.3-1.677-.5l-6.664-2.193-3.355-1.1-3.264-1.3c-2.176-.847-4.4-1.694-6.573-2.592l-6.437-2.94-1.632-.748-1.587-.847-3.173-1.645c-2.131-1.047-4.171-2.342-6.211-3.588a104.911,104.911,0,0,1-11.878-8.373l-2.765-2.442c-.453-.4-.907-.847-1.36-1.3l-1.315-1.346c-.453-.449-.861-.9-1.315-1.4l-1.269-1.445-1.224-1.545c-.181-.249-.408-.548-.589-.847l-.272-.4c-.091-.15-.227-.349-.317-.5Z" transform="translate(-663.1 -1053.8)"/>
      </g>
      <g id="Group_608" data-name="Group 608" transform="translate(22.423 46.438) rotate(-19)">
        <path id="Path_662-3" data-name="Path 662" class="cls-8" d="M665.653,1053.8l.088.193.147.226a3.954,3.954,0,0,0,.294.452l.646.9.7.871c.235.29.47.581.734.871l.763.839a9.745,9.745,0,0,0,.792.807l1.644,1.581a62.524,62.524,0,0,0,7.221,5.55c1.262.839,2.524,1.71,3.845,2.42l1.966,1.129.969.581c.323.193.675.355,1,.516l4.05,2.065c1.38.645,2.759,1.226,4.139,1.839l2.084.9,2.113.807,4.227,1.614,1.057.387,1.086.355,2.143.71,2.143.71,1.086.355.528.161.528.161,4.344,1.194,2.172.613c.734.194,1.438.419,2.172.581l8.776,2-8.864-1.613c-.734-.129-1.468-.323-2.2-.484l-2.2-.516-4.4-1-.558-.129-.558-.161L709.24,1081l-2.172-.613-2.172-.613-1.086-.29c-.352-.1-.734-.194-1.086-.323l-4.315-1.42-2.172-.71-2.113-.839c-1.409-.549-2.847-1.1-4.256-1.678l-4.168-1.9-1.057-.484-1.027-.548-2.055-1.065c-1.379-.678-2.7-1.516-4.021-2.323a67.927,67.927,0,0,1-7.69-5.421l-1.79-1.581c-.294-.258-.587-.548-.881-.839l-.851-.871c-.293-.291-.558-.581-.851-.9l-.822-.936-.792-1c-.117-.161-.264-.355-.382-.548l-.176-.258c-.059-.1-.147-.226-.205-.323Z" transform="translate(-663.1 -1053.8)"/>
      </g>
      <g id="Group_609" data-name="Group 609" transform="matrix(0.921, -0.391, 0.391, 0.921, 22.226, 67.982)">
        <path id="Path_662-4" data-name="Path 662" class="cls-8" d="M667.044,1053.8l.136.3.227.349a6.087,6.087,0,0,0,.453.7l1,1.4,1.088,1.345c.363.448.725.9,1.133,1.346l1.179,1.3a15.068,15.068,0,0,0,1.224,1.246l2.539,2.442a96.569,96.569,0,0,0,11.152,8.572c1.949,1.3,3.9,2.641,5.939,3.738l3.037,1.744,1.5.9c.5.3,1.043.548,1.541.8l6.256,3.189c2.131,1,4.261,1.894,6.392,2.841l3.219,1.4,3.264,1.246,6.528,2.492,1.632.6,1.677.548,3.309,1.1,3.31,1.1,1.677.548.816.249.816.249,6.71,1.844,3.355.947c1.133.3,2.221.648,3.355.9l13.555,3.09-13.691-2.492c-1.133-.2-2.267-.5-3.4-.748l-3.4-.8-6.8-1.545-.861-.2-.861-.249-1.677-.449-3.355-.947-3.355-.947-1.677-.448c-.544-.15-1.133-.3-1.677-.5l-6.664-2.193-3.355-1.1-3.264-1.3c-2.176-.847-4.4-1.694-6.573-2.592l-6.437-2.94-1.632-.748-1.587-.847-3.173-1.645c-2.131-1.047-4.171-2.342-6.211-3.588a104.911,104.911,0,0,1-11.878-8.373l-2.765-2.442c-.453-.4-.907-.847-1.36-1.3l-1.315-1.346c-.453-.449-.861-.9-1.315-1.4l-1.269-1.445-1.224-1.545c-.181-.249-.408-.548-.589-.847l-.272-.4c-.091-.15-.227-.349-.317-.5Z" transform="translate(-663.1 -1053.8)"/>
      </g>
      <g id="Group_610" data-name="Group 610" transform="matrix(0.921, -0.391, 0.391, 0.921, 22.226, 97.982)">
        <path id="Path_662-5" data-name="Path 662" class="cls-8" d="M667.044,1053.8l.136.3.227.349a6.087,6.087,0,0,0,.453.7l1,1.4,1.088,1.345c.363.448.725.9,1.133,1.346l1.179,1.3a15.068,15.068,0,0,0,1.224,1.246l2.539,2.442a96.569,96.569,0,0,0,11.152,8.572c1.949,1.3,3.9,2.641,5.939,3.738l3.037,1.744,1.5.9c.5.3,1.043.548,1.541.8l6.256,3.189c2.131,1,4.261,1.894,6.392,2.841l3.219,1.4,3.264,1.246,6.528,2.492,1.632.6,1.677.548,3.309,1.1,3.31,1.1,1.677.548.816.249.816.249,6.71,1.844,3.355.947c1.133.3,2.221.648,3.355.9l13.555,3.09-13.691-2.492c-1.133-.2-2.267-.5-3.4-.748l-3.4-.8-6.8-1.545-.861-.2-.861-.249-1.677-.449-3.355-.947-3.355-.947-1.677-.448c-.544-.15-1.133-.3-1.677-.5l-6.664-2.193-3.355-1.1-3.264-1.3c-2.176-.847-4.4-1.694-6.573-2.592l-6.437-2.94-1.632-.748-1.587-.847-3.173-1.645c-2.131-1.047-4.171-2.342-6.211-3.588a104.911,104.911,0,0,1-11.878-8.373l-2.765-2.442c-.453-.4-.907-.847-1.36-1.3l-1.315-1.346c-.453-.449-.861-.9-1.315-1.4l-1.269-1.445-1.224-1.545c-.181-.249-.408-.548-.589-.847l-.272-.4c-.091-.15-.227-.349-.317-.5Z" transform="translate(-663.1 -1053.8)"/>
      </g>
    </g>
    <path id="Path_643" data-name="Path 643" class="cls-10" d="M126,270.4" transform="translate(701.933 86.082)"/>
    <path id="Path_644" data-name="Path 644" class="cls-11" d="M161.6,637.512s6.847-25.926,32.355-10.715c0,0,16.57-25.717,29.114,0,0,0,12.048-11.839,17.824-.131,0,0,24.907-3.528,17.484,7.867C251.008,645.927,164.083,643.68,161.6,637.512Z" transform="translate(609.637 -186.727)"/>
    <path id="Path_645" data-name="Path 645" class="cls-11" d="M298.4,949.684s9.618-36.406,45.475-15.054c0,0,23.26-36.119,40.928,0,0,0,16.909-16.622,25.064-.183,0,0,34.995-4.94,24.567,11.081C424.005,961.524,301.876,958.387,298.4,949.684Z" transform="translate(514.589 -392.694)"/>
    <path id="Path_646" data-name="Path 646" class="cls-11" d="M420.848,231.484s-9.618-36.406-45.475-15.054c0,0-23.26-36.119-40.928,0,0,0-16.909-16.622-25.064-.183,0,0-34.995-4.94-24.567,11.081S417.372,240.187,420.848,231.484Z" transform="translate(586.057 137.804)"/>
    <path id="Path_647" data-name="Path 647" class="cls-11" d="M848.836,748.875s-4.626-17.563-21.927-7.239c0,0-11.212-17.406-19.732,0,0,0-8.154-8.023-12.074-.078,0,0-16.857-2.378-11.839,5.332C788.281,754.573,847.163,753.057,848.836,748.875Z" transform="translate(285.135 -179.282)"/>
    <path id="Path_650-2" data-name="Path 650" class="cls-2" d="M288.2,267.8l101.5-44.56L457.758,193.7,336.1,298.47,288.2,267.8Z" transform="translate(775.746 51.125)"/>
    <path id="Path_651-2" data-name="Path 651" class="cls-3" d="M454.145,185.018h0l-84.873,36.853-34.257,14.934a2.263,2.263,0,0,0,1.218,2.229.933.933,0,0,0-.115-.207l34.05-14.842,78.187-33.935-2.068,1.769-22.815,19.644-30.42,26.169-60.2,51.788-23.229-14.888-20.954-13.418-1.264-.8.735-.345,2.619-1.195,5.284-2.344,10.569-4.664,29.616-12.935c.069.138-.069-1.333,0-1.195-.184-.919,0-.827,0-.827l1.273-1.18-31.831,14.024-10.592,4.664-5.284,2.367-2.642,1.195-1.333.62-.666.322-.345.161-.184.092-.115.069a.91.91,0,0,0-.092.069,1.3,1.3,0,0,0-.322.322c.666,3.286.184.919.345,1.654h.023l.023.023.046.023.092.069.184.115.368.23.758.482,1.493.965L290.418,265l6,3.837,11.97,7.674,23.941,15.3.712.459.643-.551h0l60.794-52.431,30.4-26.192,22.792-19.644,3.791-3.286c1.264-1.1,2.527-2.183,3.86-3.217l1.493-3.148Z" transform="translate(778.9 58.75)"/>
    <path id="Path_653-2" data-name="Path 653" class="cls-12" d="M528.2,314.03,641.31,205.4,579.9,338.5Z" transform="translate(590.884 42.113)"/>
    <g id="Group_594-2" data-name="Group 594" transform="translate(1110.715 244.825)">
      <path id="Path_654-2" data-name="Path 654" class="cls-2" d="M496.644,298.47c-.345,1.723,4.733,28.536,4.733,28.536l2.5-21.988L618.3,193.7Z" transform="translate(-495.512 -193.7)"/>
      <path id="Path_655-2" data-name="Path 655" class="cls-3" d="M493.895,299.044a.454.454,0,0,0,.138-.322v.161c0,.115.023.253.023.391.023.276.069.574.092.85.069.574.161,1.172.23,1.769.161,1.172.368,2.367.551,3.561.391,2.367.8,4.733,1.218,7.123.85,4.733,1.723,9.489,2.6,14.222l-2.275.092,2.5-21.988h0l.046-.414.3-.276,115.2-110.491h0v.023a4.469,4.469,0,0,1-.528,1.31,7.053,7.053,0,0,1-.758,1.034,8.057,8.057,0,0,1-.919.85l-.942.827-3.768,3.286-7.536,6.571-15.1,13.142-15.118,13.119-7.513,6.525-7.582,6.548-15.164,13.073-15.187,13.05Q509.208,286.04,493.895,299.044Zm-1.976-1.149q15.061-13.234,30.305-26.376l15.233-13.142,15.256-13.142,7.628-6.548,7.651-6.548,15.279-13.1,15.325-13.05,7.651-6.525,3.837-3.263.965-.8a8.211,8.211,0,0,1,.988-.781,6.027,6.027,0,0,1,1.149-.6,4.188,4.188,0,0,1,1.379-.322v.023h0L500.948,305.845l.345-.689h0l-2.5,21.988-.85,7.559-1.4-7.49c-.9-4.756-1.769-9.489-2.619-14.245-.414-2.367-.827-4.756-1.218-7.146q-.31-1.792-.551-3.584c-.092-.6-.161-1.218-.253-1.815-.023-.322-.069-.62-.092-.942a3.562,3.562,0,0,1-.023-.505V298.7A1.529,1.529,0,0,1,491.919,297.9Z" transform="translate(-491.775 -193.7)"/>
    </g>
    <path id="Path_657-2" data-name="Path 657" class="cls-8" d="M379,580.5c.889.627,1.777,1.1,2.666,1.751" transform="translate(515.054 -142.973)"/>
    <path id="Path_659-2" data-name="Path 659" class="cls-9" d="M305.793,999.789C304.277,999,314.03,881,307.361,806.6c0,0,103,42.616,143.743,0,0,0-16.727,142.517,3.659,180.521C454.763,987.121,391.629,1014.6,305.793,999.789Z" transform="translate(572.371 -347.8)"/>
    <g id="Group_607-2" data-name="Group 607" transform="matrix(0.921, -0.391, 0.391, 0.921, 896, 541.6)">
      <path id="Path_662-6" data-name="Path 662" class="cls-8" d="M667.044,1053.8l.136.3.227.349a6.087,6.087,0,0,0,.453.7l1,1.4,1.088,1.345c.363.448.725.9,1.133,1.346l1.179,1.3a15.068,15.068,0,0,0,1.224,1.246l2.539,2.442a96.569,96.569,0,0,0,11.152,8.572c1.949,1.3,3.9,2.641,5.939,3.738l3.037,1.744,1.5.9c.5.3,1.043.548,1.541.8l6.256,3.189c2.131,1,4.261,1.894,6.392,2.841l3.219,1.4,3.264,1.246,6.528,2.492,1.632.6,1.677.548,3.309,1.1,3.31,1.1,1.677.548.816.249.816.249,6.71,1.844,3.355.947c1.133.3,2.221.648,3.355.9l13.555,3.09-13.691-2.492c-1.133-.2-2.267-.5-3.4-.748l-3.4-.8-6.8-1.545-.861-.2-.861-.249-1.677-.449-3.355-.947-3.355-.947-1.677-.448c-.544-.15-1.133-.3-1.677-.5l-6.664-2.193-3.355-1.1-3.264-1.3c-2.176-.847-4.4-1.694-6.573-2.592l-6.437-2.94-1.632-.748-1.587-.847-3.173-1.645c-2.131-1.047-4.171-2.342-6.211-3.588a104.911,104.911,0,0,1-11.878-8.373l-2.765-2.442c-.453-.4-.907-.847-1.36-1.3l-1.315-1.346c-.453-.449-.861-.9-1.315-1.4l-1.269-1.445-1.224-1.545c-.181-.249-.408-.548-.589-.847l-.272-.4c-.091-.15-.227-.349-.317-.5Z" transform="translate(-663.1 -1053.8)"/>
    </g>
    <g id="Group_608-2" data-name="Group 608" transform="translate(896.197 543.057) rotate(-19)">
      <path id="Path_662-7" data-name="Path 662" class="cls-8" d="M665.653,1053.8l.088.193.147.226a3.954,3.954,0,0,0,.294.452l.646.9.7.871c.235.29.47.581.734.871l.763.839a9.745,9.745,0,0,0,.792.807l1.644,1.581a62.524,62.524,0,0,0,7.221,5.55c1.262.839,2.524,1.71,3.845,2.42l1.966,1.129.969.581c.323.193.675.355,1,.516l4.05,2.065c1.38.645,2.759,1.226,4.139,1.839l2.084.9,2.113.807,4.227,1.614,1.057.387,1.086.355,2.143.71,2.143.71,1.086.355.528.161.528.161,4.344,1.194,2.172.613c.734.194,1.438.419,2.172.581l8.776,2-8.864-1.613c-.734-.129-1.468-.323-2.2-.484l-2.2-.516-4.4-1-.558-.129-.558-.161L709.24,1081l-2.172-.613-2.172-.613-1.086-.29c-.352-.1-.734-.194-1.086-.323l-4.315-1.42-2.172-.71-2.113-.839c-1.409-.549-2.847-1.1-4.256-1.678l-4.168-1.9-1.057-.484-1.027-.548-2.055-1.065c-1.379-.678-2.7-1.516-4.021-2.323a67.927,67.927,0,0,1-7.69-5.421l-1.79-1.581c-.294-.258-.587-.548-.881-.839l-.851-.871c-.293-.291-.558-.581-.851-.9l-.822-.936-.792-1c-.117-.161-.264-.355-.382-.548l-.176-.258c-.059-.1-.147-.226-.205-.323Z" transform="translate(-663.1 -1053.8)"/>
    </g>
    <g id="Group_609-2" data-name="Group 609" transform="matrix(0.921, -0.391, 0.391, 0.921, 896, 564.6)">
      <path id="Path_662-8" data-name="Path 662" class="cls-8" d="M667.044,1053.8l.136.3.227.349a6.087,6.087,0,0,0,.453.7l1,1.4,1.088,1.345c.363.448.725.9,1.133,1.346l1.179,1.3a15.068,15.068,0,0,0,1.224,1.246l2.539,2.442a96.569,96.569,0,0,0,11.152,8.572c1.949,1.3,3.9,2.641,5.939,3.738l3.037,1.744,1.5.9c.5.3,1.043.548,1.541.8l6.256,3.189c2.131,1,4.261,1.894,6.392,2.841l3.219,1.4,3.264,1.246,6.528,2.492,1.632.6,1.677.548,3.309,1.1,3.31,1.1,1.677.548.816.249.816.249,6.71,1.844,3.355.947c1.133.3,2.221.648,3.355.9l13.555,3.09-13.691-2.492c-1.133-.2-2.267-.5-3.4-.748l-3.4-.8-6.8-1.545-.861-.2-.861-.249-1.677-.449-3.355-.947-3.355-.947-1.677-.448c-.544-.15-1.133-.3-1.677-.5l-6.664-2.193-3.355-1.1-3.264-1.3c-2.176-.847-4.4-1.694-6.573-2.592l-6.437-2.94-1.632-.748-1.587-.847-3.173-1.645c-2.131-1.047-4.171-2.342-6.211-3.588a104.911,104.911,0,0,1-11.878-8.373l-2.765-2.442c-.453-.4-.907-.847-1.36-1.3l-1.315-1.346c-.453-.449-.861-.9-1.315-1.4l-1.269-1.445-1.224-1.545c-.181-.249-.408-.548-.589-.847l-.272-.4c-.091-.15-.227-.349-.317-.5Z" transform="translate(-663.1 -1053.8)"/>
    </g>
    <g id="Group_610-2" data-name="Group 610" transform="matrix(0.921, -0.391, 0.391, 0.921, 896, 594.6)">
      <path id="Path_662-9" data-name="Path 662" class="cls-8" d="M667.044,1053.8l.136.3.227.349a6.087,6.087,0,0,0,.453.7l1,1.4,1.088,1.345c.363.448.725.9,1.133,1.346l1.179,1.3a15.068,15.068,0,0,0,1.224,1.246l2.539,2.442a96.569,96.569,0,0,0,11.152,8.572c1.949,1.3,3.9,2.641,5.939,3.738l3.037,1.744,1.5.9c.5.3,1.043.548,1.541.8l6.256,3.189c2.131,1,4.261,1.894,6.392,2.841l3.219,1.4,3.264,1.246,6.528,2.492,1.632.6,1.677.548,3.309,1.1,3.31,1.1,1.677.548.816.249.816.249,6.71,1.844,3.355.947c1.133.3,2.221.648,3.355.9l13.555,3.09-13.691-2.492c-1.133-.2-2.267-.5-3.4-.748l-3.4-.8-6.8-1.545-.861-.2-.861-.249-1.677-.449-3.355-.947-3.355-.947-1.677-.448c-.544-.15-1.133-.3-1.677-.5l-6.664-2.193-3.355-1.1-3.264-1.3c-2.176-.847-4.4-1.694-6.573-2.592l-6.437-2.94-1.632-.748-1.587-.847-3.173-1.645c-2.131-1.047-4.171-2.342-6.211-3.588a104.911,104.911,0,0,1-11.878-8.373l-2.765-2.442c-.453-.4-.907-.847-1.36-1.3l-1.315-1.346c-.453-.449-.861-.9-1.315-1.4l-1.269-1.445-1.224-1.545c-.181-.249-.408-.548-.589-.847l-.272-.4c-.091-.15-.227-.349-.317-.5Z" transform="translate(-663.1 -1053.8)"/>
    </g>
    <g id="Group_612" data-name="Group 612" transform="translate(896.197 623.057) rotate(-19)">
      <path id="Path_662-10" data-name="Path 662" class="cls-8" d="M665.653,1053.8l.088.193.147.226a3.954,3.954,0,0,0,.294.452l.646.9.7.871c.235.29.47.581.734.871l.763.839a9.745,9.745,0,0,0,.792.807l1.644,1.581a62.524,62.524,0,0,0,7.221,5.55c1.262.839,2.524,1.71,3.845,2.42l1.966,1.129.969.581c.323.193.675.355,1,.516l4.05,2.065c1.38.645,2.759,1.226,4.139,1.839l2.084.9,2.113.807,4.227,1.614,1.057.387,1.086.355,2.143.71,2.143.71,1.086.355.528.161.528.161,4.344,1.194,2.172.613c.734.194,1.438.419,2.172.581l8.776,2-8.864-1.613c-.734-.129-1.468-.323-2.2-.484l-2.2-.516-4.4-1-.558-.129-.558-.161L709.24,1081l-2.172-.613-2.172-.613-1.086-.29c-.352-.1-.734-.194-1.086-.323l-4.315-1.42-2.172-.71-2.113-.839c-1.409-.549-2.847-1.1-4.256-1.678l-4.168-1.9-1.057-.484-1.027-.548-2.055-1.065c-1.379-.678-2.7-1.516-4.021-2.323a67.927,67.927,0,0,1-7.69-5.421l-1.79-1.581c-.294-.258-.587-.548-.881-.839l-.851-.871c-.293-.291-.558-.581-.851-.9l-.822-.936-.792-1c-.117-.161-.264-.355-.382-.548l-.176-.258c-.059-.1-.147-.226-.205-.323Z" transform="translate(-663.1 -1053.8)"/>
    </g>
    <path id="Path_664" data-name="Path 664" class="cls-11" d="M876.449,777.906S869.9,726.3,845.417,756.633c0,0-15.867-51.148-27.924,0,0,0-11.54-23.577-17.088-.23,0,0-23.856-6.989-16.755,15.667C790.752,794.648,874.082,790.194,876.449,777.906Z" transform="translate(340.151 -278.016)"/>
    <rect id="Rectangle_295" data-name="Rectangle 295" class="cls-8" width="33" height="35" transform="translate(960 494)"/>
  </g>
</svg>
